<svg width="44" height="44" viewBox="0 0 44 44" fill="none" xmlns="http://www.w3.org/2000/svg">
<rect x="0.5" y="0.5" width="43" height="43" rx="8.5" fill="#3D3737" stroke="white"/>
<mask id="mask0_4_242" style="mask-type:alpha" maskUnits="userSpaceOnUse" x="1" y="1" width="42" height="42">
<rect x="1" y="1" width="42" height="42" rx="8" fill="black"/>
</mask>
<g mask="url(#mask0_4_242)">
<rect x="3.50381" y="4.15227" width="36.9907" height="37.9806" fill="white"/>
<g clip-path="url(#clip0_4_242)">
<path d="M38.5012 1.00571H5.51025C3.02655 1.00571 1.01147 3.02078 1.01147 5.50448V38.4955C1.01147 40.9792 3.02655 42.9942 5.51025 42.9942H38.5012C40.9849 42.9942 43 40.9792 43 38.4955V5.50448C43 3.02078 40.9849 1.00571 38.5012 1.00571ZM27.0012 36.9678C26.214 37.1083 25.9234 36.621 25.9234 36.218C25.9234 35.7118 25.9422 33.1251 25.9422 31.035C25.9422 29.5729 25.4548 28.645 24.8831 28.1577C28.3509 27.7734 32.0061 27.2954 32.0061 21.3064C32.0061 19.6006 31.3969 18.7477 30.4034 17.6512C30.5628 17.2481 31.097 15.5892 30.2441 13.4336C28.9413 13.0305 25.9609 15.1112 25.9609 15.1112C24.7237 14.7644 23.3835 14.5864 22.062 14.5864C20.7405 14.5864 19.4002 14.7644 18.163 15.1112C18.163 15.1112 15.1826 13.0305 13.8798 13.4336C13.0269 15.5798 13.5518 17.2388 13.7205 17.6512C12.727 18.7477 12.2584 19.6006 12.2584 21.3064C12.2584 27.2673 15.7543 27.7734 19.2221 28.1577C18.7722 28.5607 18.3692 29.2542 18.2286 30.2477C17.3383 30.6507 15.0608 31.3443 13.7018 28.9449C12.8489 27.4641 11.3118 27.3423 11.3118 27.3423C9.79345 27.3235 11.2087 28.2982 11.2087 28.2982C12.2209 28.7669 12.9332 30.5664 12.9332 30.5664C13.8423 33.35 18.1912 32.4127 18.1912 32.4127C18.1912 33.7155 18.2099 35.8337 18.2099 36.218C18.2099 36.621 17.9287 37.1083 17.1321 36.9678C10.9463 34.8964 6.61619 29.0106 6.61619 22.1312C6.61619 13.5273 13.1956 6.9947 21.7995 6.9947C30.4034 6.9947 37.3765 13.5273 37.3765 22.1312C37.3859 29.0106 33.1871 34.9058 27.0012 36.9678ZM17.8069 31.2412C17.6288 31.2787 17.4601 31.2037 17.4414 31.0819C17.4226 30.9413 17.5445 30.8194 17.7225 30.7819C17.9006 30.7632 18.0693 30.8382 18.0881 30.96C18.1162 31.0819 17.9943 31.2037 17.8069 31.2412ZM16.9165 31.1568C16.9165 31.2787 16.7759 31.3818 16.5885 31.3818C16.3823 31.4005 16.2417 31.2974 16.2417 31.1568C16.2417 31.035 16.3823 30.9319 16.5697 30.9319C16.7478 30.9132 16.9165 31.0163 16.9165 31.1568ZM15.6325 31.0537C15.595 31.1756 15.4075 31.2318 15.2482 31.1756C15.0701 31.1381 14.9483 30.9975 14.9858 30.8757C15.0233 30.7538 15.2107 30.6976 15.3701 30.7351C15.5575 30.7913 15.6793 30.9319 15.6325 31.0537ZM14.4797 30.5476C14.3953 30.6507 14.2172 30.632 14.0767 30.4914C13.9361 30.3696 13.8986 30.1915 13.9923 30.1071C14.0767 30.004 14.2547 30.0228 14.3953 30.1634C14.5172 30.2852 14.564 30.4727 14.4797 30.5476ZM13.6268 29.6947C13.5424 29.751 13.3831 29.6947 13.28 29.5542C13.1769 29.4136 13.1769 29.2542 13.28 29.1886C13.3831 29.1043 13.5424 29.1699 13.6268 29.3105C13.7299 29.4511 13.7299 29.6198 13.6268 29.6947ZM13.0176 28.7856C12.9332 28.87 12.7926 28.8231 12.6895 28.7294C12.5864 28.6075 12.5677 28.467 12.652 28.4013C12.7364 28.317 12.877 28.3639 12.9801 28.4576C13.0832 28.5794 13.1019 28.72 13.0176 28.7856ZM12.3896 28.0921C12.3521 28.1764 12.2303 28.1952 12.1272 28.1295C12.0053 28.0733 11.9491 27.9702 11.9866 27.8859C12.0241 27.8296 12.1272 27.8015 12.249 27.8484C12.3709 27.914 12.4271 28.0171 12.3896 28.0921Z" fill="black"/>
</g>
</g>
<defs>
<clipPath id="clip0_4_242">
<rect width="41.9885" height="47.9869" fill="white" transform="translate(1.01147 -1.99347)"/>
</clipPath>
</defs>
</svg>
