<svg width="59" height="45" viewBox="0 0 59 45" fill="none" xmlns="http://www.w3.org/2000/svg">
<path d="M4.88758 44H13.9508V22.3733L1 12.8194V40.1806C1 42.2981 2.74451 44 4.88758 44Z" fill="#4285F4"/>
<path d="M45.0492 44H54.1124C56.2555 44 58 42.2861 58 40.1806V12.8194L45.0492 22.3613V44Z" fill="#34A853"/>
<path d="M45.0492 5.81939V22.3613L58 12.8194V7.72361C58 3.00845 52.5171 0.309078 48.6752 3.14298L45.0492 5.81939Z" fill="#FBBC04"/>
<path d="M13.9508 22.3733V5.81939L29.5 17.2775L45.0492 5.81939V22.3733L29.5 33.8194L13.9508 22.3733Z" fill="#EA4335"/>
<path d="M1 7.73435V12.8301L13.9508 22.372V5.81939L10.3248 3.15373C6.48291 0.319821 1 3.0192 1 7.73435Z" fill="#C5221F"/>
<path d="M13.9508 44.5H14.4508V44V23.3622L29.2036 34.2221L29.5 34.4403L29.7964 34.2221L44.5492 23.3622V44V44.5H45.0492H54.1124C56.5233 44.5 58.5 42.5706 58.5 40.1806V13.0721V12.8194V11.8299V7.72361C58.5 2.58248 52.5376 -0.327374 48.3784 2.74061L48.3782 2.7407L44.7526 5.41687L44.7523 5.41711L29.5 16.6564L14.4508 5.56675V5.56639L14.2474 5.41687L14.247 5.41654L13.4508 4.82985V4.83123L10.6216 2.75135C10.6215 2.75124 10.6213 2.75113 10.6212 2.75102C6.46195 -0.316422 0.5 2.59341 0.5 7.73435V11.8292V12.8194V12.8301V13.0828V40.1806C0.5 42.5836 2.47778 44.5 4.88758 44.5H13.9508Z" stroke="white"/>
<path d="M4.88758 44H13.9508V22.3733L1 12.8194V40.1806C1 42.2981 2.74451 44 4.88758 44Z" fill="#4285F4"/>
<path d="M45.0492 44H54.1124C56.2555 44 58 42.2861 58 40.1806V12.8194L45.0492 22.3613V44Z" fill="#34A853"/>
<path d="M45.0492 5.81939V22.3613L58 12.8194V7.72361C58 3.00845 52.5171 0.309078 48.6751 3.14298L45.0492 5.81939Z" fill="#FBBC04"/>
<path d="M13.9508 22.3733V5.8194L29.5 17.2775L45.0492 5.8194V22.3733L29.5 33.8194L13.9508 22.3733Z" fill="#EA4335"/>
<path d="M1 7.73435V12.8301L13.9508 22.372V5.81919L10.3248 3.15373C6.48291 0.31982 1 3.01919 1 7.73435Z" fill="#C5221F"/>
</svg>
