<svg width="63" height="71" viewBox="0 0 63 71" fill="none" xmlns="http://www.w3.org/2000/svg">
<g clip-path="url(#clip0_69_179)">
<path d="M40.5695 70.3201H41.4192L55.2886 63.3845L55.5195 63.0582V7.69864L55.2886 7.37068L41.4192 0.440918H40.5591L40.5695 70.3201Z" fill="#5294CF"/>
<path d="M22.5205 70.3201H21.6589L7.80132 63.3845L7.52011 62.9008L7.37744 7.98057L7.80132 7.37068L21.6589 0.440918H22.5311L22.5205 70.3201Z" fill="#1F5B98"/>
<path d="M21.6836 0.440918H41.4062V70.3201H21.6836V0.440918Z" fill="#2D72B8"/>
<path d="M62.5484 33.8105L62.0797 33.7066L55.3878 33.0827L55.2885 33.1321L41.4067 32.5769H21.6832L7.80116 33.1321V22.5463L7.78663 22.5541L7.80116 22.5231L21.6832 19.3065H41.4067L55.2885 22.5231L60.3917 25.2356V23.4917L62.5484 23.2558L62.3251 22.8203L55.4966 17.9375L55.2885 18.005L41.4067 13.7035H21.6832L7.80116 18.005V7.37061L0.541504 15.8755V23.3032L0.597698 23.2625L2.69818 23.4917V25.2715L0.541504 26.4256V33.8163L0.597698 33.8105L2.69818 33.8415V36.9435L0.885933 36.9707L0.541504 36.9377V44.3313L2.69818 45.4911V47.2914L0.63185 47.5196L0.541504 47.4518V54.8783L7.80116 63.3844V52.751L21.6832 57.0524H41.4067L55.3295 52.7384L55.5145 52.8195L62.2532 48.0086L62.5484 47.5293L60.3917 47.2914V45.5271L60.1091 45.4143L55.4966 47.9006L55.3295 48.2494L41.4067 51.4474V51.4512H21.6832V51.4474L7.80116 48.2358V37.6113L21.6832 38.1646V38.1781H41.4067L55.2885 37.6113L55.6046 37.7567L62.0909 37.1981L62.5484 36.9746L60.3917 36.9435V33.8415L62.5484 33.8105Z" fill="#1A476F"/>
<path d="M55.2886 52.751V63.3844L62.5485 54.8783V47.5002L55.3305 52.7384L55.2886 52.751ZM55.2886 48.2591L55.3305 48.2494L62.5485 44.3672V36.9435L55.2886 37.6113V48.2591ZM55.3305 22.5328L55.2886 22.5231V33.1321L62.5485 33.8105V26.3905L55.3305 22.5328ZM55.3305 18.0467L62.5485 23.2558V15.8774L55.2886 7.37061V18.005L55.3305 18.0196V18.0467Z" fill="#2D72B8"/>
</g>
<defs>
<clipPath id="clip0_69_179">
<rect width="62.02" height="70" fill="white" transform="translate(0.535156 0.440918)"/>
</clipPath>
</defs>
</svg>
