<svg width="311" height="71" viewBox="0 0 311 71" fill="none" xmlns="http://www.w3.org/2000/svg">
<g clip-path="url(#clip0_69_168)">
<path fill-rule="evenodd" clip-rule="evenodd" d="M296.486 5.7583L309.412 5.82951C309.412 5.82951 285.381 38.394 283.418 41.048C282.781 41.9073 281.813 42.8342 281.322 43.9831C280.08 46.8712 278.806 53.2068 278.806 53.2068L266.979 53.266C266.979 53.266 268.82 46.6618 268.743 43.1443C268.677 40.0716 267.108 37.0024 266.228 33.9206C265.339 30.8008 264.131 24.6963 264.131 24.6963H276.291L277.968 31.4049L296.486 5.7583Z" fill="white"/>
<path fill-rule="evenodd" clip-rule="evenodd" d="M272.01 12.6262C274.395 14.0642 275.859 21.9971 275.859 21.9971C275.859 21.9971 263.378 22.1812 256.585 22.1812H250.715L243.588 53.2069H232.687C232.687 53.2069 239.471 19.4898 241.072 13.3769C241.591 11.3976 244.628 11.7373 249.755 11.7373H257.944C263.231 11.7373 269.411 11.062 272.01 12.6262ZM221.262 27.7365C221.262 27.7365 221.602 25.7451 220.109 23.4388C218.834 21.4727 217.657 21.0153 214.302 20.9103C204.831 20.6128 205.015 27.6315 205.015 27.6315L221.262 27.7365ZM231.534 19.6986C232.922 24.7054 230.276 36.4696 230.276 36.4696C230.276 36.4696 216.461 36.2391 208.894 36.4696C206.541 36.5414 203.724 36.2138 203.024 37.3084C202.038 38.8424 203.384 41.2037 204.525 42.2012C205.837 43.3495 208.394 43.4805 209.313 43.597C215.455 44.3772 228.309 43.7985 228.309 43.7985L226.083 53.6589C226.083 53.6589 207.917 54.5701 198.831 52.4013C197.037 51.974 195.355 51.1105 194.219 49.8861C193.909 49.5512 193.64 49.0944 193.346 48.6997C193.112 48.3847 192.429 47.3498 192.122 46.5315C190.047 41.0015 192.366 30.4074 194.638 24.7301C194.902 24.0724 195.233 23.2378 195.582 22.5288C196.018 21.6447 196.386 20.6466 196.735 20.118C196.969 19.7535 197.259 19.5188 197.502 19.1748C197.783 18.7681 198.109 18.374 198.412 18.0222C199.25 17.0495 200.202 16.3615 201.347 15.507C205.132 12.672 211.983 10.4713 220.214 11.3137C223.312 11.6323 227.992 12.739 230.276 15.9258C230.888 16.7767 231.19 18.4658 231.534 19.6986ZM181.536 11.6987L192.106 11.6365C192.106 11.6365 186.215 39.5804 183.213 53.2069H171.054C162.556 53.2069 154.988 54.2593 151.768 48.1753C148.645 42.2682 151.626 32.5539 153.026 25.9539C154.015 21.2833 156.1 11.7367 156.1 11.7367L167.051 11.6365C167.051 11.6365 163.957 26.4995 162.669 33.9207C162.208 36.5789 161.257 39.082 162.25 41.0474C163.193 42.9181 164.514 43.052 168.539 43.1444C169.814 43.1745 173.989 43.1444 173.989 43.1444L181.536 11.6987ZM132.062 31.8237C133.169 27.8916 134.783 23.6276 134.578 20.0842C134.356 16.2945 131.178 12.844 129.128 12.1187C122.952 9.93843 117.171 12.9864 114.873 15.4726C111.9 18.6926 110.894 22.4539 109.841 27.6321C109.058 31.4761 108.416 35.5343 109.841 38.5322C112.365 43.8323 120.235 42.6749 128.709 42.7256C129.966 39.3547 131.006 35.5687 132.062 31.8237ZM146.737 16.3114C147.944 25.0904 143.312 34.7806 140.121 43.2071C143.375 43.501 146.226 43.1619 146.431 43.4045C146.645 43.7189 144.25 53.4627 143.416 53.4881C140.834 53.5551 132.277 53.6263 128.709 53.6263C117.065 53.6263 106.173 54.3848 100.618 48.5953C98.3623 46.2431 96.8024 42.209 96.4246 39.371C95.7958 34.6333 96.5839 29.4171 97.6828 25.1164C98.6767 21.2332 99.9506 17.569 101.876 14.2145C106.768 5.67446 115.279 -0.664763 129.547 0.798599C132.314 1.08343 136.288 2.29515 138.771 3.73317C138.942 3.83394 139.543 4.31187 139.68 4.39575C143.035 6.53015 146.091 11.6239 146.737 16.3114ZM95.2213 11.7494C94.5171 14.9567 93.8129 18.5925 93.0707 21.7618H81.3312C82.2406 18.2485 82.937 14.7558 83.847 11.6993C87.6034 11.6993 91.0962 11.7494 95.222 11.7494M80.9118 24.697H92.2325C90.7522 32.8894 87.8213 46.1043 85.5239 55.3032C84.0859 61.0601 83.1258 65.2607 79.2348 68.3003C78.8866 68.5731 78.6857 68.4433 78.396 68.7197C77.6791 69.4034 74.3626 70.1964 72.5269 70.3967C69.5416 70.7201 66.1665 70.4389 62.4976 70.3635C63.4576 66.8545 64.5439 62.6406 65.3995 59.4954C74.3426 60.578 74.5689 52.1249 76.3002 43.9832C77.302 39.2787 80.3379 26.5833 80.9118 24.697Z" fill="white"/>
<path fill-rule="evenodd" clip-rule="evenodd" d="M54.4975 46.0798L54.2549 46.7086C50.1213 54.7586 42.796 59.6972 32.3479 59.915C27.4636 60.0158 22.8098 58.7624 19.7696 57.3999C13.2089 54.452 7.69039 48.9854 4.67677 43.1446C0.353667 34.7718 -0.425988 23.1246 8.56298 14.4253C8.70177 14.4253 7.47255 16.3117 7.61134 16.3117L7.36393 17.1167C0.886512 37.3962 20.8431 54.7755 40.2428 52.7877C44.905 52.3098 50.8502 49.7566 54.4975 46.0798Z" fill="#21609B"/>
<path fill-rule="evenodd" clip-rule="evenodd" d="M42.758 37.6942C47.6387 37.7274 52.7366 35.4463 55.7557 32.2438C53.1144 38.9481 45.4669 43.2574 35.2119 41.8869C26.6248 40.738 18.4451 32.0972 17.6027 23.4389C16.9865 17.1377 19.1825 13.377 22.8014 8.81494C21.5438 11.201 21.0737 13.0409 20.9566 14.2146C19.582 27.8453 31.8452 37.6224 42.758 37.6942Z" fill="#21609B"/>
<path fill-rule="evenodd" clip-rule="evenodd" d="M55.2651 20.7637C54.5066 22.5041 50.1382 25.7904 48.209 26.2014C40.5699 27.8289 35.6778 24.2064 33.1149 20.0842C32.7341 19.4687 32.0299 17.7875 31.9038 17.3597C30.9099 13.9804 31.3667 8.86915 34.3315 6.22363C33.4384 8.73941 33.308 11.6613 33.7781 13.561C34.0629 14.7093 34.9307 16.7146 35.7991 17.9758C37.3789 20.2731 38.3812 20.8313 40.4106 22.0515C41.3248 22.6006 42.3054 23.0411 42.7291 23.1618C44.6535 23.7285 48.7159 25.2208 55.2651 20.7637Z" fill="#21609B"/>
</g>
<defs>
<clipPath id="clip0_69_168">
<rect width="309.187" height="70" fill="white" transform="translate(0.855957 0.541016)"/>
</clipPath>
</defs>
</svg>
