<svg width="107" height="71" viewBox="0 0 107 71" fill="none" xmlns="http://www.w3.org/2000/svg">
<g clip-path="url(#clip0_69_166)">
<path d="M103.682 0.431011C102.056 0.483305 102.57 0.951893 99.0557 1.8166C95.5067 2.68995 91.1716 2.42189 87.35 4.02489C75.9417 8.8096 73.6527 25.162 63.2816 31.0198C55.5293 35.3985 47.7078 35.7477 40.6761 37.9514C36.0549 39.4004 30.9996 42.3721 26.8128 45.9804C23.5632 48.7817 23.4783 51.2452 20.0825 54.7592C16.4507 58.5174 5.64727 54.8227 0.750977 60.575C2.32804 62.1698 3.0198 62.6165 6.1278 62.2027C5.48462 63.4224 1.69104 64.4501 2.43345 66.2446C3.21498 68.1325 12.3858 69.4123 20.7228 64.3793C24.6053 62.0351 27.6981 58.6562 33.7444 57.8499C41.5692 56.8069 50.5836 58.5187 59.642 59.8252C58.2988 63.83 55.6022 66.4933 53.442 69.6828C52.7729 70.4034 54.7856 70.4841 57.0816 70.0489C61.2116 69.0277 64.1879 68.205 67.3049 66.3908C71.1343 64.1615 71.7149 58.4466 76.4132 57.2097C79.0307 61.2334 86.151 62.1838 90.5688 58.9654C86.692 57.8681 85.6206 49.6163 86.9292 45.9804C88.1686 42.5381 89.3936 37.0328 90.6421 32.4828C91.9824 27.5968 92.4765 21.438 94.0984 18.9489C96.539 15.2043 99.2352 13.9184 101.576 11.8068C103.917 9.69489 106.06 7.63977 105.99 2.80772C105.967 1.25125 105.162 0.38407 103.682 0.431011Z" fill="#002B64"/>
<path d="M4.11823 65.9C10.0551 66.7507 13.6654 65.8999 18.4328 63.8329C22.4895 62.0734 26.4071 58.4466 31.1975 56.9091C38.2325 54.6518 45.9473 56.9119 53.4678 57.3628C55.2993 57.4728 57.1189 57.474 58.9151 57.2784C61.7163 55.5564 61.6586 49.116 64.3853 48.526C64.3051 57.5621 60.6004 62.9764 56.7261 68.219C64.8914 66.777 69.7778 62.0541 73.0781 55.7462C74.0795 53.8336 74.9343 51.776 75.6903 49.6192C76.8593 50.5164 76.1968 53.246 76.7844 54.7251C82.4087 51.592 85.6291 44.4421 87.7621 37.2107C90.2293 28.8415 91.2394 20.367 92.8309 17.8907C94.3841 15.4736 96.8011 13.9838 99.0073 12.4364C101.515 10.677 103.751 8.84336 104.137 5.49119C101.493 5.2466 100.882 4.63472 100.491 3.30225C99.1667 4.04836 97.9495 4.20813 96.5742 4.24931C95.3809 4.28554 94.0699 4.23242 92.4685 4.39672C79.2262 5.75678 77.5433 20.3526 69.0556 28.6266C68.4297 29.2329 67.7646 29.7974 67.0647 30.3165C64.0918 32.5318 60.4452 34.1146 57.0918 35.3964C51.6635 37.4705 46.5028 37.6179 41.4101 39.4082C37.6713 40.7222 33.8723 42.6282 30.8018 44.7299C30.0603 45.2346 29.3407 45.7708 28.645 46.337C26.8431 47.8111 25.6601 49.4471 24.5162 51.13C23.3361 52.8635 22.1968 54.6477 20.4599 56.3519C17.6459 59.1149 7.13111 57.1578 3.42935 59.7202C3.01676 60.0051 2.689 60.3473 2.46582 60.7582C4.48594 61.6761 5.83488 61.1128 8.15847 61.3697C8.46317 63.5747 3.3647 64.885 4.11823 65.9004V65.9ZM84.3469 50.0165C84.505 52.546 85.9733 57.5642 87.2696 58.7842C84.7306 59.4019 80.3573 58.3815 79.2352 56.5908C79.8117 54.0049 82.8118 51.6414 84.3469 50.0165Z" fill="white"/>
<path d="M88.0664 9.87312C89.9408 11.5004 93.8743 10.1943 93.1715 6.95618C90.2586 6.71488 88.5712 7.70353 88.0664 9.87312ZM101.135 6.08859C100.637 7.13447 99.6823 8.483 99.6823 11.1451C99.6782 11.6021 99.3352 11.9155 99.3294 11.2109C99.3553 8.60859 100.044 7.48406 100.776 6.00583C101.116 5.40012 101.32 5.65006 101.135 6.08859Z" fill="#002B64"/>
<path d="M100.633 5.69496C100.045 6.69267 98.6288 8.51308 98.3945 11.1653C98.3513 11.6198 97.9815 11.9015 98.0375 11.1986C98.2928 8.60943 99.4247 6.98873 100.284 5.58008C100.674 5.00732 100.857 5.27414 100.633 5.69496ZM100.175 5.17285C99.5054 6.11743 97.3251 8.30349 96.8693 10.9273C96.7874 11.3761 96.3954 11.6264 96.5107 10.9306C96.9826 8.37143 98.8619 6.35996 99.8361 5.02955C100.273 4.49014 100.432 4.7722 100.175 5.17285ZM99.7669 4.59061C98.971 5.43143 96.3719 8.21908 95.5525 10.7523C95.4076 11.185 94.9843 11.3781 95.1967 10.7053C96.0231 8.23802 98.2994 5.58008 99.4511 4.40038C99.9596 3.92808 100.078 4.22949 99.7669 4.59061Z" fill="#002B64"/>
</g>
<defs>
<clipPath id="clip0_69_166">
<rect width="105.422" height="70" fill="white" transform="translate(0.57959 0.429199)"/>
</clipPath>
</defs>
</svg>
