<svg width="134" height="71" viewBox="0 0 134 71" fill="none" xmlns="http://www.w3.org/2000/svg">
<g clip-path="url(#clip0_69_163)">
<path d="M66.8635 70.3789C103.781 70.3789 133.708 54.8003 133.708 35.583C133.708 16.3658 103.781 0.787109 66.8635 0.787109C29.946 0.787109 0.0185547 16.3658 0.0185547 35.583C0.0185547 54.8003 29.946 70.3789 66.8635 70.3789Z" fill="#8993BE"/>
<path fill-rule="evenodd" clip-rule="evenodd" d="M18.79 56.1859L26.1158 19.1005H43.0553C50.3805 19.5585 54.0434 23.2209 54.0434 29.6312C54.0434 40.6193 45.3447 47.0291 37.5609 46.5712H29.3207L27.4893 56.1859H18.79ZM31.1516 39.7039L33.4411 25.9683H39.3929C42.5978 25.9683 44.8867 27.3418 44.8867 30.0887C44.4292 37.8724 40.7664 39.2459 36.646 39.7039H31.1516ZM52.3415 46.5712L59.6668 9.48633H68.366L66.5345 19.1005H74.7753C82.1011 19.5585 84.848 23.2209 83.9325 27.7997L80.7276 46.5712H71.5709L74.7758 29.6312C75.2333 27.3418 75.2333 25.9683 72.0289 25.9683H65.1611L61.0407 46.5712H52.3415ZM80.1411 56.1859L87.4664 19.1005H104.406C111.732 19.5585 115.395 23.2209 115.395 29.6312C115.395 40.6193 106.696 47.0291 98.9125 46.5712H90.6713L88.8399 56.1859H80.1411ZM92.5022 39.7039L94.7917 25.9683H100.744C103.949 25.9683 106.238 27.3418 106.238 30.0887C105.78 37.8724 102.117 39.2459 97.9971 39.7039H92.5027H92.5022Z" fill="#232531"/>
</g>
<defs>
<clipPath id="clip0_69_163">
<rect width="133.69" height="70" fill="white" transform="translate(0.0185547 0.787109)"/>
</clipPath>
</defs>
</svg>
