<svg width="71" height="71" viewBox="0 0 71 71" fill="none" xmlns="http://www.w3.org/2000/svg">
<g clip-path="url(#clip0_69_162)">
<path d="M35.3516 0.296387C17.5546 0.296387 18.6658 8.01423 18.6658 8.01423L18.6856 16.0102H35.669V18.4107H11.9401C11.9401 18.4107 0.551758 17.1192 0.551758 35.0762C0.551758 53.0338 10.4918 52.397 10.4918 52.397H16.4239V44.064C16.4239 44.064 16.1041 34.124 26.2053 34.124H43.0497C43.0497 34.124 52.5134 34.2769 52.5134 24.9776V9.60172C52.5134 9.60172 53.9508 0.296387 35.3516 0.296387ZM25.987 5.67348C26.3883 5.67312 26.7858 5.7519 27.1567 5.90532C27.5275 6.05873 27.8645 6.28377 28.1482 6.56755C28.432 6.85134 28.6571 7.18829 28.8105 7.55914C28.9639 7.92999 29.0427 8.32745 29.0423 8.72878C29.0427 9.13011 28.9639 9.52757 28.8105 9.89842C28.6571 10.2693 28.432 10.6062 28.1482 10.89C27.8645 11.1738 27.5275 11.3988 27.1567 11.5522C26.7858 11.7057 26.3883 11.7844 25.987 11.7841C25.5857 11.7844 25.1882 11.7057 24.8174 11.5522C24.4465 11.3988 24.1096 11.1738 23.8258 10.89C23.542 10.6062 23.317 10.2693 23.1636 9.89842C23.0101 9.52757 22.9314 9.13011 22.9317 8.72878C22.9314 8.32745 23.0101 7.92999 23.1636 7.55914C23.317 7.18829 23.542 6.85134 23.8258 6.56755C24.1096 6.28377 24.4465 6.05873 24.8174 5.90532C25.1882 5.7519 25.5857 5.67312 25.987 5.67348Z" fill="url(#paint0_linear_69_162)"/>
<path d="M35.857 70.037C53.654 70.037 52.5428 62.3191 52.5428 62.3191L52.5231 54.3235H35.5394V51.9229H59.2683C59.2683 51.9229 70.6566 53.2145 70.6566 35.2569C70.6566 17.2995 60.7166 17.9364 60.7166 17.9364H54.7845V26.2691C54.7845 26.2691 55.1043 36.2091 45.0031 36.2091H28.1587C28.1587 36.2091 18.6949 36.0562 18.6949 45.3558V60.7319C18.6949 60.7319 17.2579 70.037 35.8567 70.037H35.857ZM45.2216 64.6604C44.8203 64.6608 44.4229 64.582 44.052 64.4286C43.6812 64.2752 43.3442 64.0501 43.0604 63.7664C42.7766 63.4826 42.5516 63.1456 42.3982 62.7748C42.2448 62.4039 42.166 62.0065 42.1663 61.6051C42.166 61.2038 42.2447 60.8063 42.3981 60.4354C42.5515 60.0645 42.7765 59.7275 43.0603 59.4437C43.3441 59.1599 43.6811 58.9349 44.0519 58.7814C44.4228 58.628 44.8203 58.5492 45.2216 58.5496C45.623 58.5492 46.0204 58.628 46.3913 58.7814C46.7621 58.9348 47.0991 59.1599 47.3829 59.4436C47.6666 59.7274 47.8917 60.0644 48.0451 60.4352C48.1985 60.8061 48.2773 61.2035 48.2769 61.6049C48.2773 62.0062 48.1985 62.4036 48.0451 62.7745C47.8917 63.1453 47.6666 63.4823 47.3829 63.7661C47.0991 64.0499 46.7621 64.2749 46.3913 64.4283C46.0204 64.5817 45.623 64.6608 45.2216 64.6604Z" fill="url(#paint1_linear_69_162)"/>
</g>
<defs>
<linearGradient id="paint0_linear_69_162" x1="674.257" y1="627.569" x2="4148.44" y2="4067.09" gradientUnits="userSpaceOnUse">
<stop stop-color="#387EB8"/>
<stop offset="1" stop-color="#366994"/>
</linearGradient>
<linearGradient id="paint1_linear_69_162" x1="1013.08" y1="1090.17" x2="4743.96" y2="4617.08" gradientUnits="userSpaceOnUse">
<stop stop-color="#FFE052"/>
<stop offset="1" stop-color="#FFC331"/>
</linearGradient>
<clipPath id="clip0_69_162">
<rect width="70.2811" height="70" fill="white" transform="translate(0.511963 0.276855)"/>
</clipPath>
</defs>
</svg>
