<svg width="63" height="71" viewBox="0 0 63 71" fill="none" xmlns="http://www.w3.org/2000/svg">
<g clip-path="url(#clip0_69_161)">
<path d="M62.161 35.283C62.161 31.2134 57.0646 27.3567 49.251 24.965C51.0542 17.0012 50.2528 10.6651 46.7216 8.63659C45.9077 8.16077 44.956 7.93537 43.9167 7.93537V10.7277C44.4927 10.7277 44.956 10.8404 45.3442 11.0533C47.0472 12.03 47.786 15.749 47.21 20.5323C47.0722 21.7094 46.8468 22.949 46.5714 24.2137C44.1171 23.6127 41.4374 23.1494 38.62 22.8488C36.9296 20.5323 35.1765 18.4286 33.4109 16.5879C37.493 12.7938 41.3247 10.7152 43.9293 10.7152V7.92285C40.4858 7.92285 35.9779 10.3771 31.42 14.6345C26.862 10.4022 22.3542 7.97294 18.9107 7.97294V10.7653C21.5027 10.7653 25.3469 12.8314 29.429 16.6005C27.6759 18.4412 25.9229 20.5323 24.2575 22.8488C21.4276 23.1494 18.7479 23.6127 16.2936 24.2262C16.0056 22.9741 15.7927 21.7595 15.6425 20.5949C15.054 15.8116 15.7802 12.0926 17.4707 11.1034C17.8463 10.878 18.3347 10.7778 18.9107 10.7778V7.98546C17.8588 7.98546 16.9072 8.21085 16.0807 8.68668C12.5621 10.7152 11.7732 17.0387 13.5889 24.9776C5.80034 27.3817 0.729004 31.2259 0.729004 35.283C0.729004 39.3526 5.82538 43.2093 13.639 45.601C11.8358 53.5648 12.6372 59.9009 16.1684 61.9294C16.9823 62.4052 17.934 62.6306 18.9858 62.6306C22.4293 62.6306 26.9372 60.1764 31.4951 55.9189C36.053 60.1513 40.5609 62.5805 44.0044 62.5805C45.0562 62.5805 46.0079 62.3552 46.8343 61.8793C50.3529 59.8508 51.1418 53.5273 49.3261 45.5885C57.0897 43.1968 62.161 39.3401 62.161 35.283ZM45.8576 26.931C45.3943 28.5463 44.8183 30.2117 44.1672 31.8771C43.6538 30.8753 43.1153 29.8736 42.5268 28.8718C41.9508 27.8701 41.3372 26.8934 40.7237 25.9417C42.5018 26.2047 44.2172 26.5303 45.8576 26.931ZM40.1226 40.2667C39.1459 41.9571 38.1442 43.5599 37.1049 45.05C35.2391 45.2128 33.3483 45.3005 31.445 45.3005C29.5542 45.3005 27.6634 45.2128 25.8102 45.0625C24.7709 43.5724 23.7566 41.9822 22.7799 40.3043C21.8283 38.6639 20.9643 36.9985 20.1754 35.3206C20.9517 33.6426 21.8283 31.9647 22.7674 30.3244C23.7441 28.6339 24.7458 27.0311 25.7851 25.541C27.6509 25.3783 29.5417 25.2906 31.445 25.2906C33.3358 25.2906 35.2266 25.3783 37.0798 25.5285C38.1191 27.0186 39.1334 28.6089 40.1101 30.2868C41.0618 31.9272 41.9258 33.5926 42.7146 35.2705C41.9258 36.9484 41.0618 38.6263 40.1226 40.2667ZM44.1672 38.6388C44.8433 40.3168 45.4193 41.9947 45.8952 43.6225C44.2548 44.0232 42.5268 44.3613 40.7362 44.6243C41.3498 43.6601 41.9633 42.6709 42.5393 41.6566C43.1153 40.6549 43.6538 39.6406 44.1672 38.6388ZM31.4701 51.9996C30.3055 50.7975 29.141 49.4577 27.989 47.9926C29.1159 48.0427 30.268 48.0803 31.4325 48.0803C32.6095 48.0803 33.7741 48.0553 34.9135 47.9926C33.7866 49.4577 32.6221 50.7975 31.4701 51.9996ZM22.1538 44.6243C20.3757 44.3613 18.6602 44.0358 17.0199 43.6351C17.4832 42.0197 18.0592 40.3543 18.7103 38.6889C19.2237 39.6907 19.7622 40.6924 20.3507 41.6942C20.9392 42.6959 21.5403 43.6726 22.1538 44.6243ZM31.4074 18.5664C32.572 19.7685 33.7365 21.1083 34.8885 22.5734C33.7615 22.5233 32.6095 22.4857 31.445 22.4857C30.268 22.4857 29.1034 22.5108 27.9639 22.5734C29.0909 21.1083 30.2554 19.7685 31.4074 18.5664ZM22.1413 25.9417C21.5277 26.9059 20.9142 27.8951 20.3382 28.9094C19.7622 29.9111 19.2237 30.9129 18.7103 31.9146C18.0341 30.2367 17.4581 28.5588 16.9823 26.931C18.6227 26.5428 20.3507 26.2047 22.1413 25.9417ZM10.8091 41.619C6.37634 39.7282 3.50885 37.2489 3.50885 35.283C3.50885 33.3171 6.37634 30.8252 10.8091 28.947C11.8859 28.4837 13.063 28.0704 14.2776 27.6823C14.9913 30.1365 15.9305 32.691 17.095 35.3081C15.943 37.9126 15.0164 40.4545 14.3152 42.8963C13.0755 42.5081 11.8985 42.0823 10.8091 41.619ZM17.5458 59.5127C15.8428 58.536 15.104 54.817 15.68 50.0337C15.8178 48.8566 16.0432 47.617 16.3187 46.3523C18.7729 46.9533 21.4526 47.4166 24.27 47.7172C25.9605 50.0337 27.7135 52.1374 29.4791 53.9781C25.397 57.7722 21.5653 59.8508 18.9608 59.8508C18.3973 59.8383 17.9215 59.7256 17.5458 59.5127ZM47.2475 49.9711C47.8361 54.7544 47.1098 58.4734 45.4193 59.4626C45.0437 59.688 44.5553 59.7882 43.9793 59.7882C41.3873 59.7882 37.5431 57.7221 33.461 53.953C35.2141 52.1123 36.9671 50.0212 38.6325 47.7046C41.4625 47.4041 44.1421 46.9408 46.5964 46.3272C46.8844 47.5919 47.1098 48.8066 47.2475 49.9711ZM52.0684 41.619C50.9916 42.0823 49.8145 42.4956 48.5999 42.8837C47.8861 40.4295 46.947 37.875 45.7825 35.258C46.9345 32.6534 47.8611 30.1115 48.5623 27.6697C49.802 28.0579 50.979 28.4837 52.0809 28.947C56.5137 30.8378 59.3812 33.3171 59.3812 35.283C59.3686 37.2489 56.5011 39.7408 52.0684 41.619Z" fill="#61DAFB"/>
<path d="M31.4324 41.0055C34.5929 41.0055 37.1549 38.4434 37.1549 35.283C37.1549 32.1226 34.5929 29.5605 31.4324 29.5605C28.272 29.5605 25.71 32.1226 25.71 35.283C25.71 38.4434 28.272 41.0055 31.4324 41.0055Z" fill="#61DAFB"/>
</g>
<defs>
<clipPath id="clip0_69_161">
<rect width="61.432" height="70" fill="white" transform="translate(0.729004 0.276855)"/>
</clipPath>
</defs>
</svg>
