<svg xmlns="http://www.w3.org/2000/svg" width="1440" height="79" viewBox="0 0 1440 79" fill="none">
<path d="M1440 0L0 0L0 63.3524L7.44809 68.2849L27.2731 64.4485L43.0456 49.5413L63.0897 45.9241L81.2718 40.4435L100.659 52.0623L118.293 47.4586L136.694 39.0185L154.11 51.6239L172.511 45.5952L190.364 44.2799L208.327 45.0472L223.771 36.1686L241.625 37.2647L257.288 27.6188L275.908 40.2242L292.447 34.5244L312.162 34.4148L329.578 43.1838L343.488 56.9949L361.561 62.914L380.291 68.1754L399.787 68.9426L419.393 65.9831L439.328 62.5851L459.043 70.0388L477.116 60.8314L497.598 64.887L515.451 56.5564L533.195 48.6644L551.268 42.3069L569.56 35.9494L588.18 31.0168L609.429 38.3608L627.173 30.2495L644.15 24.0016L661.894 23.6728L678.762 17.2057L696.834 18.7403L714.25 16.3288L732.103 22.7959L749.19 20.6037L766.715 17.8634L785.006 25.8651L805.708 30.3592L823.452 41.9781L844.591 35.9494L862.992 53.2681L882.927 50.747L901.219 46.5817L918.524 51.7335L936.706 45.376L954.341 44.0607L971.866 46.801L989.61 53.8161L1007.68 59.516L1024.77 45.8145L1043.06 53.2681L1061.24 54.5834L1078 45.0472L1094.54 35.7302L1114.04 45.376L1132.11 45.376L1144.27 22.9055L1163 25.9747L1180.85 34.8533L1196.84 31.8937L1216.34 25.0978L1230.03 41.1012L1245.8 50.4182L1266.17 48.774L1281.07 60.8314L1301.99 56.2276L1316.23 71.5733L1334.19 75.3001L1353.14 72.6694L1370.67 78.6981L1389.51 74.5329L1399.5 78L1424.5 73.5L1440 63.5V0Z" fill="#044E9E"/>
</svg>