<svg xmlns="http://www.w3.org/2000/svg" width="30" height="30" viewBox="0 0 30 30" fill="none">
  <path d="M24.0845 0H5.91549C2.64846 0 0 2.64846 0 5.91549V24.0845C0 27.3515 2.64846 30 5.91549 30H24.0845C27.3515 30 30 27.3515 30 24.0845V5.91549C30 2.64846 27.3515 0 24.0845 0Z" fill="#7289DA"/>
  <path fill-rule="evenodd" clip-rule="evenodd" d="M20.2305 22.7031L19 21.2383C21.4023 20.5938 22.3398 18.9531 22.3398 18.9531C19.293 21.8242 10.9727 21.9414 7.75 18.9531C7.75 18.9531 8.57031 20.4766 11.0312 21.2383L9.68359 22.7031C5.58203 22.6445 4 19.8906 4 19.8906C4 13.7969 6.69531 8.93359 6.69531 8.93359C9.44922 7 11.9688 7 11.9688 7L12.1445 7.23438C8.74609 8.17188 7.28125 9.69531 7.28125 9.69531C11.2656 7 19.4688 7.23438 22.6914 9.69531C22.75 9.63672 20.7578 8.05469 17.6523 7.23438L17.9453 7C17.9453 7 20.4648 7 23.2188 8.93359C23.2188 8.93359 25.9141 13.7969 25.9141 19.8906C25.9141 19.8906 24.332 22.6445 20.2305 22.7031ZM11.4414 18.1328C12.5093 18.1328 13.375 17.2146 13.375 16.082C13.375 14.9494 12.5093 14.0312 11.4414 14.0312C10.3735 14.0312 9.50781 14.9494 9.50781 16.082C9.50781 17.2146 10.3735 18.1328 11.4414 18.1328ZM20.1719 16.082C20.1719 17.2146 19.3062 18.1328 18.2383 18.1328C17.1704 18.1328 16.3047 17.2146 16.3047 16.082C16.3047 14.9494 17.1704 14.0312 18.2383 14.0312C19.3062 14.0312 20.1719 14.9494 20.1719 16.082Z" fill="white"/>
</svg>