<svg xmlns="http://www.w3.org/2000/svg" width="30" height="30" viewBox="0 0 30 30" fill="none">
  <path d="M24.0845 0H5.91549C2.64846 0 0 2.64846 0 5.91549V24.0845C0 27.3515 2.64846 30 5.91549 30H24.0845C27.3515 30 30 27.3515 30 24.0845V5.91549C30 2.64846 27.3515 0 24.0845 0Z" fill="white"/>
  <path d="M21.0525 7.52306L15.0651 12.1957L8.94092 7.52306V7.52432L8.94832 7.53064V14.0736L14.9961 18.8472L21.0525 14.2579V7.52306Z" fill="#EA4335"/>
  <path d="M22.6241 6.3864L21.0517 7.52298V14.2578L25.9994 10.4592V8.17082C25.9994 8.17082 25.3989 4.90253 22.6241 6.3864Z" fill="#FBBC05"/>
  <path d="M21.0517 14.2578V22.9931H24.8438C24.8438 22.9931 25.923 22.882 26.0006 21.6519V10.4592L21.0517 14.2578Z" fill="#34A853"/>
  <path d="M8.9486 23.0009V14.0736L8.94092 14.0673L8.9486 23.0009Z" fill="#C5221F"/>
  <path d="M8.94034 7.5241L7.3766 6.39384C4.60181 4.90997 4 8.17701 4 8.17701V10.4653L8.94034 14.067V7.5241Z" fill="#C5221F"/>
  <path d="M8.94092 7.52441V14.0674L8.9486 14.0737V7.53073L8.94092 7.52441Z" fill="#C5221F"/>
  <path d="M4 10.467V21.6597C4.07646 22.8911 5.15678 23.001 5.15678 23.001H8.94897L8.94034 14.0674L4 10.467Z" fill="#4285F4"/>
</svg>