<svg xmlns="http://www.w3.org/2000/svg" width="30" height="30" viewBox="0 0 30 30" fill="none">
  <path d="M24.0845 0H5.91549C2.64846 0 0 2.64846 0 5.91549V24.0845C0 27.3515 2.64846 30 5.91549 30H24.0845C27.3515 30 30 27.3515 30 24.0845V5.91549C30 2.64846 27.3515 0 24.0845 0Z" fill="#00AFF0"/>
  <path d="M4.77457 12.9191C4.48249 14.5144 4.58204 16.1568 5.06467 17.7052C5.5473 19.2535 6.39858 20.6616 7.5454 21.8084C8.69221 22.9552 10.1003 23.8065 11.6486 24.2892C13.197 24.7718 14.8394 24.8713 16.4347 24.5793C22.8214 27.6847 27.2746 20.8293 24.5793 16.4347C25.9269 8.70035 18.8371 3.5441 12.9191 4.77457C11.7818 4.13126 10.465 3.87838 9.17036 4.05464C7.87568 4.23089 6.67443 4.82658 5.7505 5.7505C4.82658 6.67443 4.23089 7.87568 4.05464 9.17036C3.87838 10.465 4.13126 11.7818 4.77457 12.9191ZM18.8957 10.4582C19.8332 11.8058 17.9582 12.8605 17.255 12.0402C16.3175 10.9855 15.38 10.4582 14.3839 10.5168C11.8058 10.6925 11.8644 12.8605 14.091 13.1535C17.1379 13.6222 19.8918 14.4425 19.6574 17.1379C19.3644 20.1847 16.9035 21.0636 14.3839 20.8879C11.3371 20.6535 10.3996 19.5988 9.81363 18.4855C9.11051 17.1379 11.1027 15.8488 11.923 17.3136C13.2707 19.4816 15.7316 19.1886 16.4933 18.3097C17.6652 16.9621 16.4347 16.1418 15.1457 15.9074C13.7394 15.6144 12.2746 15.3214 11.1613 14.7355C9.40348 13.798 8.64176 9.34488 13.2707 8.58316C15.38 8.2316 17.8996 8.87613 18.8957 10.4582Z" fill="white"/>
</svg>