<svg xmlns="http://www.w3.org/2000/svg" width="30" height="30" viewBox="0 0 30 30" fill="none">
  <path d="M24.0845 0H5.91549C2.64846 0 0 2.64846 0 5.91549V24.0845C0 27.3515 2.64846 30 5.91549 30H24.0845C27.3515 30 30 27.3515 30 24.0845V5.91549C30 2.64846 27.3515 0 24.0845 0Z" fill="#3F0F3F"/>
  <path fill-rule="evenodd" clip-rule="evenodd" d="M10 17.7956C10 16.6425 10.9557 15.7143 12.1429 15.7143C13.33 15.7143 14.2857 16.6425 14.2857 17.7956V22.9187C14.2857 24.0717 13.33 25 12.1429 25C10.9557 25 10 24.0717 10 22.9187V17.7956Z" fill="#E01E5A"/>
  <path fill-rule="evenodd" clip-rule="evenodd" d="M17.7955 20C16.6425 20 15.7143 19.0443 15.7143 17.8572C15.7143 16.67 16.6425 15.7143 17.7955 15.7143H22.9188C24.0718 15.7143 25 16.67 25 17.8572C25 19.0443 24.0718 20 22.9188 20H17.7955Z" fill="#ECB22D"/>
  <path fill-rule="evenodd" clip-rule="evenodd" d="M15.7143 7.08125C15.7143 5.92821 16.67 5 17.8572 5C19.0443 5 20 5.92821 20 7.08125V12.2045C20 13.3575 19.0443 14.2857 17.8572 14.2857C16.67 14.2857 15.7143 13.3575 15.7143 12.2044V7.08125Z" fill="#2FB67C"/>
  <path fill-rule="evenodd" clip-rule="evenodd" d="M7.08125 14.2857C5.92821 14.2857 5 13.33 5 12.1429C5 10.9557 5.92821 10 7.08125 10H12.2045C13.3575 10 14.2857 10.9557 14.2857 12.1429C14.2857 13.33 13.3575 14.2857 12.2044 14.2857H7.08125Z" fill="#36C5F1"/>
  <path fill-rule="evenodd" clip-rule="evenodd" d="M15.7143 22.8572C15.7143 24.0443 16.67 25 17.8572 25C19.0443 25 20 24.0443 20 22.8572C20 21.67 19.0443 20.7143 17.8572 20.7143H15.7143V22.8572Z" fill="#ECB22D"/>
  <path fill-rule="evenodd" clip-rule="evenodd" d="M22.8572 14.2857H20.7143V12.1429C20.7143 10.9557 21.67 10 22.8572 10C24.0443 10 25 10.9557 25 12.1429C25 13.33 24.0443 14.2857 22.8572 14.2857Z" fill="#2FB67C"/>
  <path fill-rule="evenodd" clip-rule="evenodd" d="M7.14286 15.7143H9.28571V17.8572C9.28571 19.0443 8.33 20 7.14286 20C5.95571 20 5 19.0443 5 17.8572C5 16.67 5.95571 15.7143 7.14286 15.7143Z" fill="#E01E5A"/>
  <path fill-rule="evenodd" clip-rule="evenodd" d="M14.2857 7.14286V9.28571H12.1429C10.9557 9.28571 10 8.33 10 7.14286C10 5.95571 10.9557 5 12.1429 5C13.33 5 14.2857 5.95571 14.2857 7.14286Z" fill="#36C5F1"/>
</svg>