<?xml version="1.0" encoding="utf-8"?>
<!-- Generator: Adobe Illustrator 27.6.1, SVG Export Plug-In . SVG Version: 6.00 Build 0)  -->
<svg version="1.1" xmlns="http://www.w3.org/2000/svg" xmlns:xlink="http://www.w3.org/1999/xlink" x="0px" y="0px"
	 viewBox="0 0 1000 1000" style="enable-background:new 0 0 1000 1000;" xml:space="preserve">
<style type="text/css">
	.st0{fill:#FFFFFF;}
	.st1{display:none;fill:#00AEEF;}
	.st2{fill:url(#SVGID_1_);}
	.st3{fill:url(#SVGID_00000082341938254112066720000016108740322131651769_);}
	.st4{fill:url(#SVGID_00000065753080743032132550000007870613874666389172_);}
	.st5{fill:url(#SVGID_00000166639620710248644470000000463143269899423667_);}
	.st6{fill:url(#SVGID_00000034768963149035934610000006134140722722566324_);}
	.st7{fill:url(#SVGID_00000133509533502207423700000008808574369028110213_);}
	.st8{fill:url(#SVGID_00000076582290510568897320000011236596186937483164_);}
	.st9{fill:url(#SVGID_00000005244749779016629950000015119117816690231980_);}
	.st10{fill:url(#SVGID_00000037691718827433465380000010282900751448635042_);}
	.st11{fill:url(#SVGID_00000094603580756257354470000016769863180844792244_);}
	.st12{fill:url(#SVGID_00000109003235527491380090000017874620280275604124_);}
	.st13{fill:url(#SVGID_00000146500991446794665370000001575166893868609926_);}
	.st14{fill:url(#SVGID_00000118398384112057090640000017085405030468559294_);}
	.st15{fill:url(#SVGID_00000090264198431716876170000011250060302341224635_);}
	.st16{fill:url(#SVGID_00000128480487094071181200000000276651591325059773_);}
	.st17{fill:url(#SVGID_00000047749494858604165140000017129650269935470981_);}
	.st18{fill:url(#SVGID_00000124139510812806592040000005113155067619678621_);}
	.st19{fill:url(#SVGID_00000124151426600488803710000005869617620085280692_);}
	.st20{fill:url(#SVGID_00000075153386298866027020000006953889394775266211_);}
	.st21{fill:url(#SVGID_00000072254007949645594090000011575210029446196647_);}
	.st22{fill:url(#SVGID_00000055676546228509247720000002212062891951329159_);}
	.st23{fill:url(#SVGID_00000182504089608572754580000003520312638280160950_);}
	.st24{fill:url(#SVGID_00000089567307378203765960000018294619766229599141_);}
	.st25{fill:url(#SVGID_00000155143655595402081140000006666143560647798961_);}
	.st26{fill:url(#SVGID_00000116954549575992066870000007155936501208584369_);}
	.st27{fill:url(#SVGID_00000149339398179062867620000017253450273845330844_);}
	.st28{fill:url(#SVGID_00000181071713840145234750000017566211424118973611_);}
	.st29{fill:url(#SVGID_00000168817572271727138530000007906182347110322598_);}
	.st30{fill:#333333;}
	.st31{fill:url(#SVGID_00000166659397348051005190000001509331970082420868_);}
	.st32{fill:url(#SVGID_00000031909562976128280000000004846382066135931010_);}
	.st33{fill:url(#SVGID_00000020369398926672108780000006948267629014749859_);}
	.st34{fill:url(#SVGID_00000168081241568986984580000009837521019895634863_);}
	.st35{fill:url(#SVGID_00000158716924773052595250000002696663056026509462_);}
	.st36{fill:url(#SVGID_00000090276821402542353590000008556625735856757395_);}
	.st37{fill:url(#SVGID_00000014622242817194377780000006923078429767176838_);}
	.st38{fill:url(#SVGID_00000088102930136550292790000011436926278242239385_);}
	.st39{fill:url(#SVGID_00000160171441117672738320000015819169558589478530_);}
	.st40{fill:url(#SVGID_00000022553670927061417190000005801067048892768931_);}
	.st41{fill:url(#SVGID_00000151534719147890801730000013548496670309411488_);}
	.st42{fill:url(#SVGID_00000163051805301584525360000015545536396381776519_);}
	.st43{fill:url(#SVGID_00000177483290728858423020000004687457024889961642_);}
	.st44{fill:url(#SVGID_00000009583007447544883150000007071927458017880486_);}
</style>
<g id="Layer_1">
	<g>
		<rect y="-1114.67" width="1000" height="500"/>
		<rect y="-614.67" class="st0" width="1000" height="500"/>
	</g>
	<rect x="1101" y="-1114.67" class="st1" width="1000" height="1000"/>
	
		<text transform="matrix(1 0 0 1 278 -678.6667)" style="fill:#00AEEF; font-family:'PainterPERSONALUSEONLY'; font-size:139px; letter-spacing:-6;">emty</text>
	<g>
		<g>
			<linearGradient id="SVGID_1_" gradientUnits="userSpaceOnUse" x1="310.6486" y1="-847.6445" x2="415.5982" y2="-847.6445">
				<stop  offset="0" style="stop-color:#F8FB00"/>
				<stop  offset="1" style="stop-color:#0D8600"/>
			</linearGradient>
			<path class="st2" d="M349.21-842.77c-1.6,0.15-3.23,0.18-4.9,0.11c-1.67-0.07-3.3-0.25-4.9-0.54c-2.61,8.13-3.37,14.8-2.29,20.02
				c1.09,5.22,3.55,8.85,7.4,10.88c3.84,2.03,8.81,2.39,14.91,1.09c6.09-1.31,12.91-4.35,20.46-9.14
				c6.1-4.21,11.57-9.32,16.43-15.34c4.86-6.02,8.96-12.08,12.3-18.17c1.59-0.58,3.08-0.83,4.46-0.76c1.38,0.07,2.21,1.49,2.5,4.24
				c-3.34,6.39-7.73,12.92-13.17,19.59c-5.44,6.68-11.43,12.84-17.96,18.5c-10.45,8.71-20.75,14.51-30.91,17.41
				c-10.16,2.9-18.87,2.03-26.12-2.61c-5.52-3.77-9.76-8.67-12.73-14.69c-2.97-6.02-4.32-12.3-4.03-18.83
				c0.15-6.09,1.27-12.22,3.37-18.39c2.1-6.17,4.9-12.08,8.38-17.74c3.48-5.66,7.54-10.85,12.19-15.56
				c4.64-4.71,9.65-8.52,15.02-11.43c5.37-2.9,11.57-5.15,18.61-6.75c7.04-1.59,13.6-1.59,19.7,0c3.05,0.73,5.58,2,7.62,3.81
				c2.03,1.82,3.52,3.92,4.46,6.31c0.94,2.39,1.34,4.97,1.2,7.73c-0.15,2.76-0.73,5.52-1.74,8.27c-2.47,6.53-6.42,12.05-11.86,16.54
				c-5.44,4.5-11.28,7.98-17.52,10.45C363.14-844.87,356.18-843.2,349.21-842.77z M367.93-884.56c-5.37,4.65-10.27,9.94-14.69,15.89
				c-4.43,5.95-8.16,12.19-11.21,18.72c2.18-0.58,4.64-1.38,7.4-2.39c4.35-1.59,8.56-3.52,12.62-5.77c4.06-2.25,7.76-4.97,11.1-8.16
				c2.9-2.61,5.58-5.66,8.05-9.14c2.47-3.48,3.56-7.33,3.26-11.54c0-2.32-0.73-3.63-2.18-3.92c-1.45-0.29-3.12-0.07-5.01,0.65
				c-1.89,0.73-3.7,1.67-5.44,2.83C370.11-886.22,368.8-885.28,367.93-884.56z"/>
			
				<linearGradient id="SVGID_00000004535236929884800640000000771997461970334879_" gradientUnits="userSpaceOnUse" x1="380.4772" y1="-851.7376" x2="571.2219" y2="-851.7376">
				<stop  offset="0" style="stop-color:#F8FB00"/>
				<stop  offset="1" style="stop-color:#0D8600"/>
			</linearGradient>
			<path style="fill:url(#SVGID_00000004535236929884800640000000771997461970334879_);" d="M564.26-853.87
				c1.74-0.44,3.26-0.51,4.57-0.22c1.31,0.29,2.1,1.52,2.39,3.7c-4.06,7.69-8.64,14.95-13.71,21.77
				c-5.08,6.82-10.74,12.99-16.98,18.5c-2.76,2.47-5.91,4.75-9.47,6.86c-3.56,2.11-7.18,3.59-10.88,4.46s-7.37,0.83-10.99-0.11
				c-3.63-0.94-6.82-3.3-9.58-7.07c-2.47-3.05-3.92-6.49-4.35-10.34c-0.44-3.84-0.33-7.8,0.33-11.86c0.65-4.06,1.67-8.02,3.05-11.86
				c1.38-3.84,2.79-7.43,4.24-10.77c2.47-5.95,5.33-11.64,8.6-17.09c3.26-5.44,6.35-11.06,9.25-16.87
				c-4.21,3.34-8.67,7.26-13.39,11.75c-4.72,4.5-8.81,8.78-12.3,12.84c-4.35,5.08-8.49,10.2-12.41,15.35
				c-3.92,5.15-7.76,10.48-11.54,16c-3.34,4.79-6.17,9.07-8.49,12.84c-2.32,3.77-4.35,6.96-6.09,9.58
				c-1.74,2.61-3.23,4.57-4.46,5.88c-1.23,1.31-2.43,1.96-3.59,1.96c-1.45-0.14-3.12-0.54-5.01-1.2c-1.89-0.65-3.67-1.45-5.33-2.39
				c-1.67-0.94-3.05-2.14-4.13-3.59c-1.09-1.45-1.49-3.19-1.2-5.22c0.14-0.58,0.47-1.56,0.98-2.94c0.51-1.38,1.09-2.86,1.74-4.46
				c0.65-1.6,1.31-3.16,1.96-4.68c0.65-1.52,1.12-2.72,1.42-3.59c3.92-8.71,8.09-17.56,12.51-26.55c4.42-9,9.25-18.57,14.47-28.73
				c-5.95,5.52-11.72,11.36-17.3,17.52c-5.59,6.17-10.92,12.44-16,18.83c-3.34,4.06-6.57,8.13-9.69,12.19
				c-3.12,4.06-6.2,8.2-9.25,12.41c-0.58,0.73-1.52,2.03-2.83,3.92c-1.31,1.89-2.72,3.85-4.24,5.88c-1.52,2.03-3.01,3.99-4.46,5.88
				c-1.45,1.89-2.61,3.19-3.48,3.92c-1.31,1.02-3.01,1.27-5.12,0.76c-2.1-0.51-4.17-1.49-6.2-2.94c-2.03-1.45-3.73-3.12-5.12-5.01
				c-1.38-1.88-1.92-3.7-1.63-5.44c0.58-3.48,1.96-7.87,4.14-13.17c2.18-5.29,4.72-10.88,7.62-16.76c2.9-5.88,6.06-11.79,9.47-17.74
				c3.41-5.95,6.71-11.46,9.9-16.54l13.28-21.77c1.31-2.32,3.34-3.95,6.09-4.9c2.76-0.94,5.8-0.18,9.14,2.29
				c3.34,2.61,5.44,4.72,6.31,6.31c0.87,1.6,0.58,3.7-0.87,6.31c-1.6,2.9-3.52,6.13-5.77,9.69c-2.25,3.56-4.5,7.11-6.75,10.67
				c-2.25,3.56-4.39,7-6.42,10.34c-2.03,3.34-3.7,6.17-5.01,8.49c2.03-2.47,4.71-5.62,8.05-9.47c3.34-3.84,6.82-7.76,10.45-11.75
				c3.62-3.99,7.18-7.8,10.66-11.43c3.48-3.63,6.45-6.46,8.92-8.49c0.87-0.87,1.99-1.85,3.37-2.94c1.38-1.09,2.86-2.14,4.46-3.16
				c1.59-1.01,3.3-1.88,5.12-2.61c1.81-0.72,3.73-1.01,5.77-0.87c1.88,0.15,3.88,0.69,5.99,1.63c2.1,0.95,4.03,2.1,5.77,3.48
				c1.74,1.38,3.16,2.8,4.24,4.24c1.09,1.45,1.56,2.69,1.42,3.7c-0.29,1.6-1.02,3.37-2.18,5.33c-1.16,1.96-2.1,3.74-2.83,5.33
				l-5.22,10.67c8.85-10.88,18.79-20.1,29.82-27.64c5.66-3.92,10.3-6.17,13.93-6.75c3.63-0.58,7.25,0,10.88,1.74
				c3.77,1.74,6.75,3.7,8.92,5.88c2.18,2.18,3.12,3.78,2.83,4.79c-0.29,1.45-0.8,2.9-1.52,4.35c-0.73,1.45-1.45,2.83-2.18,4.13
				l-9.36,17.63c-3.05,5.95-6.13,11.86-9.25,17.74c-3.12,5.88-5.77,12.01-7.94,18.39c-1.6,4.5-1.13,7.51,1.41,9.03
				c2.54,1.52,6.86,0.62,12.95-2.72c5.95-3.34,11.13-7.87,15.56-13.6C556.17-839.9,560.34-846.47,564.26-853.87z"/>
			
				<linearGradient id="SVGID_00000158748117561804688330000012160989384230394784_" gradientUnits="userSpaceOnUse" x1="542.9694" y1="-871.416" x2="619.54" y2="-871.416">
				<stop  offset="0" style="stop-color:#F8FB00"/>
				<stop  offset="1" style="stop-color:#0D8600"/>
			</linearGradient>
			<path style="fill:url(#SVGID_00000158748117561804688330000012160989384230394784_);" d="M619.11-937.67
				c0.58,2.03,0.58,3.74,0,5.12c-0.58,1.38-1.31,2.94-2.18,4.68l-2.61,5.22c-1.69,3.54-10.45,22.42-10.45,22.42l-5.01,10.45
				l-18.5,37.22c-0.58,1.16-1.67,3.3-3.26,6.42c-1.6,3.12-3.26,6.57-5.01,10.34c-3.48,7.69-5.19,13.39-5.12,17.09
				c0.07,3.7,1.34,5.77,3.81,6.2c2.47,0.44,5.8-0.69,10.01-3.37c4.21-2.68,8.71-6.64,13.5-11.86c3.34-3.77,6.38-7.73,9.14-11.86
				c2.76-4.14,5.51-8.89,8.27-14.26c4.35-2.32,6.75-1.16,7.18,3.48c-2.32,4.35-4.79,8.71-7.4,13.06c-2.61,4.35-5.48,8.56-8.6,12.62
				c-3.12,4.06-6.42,7.94-9.9,11.64c-3.48,3.7-7.26,6.93-11.32,9.69c-3.34,2.47-7.29,4.21-11.86,5.22s-9.03,0.94-13.38-0.22
				c-3.19-0.72-5.88-2.32-8.05-4.79c-2.18-2.47-3.63-5.3-4.35-8.49c-0.87-3.34-1.2-6.75-0.98-10.23c0.22-3.48,0.8-6.97,1.74-10.45
				c0.95-3.48,2.07-6.86,3.37-10.12c1.31-3.26,2.61-6.42,3.92-9.47c3.34-7.84,7.07-15.42,11.21-22.75
				c4.14-7.33,12.52-22.09,12.52-22.09l14.37-25.68l6.31-11.97c1.01-1.74,1.92-3.52,2.72-5.33c0.8-1.81,1.99-3.37,3.59-4.68
				c1.16-0.87,2.65-1.16,4.46-0.87c1.81,0.29,3.55,0.84,5.22,1.63c1.67,0.8,3.12,1.78,4.35,2.94
				C618.05-939.55,618.81-938.54,619.11-937.67z"/>
			
				<linearGradient id="SVGID_00000029760211015545482210000001139065909038384266_" gradientUnits="userSpaceOnUse" x1="552.2706" y1="-803.6816" x2="707.9082" y2="-803.6816">
				<stop  offset="0" style="stop-color:#F8FB00"/>
				<stop  offset="1" style="stop-color:#0D8600"/>
			</linearGradient>
			<path style="fill:url(#SVGID_00000029760211015545482210000001139065909038384266_);" d="M707.91-897.18
				c-2.76,5.22-5.37,10.01-7.84,14.37c-2.03,3.77-4.03,7.44-5.99,10.99c-1.96,3.56-3.3,5.99-4.03,7.29
				c-6.97,13.21-13.21,26.74-18.72,40.59c-5.52,13.86-11.1,28.11-16.76,42.77l9.79,3.05c2.61,0.87,5.48,1.63,8.6,2.29
				c3.12,0.65,6.13,1.12,9.03,1.41c3.05,0.29,5.73,0,8.05-0.87c2.32-0.87,4.5-2.11,6.53-3.7c-1.31,4.64-3.45,8.85-6.42,12.62
				c-2.98,3.77-6.57,6.82-10.77,9.14c-4.35,2.32-8.85,3.63-13.5,3.92c-4.65,0.29-9.36,0.07-14.15-0.65l-7.4-1.52
				c-2.47,6.09-5.3,11.93-8.49,17.52c-3.19,5.58-7.11,10.7-11.75,15.34c-4.65,4.35-9.79,7.94-15.45,10.77
				c-5.66,2.83-11.75,4.24-18.28,4.24c-6.82,0-13.2-1.74-19.15-5.22c-5.95-3.48-10.59-8.2-13.93-14.15
				c-3.19-5.52-4.86-11.46-5.01-17.85c-0.14-6.39,0.95-12.52,3.26-18.39c2.32-5.88,5.66-11.14,10.01-15.78
				c4.35-4.65,9.51-8.05,15.45-10.23c7.55-2.76,15.6-3.78,24.16-3.05c8.56,0.72,16.68,2.03,24.38,3.92h0.22
				c1.88-5.66,3.84-11.28,5.88-16.87c2.03-5.58,4.13-11.13,6.31-16.65l-2.61,3.7c-1.89,2.76-3.95,5.66-6.2,8.71
				c-2.25,3.05-4.72,5.66-7.4,7.84c-2.69,2.18-5.62,3.63-8.81,4.35c-3.19,0.72-6.75,0.14-10.67-1.74
				c-6.67-3.05-10.84-7.54-12.51-13.49c-1.67-5.95-1.85-12.62-0.54-20.02c1.6-8.27,4.35-16.14,8.27-23.62
				c3.92-7.47,8.27-14.69,13.06-21.66c2.03-3.05,4.6-6.38,7.73-10.01c3.12-3.62,6.35-6.31,9.69-8.05c2.32-1.16,5.4-1.63,9.25-1.41
				c3.84,0.22,8.02,1.78,12.52,4.68c-2.61,3.48-5.88,8.27-9.79,14.37c-3.92,6.09-7.8,12.51-11.64,19.26
				c-3.85,6.75-7.22,13.46-10.12,20.13c-2.9,6.68-4.57,12.34-5.01,16.98c-0.15,1.74,0.11,3.26,0.76,4.57s1.63,2.1,2.94,2.39
				c1.31,0.29,2.97-0.11,5.01-1.2c2.03-1.09,4.5-3.16,7.4-6.2c4.5-4.79,8.52-9.87,12.08-15.24c3.55-5.37,7-10.81,10.34-16.32
				c2.03-4.5,4.35-9.18,6.96-14.04c2.61-4.86,5.44-9.39,8.49-13.6c3.05-4.21,6.31-7.87,9.79-10.99c3.48-3.12,7.11-5.26,10.88-6.42
				c2.47-0.72,4.64-0.98,6.53-0.76c1.88,0.22,3.55,0.47,5.01,0.76C704.93-898.34,706.46-897.76,707.91-897.18z M600.82-726.76
				c5.51-4.21,9.72-9.51,12.62-15.89c2.9-6.39,7.53-19.54,7.53-19.54c-4.21-1.31-8.5-2.52-12.64-3.53
				c-4.14-1.02-8.3-1.67-12.52-1.96c-4.64-0.29-9.28,0.33-13.93,1.85c-4.64,1.52-8.56,4.17-11.75,7.94
				c-2.9,3.48-4.71,7.58-5.44,12.3c-0.72,4.71,0.07,9.03,2.39,12.95c1.74,2.9,3.95,5.19,6.64,6.86c2.69,1.67,5.63,2.75,8.82,3.27
				c3.19,0.51,6.39,0.4,9.58-0.33C595.31-723.57,598.21-724.87,600.82-726.76z"/>
			
				<linearGradient id="SVGID_00000092427383514547745890000006488026266766024334_" gradientUnits="userSpaceOnUse" x1="553.7124" y1="-917.542" x2="710.1094" y2="-917.542">
				<stop  offset="0" style="stop-color:#F8FB00"/>
				<stop  offset="1" style="stop-color:#0D8600"/>
			</linearGradient>
			<path style="fill:url(#SVGID_00000092427383514547745890000006488026266766024334_);" d="M596.49-909.84
				c-13.99,0.26-15.49-0.41-23.62-1.37c-7.3-1.37-12.32-3.36-15.06-5.99c-2.74-2.62-4.11-4.84-4.11-6.67c0-0.91,0.22-1.82,0.68-2.74
				c5.02,3.2,11.75,4.79,20.19,4.79c5.64-0.07,20.25-2.12,29.43-3.42c15.51-2.96,28.18-4.96,37.99-5.99
				c9.81-1.03,19.05-1.54,27.72-1.54c7.53,0,13.63,0.29,18.31,0.85c4.67,0.57,7.92,1.32,9.75,2.23c2.28,1.14,4.33,2.62,6.16,4.45
				c1.59,1.6,3.02,3.48,4.28,5.65c1.25,2.17,1.88,4.85,1.88,8.04c0,0.92-0.23,2.68-0.68,5.3c-0.46,2.63-1.03,3.94-1.71,3.94
				s-2.11-0.51-4.28-1.54c-2.17-1.03-5.82-2.22-10.95-3.59c-5.13-1.37-12.1-2.57-20.88-3.59c-8.78-1.03-20.14-1.54-34.05-1.54
				C629.8-912.58,600.82-910.07,596.49-909.84z"/>
		</g>
		<g>
			
				<linearGradient id="SVGID_00000011023411375125887240000008281677413907303072_" gradientUnits="userSpaceOnUse" x1="339.0134" y1="-753.8542" x2="339.0134" y2="-1069.6249">
				<stop  offset="0" style="stop-color:#F8FB00"/>
				<stop  offset="0.3566" style="stop-color:#9ACC00"/>
				<stop  offset="0.6687" style="stop-color:#4EA600"/>
				<stop  offset="0.8898" style="stop-color:#1F8F00"/>
				<stop  offset="1" style="stop-color:#0D8600"/>
			</linearGradient>
			<path style="fill:url(#SVGID_00000011023411375125887240000008281677413907303072_);" d="M331.56-753.85h14.9
				c0.4,0,0.68-0.32,0.68-0.68v-3.92c0-0.36-0.29-0.68-0.68-0.68h-9.97v-4.86h8.21c0.36,0,0.68-0.29,0.68-0.68v-3.92
				c0-0.36-0.32-0.68-0.68-0.68h-8.21v-4.46h9.97c0.4,0,0.68-0.32,0.68-0.68v-3.92c0-0.36-0.29-0.68-0.68-0.68h-14.9
				c-0.4,0-0.68,0.32-0.68,0.68v23.83C330.88-754.18,331.17-753.85,331.56-753.85z"/>
			
				<linearGradient id="SVGID_00000129916996685869733590000000578626463618064059_" gradientUnits="userSpaceOnUse" x1="358.5613" y1="-727.0658" x2="358.5613" y2="-1017.1702">
				<stop  offset="0" style="stop-color:#F8FB00"/>
				<stop  offset="0.3566" style="stop-color:#9ACC00"/>
				<stop  offset="0.6687" style="stop-color:#4EA600"/>
				<stop  offset="0.8898" style="stop-color:#1F8F00"/>
				<stop  offset="1" style="stop-color:#0D8600"/>
			</linearGradient>
			<path style="fill:url(#SVGID_00000129916996685869733590000000578626463618064059_);" d="M366.73-779.05h-15.3
				c-0.36,0-0.68,0.32-0.68,0.68v3.92c0,0.36,0.32,0.68,0.68,0.68h7.85v0.07l-9.57,18.5v0.65c0,0.36,0.32,0.68,0.68,0.68h15.62
				c0.4,0,0.68-0.32,0.68-0.68v-3.92c0-0.36-0.29-0.68-0.68-0.68h-7.85v-0.07l9.25-18.68v-0.47
				C367.42-778.73,367.09-779.05,366.73-779.05z"/>
			
				<linearGradient id="SVGID_00000024688435680353061030000015031071450892112284_" gradientUnits="userSpaceOnUse" x1="392.1482" y1="-710.9327" x2="392.1482" y2="-895.6965">
				<stop  offset="0" style="stop-color:#F8FB00"/>
				<stop  offset="0.3566" style="stop-color:#9ACC00"/>
				<stop  offset="0.6687" style="stop-color:#4EA600"/>
				<stop  offset="0.8898" style="stop-color:#1F8F00"/>
				<stop  offset="1" style="stop-color:#0D8600"/>
			</linearGradient>
			<path style="fill:url(#SVGID_00000024688435680353061030000015031071450892112284_);" d="M393.08-753.89l6.05-11.66h0.07
				l1.62,11.12c0.04,0.29,0.36,0.58,0.68,0.58h4.25c0.43,0,0.76-0.32,0.68-0.79l-4.07-24.19c-0.04-0.32-0.36-0.58-0.65-0.58h-0.58
				c-0.18,0-0.5,0.14-0.61,0.36l-8.35,15.55h-0.07l-8.35-15.55c-0.11-0.22-0.43-0.36-0.61-0.36h-0.58c-0.29,0-0.61,0.25-0.65,0.58
				l-4.07,24.19c-0.07,0.47,0.25,0.79,0.68,0.79h4.25c0.36,0,0.65-0.29,0.68-0.58l1.58-11.12h0.07l6.08,11.66
				c0.11,0.22,0.4,0.4,0.61,0.4h0.65C392.65-753.49,392.98-753.67,393.08-753.89z"/>
			
				<linearGradient id="SVGID_00000087372946985097850630000017614766005878876587_" gradientUnits="userSpaceOnUse" x1="413.8928" y1="-398.6504" x2="413.8928" y2="-1302.0415">
				<stop  offset="0" style="stop-color:#F8FB00"/>
				<stop  offset="0.3566" style="stop-color:#9ACC00"/>
				<stop  offset="0.6687" style="stop-color:#4EA600"/>
				<stop  offset="0.8898" style="stop-color:#1F8F00"/>
				<stop  offset="1" style="stop-color:#0D8600"/>
			</linearGradient>
			<path style="fill:url(#SVGID_00000087372946985097850630000017614766005878876587_);" d="M416.05-779.05h-4.32
				c-0.36,0-0.68,0.32-0.68,0.68v23.83c0,0.36,0.32,0.68,0.68,0.68h4.32c0.36,0,0.68-0.32,0.68-0.68v-23.83
				C416.74-778.73,416.41-779.05,416.05-779.05z"/>
			
				<linearGradient id="SVGID_00000080173903093117283030000002435880578538305467_" gradientUnits="userSpaceOnUse" x1="432.0698" y1="-646.9917" x2="432.0698" y2="-887.7034">
				<stop  offset="0" style="stop-color:#F8FB00"/>
				<stop  offset="0.3566" style="stop-color:#9ACC00"/>
				<stop  offset="0.6687" style="stop-color:#4EA600"/>
				<stop  offset="0.8898" style="stop-color:#1F8F00"/>
				<stop  offset="1" style="stop-color:#0D8600"/>
			</linearGradient>
			<path style="fill:url(#SVGID_00000080173903093117283030000002435880578538305467_);" d="M442.87-757.96l-2.81-2.99
				c-0.22-0.25-0.68-0.25-0.94-0.04c-1.3,1.12-3.13,1.73-4.82,1.73c-4.07,0-7.09-3.31-7.09-7.31c0-4.03,2.99-7.42,7.06-7.42
				c1.76,0,3.53,0.65,4.86,1.84c0.25,0.25,0.65,0.25,0.9,0l2.81-2.92c0.29-0.29,0.29-0.72-0.04-1.01c-2.45-2.23-5.11-3.35-8.71-3.35
				c-7.2,0-12.99,5.79-12.99,12.99s5.8,12.92,12.99,12.92c3.2,0,6.3-1.12,8.75-3.49C443.09-757.24,443.12-757.71,442.87-757.96z"/>
			
				<linearGradient id="SVGID_00000002353443134732938430000007231487597015309955_" gradientUnits="userSpaceOnUse" x1="457.9553" y1="-618.1957" x2="457.9553" y2="-856.0786">
				<stop  offset="0" style="stop-color:#F8FB00"/>
				<stop  offset="0.3566" style="stop-color:#9ACC00"/>
				<stop  offset="0.6687" style="stop-color:#4EA600"/>
				<stop  offset="0.8898" style="stop-color:#1F8F00"/>
				<stop  offset="1" style="stop-color:#0D8600"/>
			</linearGradient>
			<path style="fill:url(#SVGID_00000002353443134732938430000007231487597015309955_);" d="M468.07-779.05h-4.28
				c-0.4,0-0.68,0.32-0.68,0.68v9.07h-10.29v-9.07c0-0.36-0.29-0.68-0.68-0.68h-4.28c-0.36,0-0.68,0.32-0.68,0.68v23.83
				c0,0.36,0.32,0.68,0.68,0.68h4.28c0.4,0,0.68-0.32,0.68-0.68v-9.47h10.29v9.47c0,0.36,0.29,0.68,0.68,0.68h4.28
				c0.36,0,0.68-0.32,0.68-0.68v-23.83C468.75-778.73,468.43-779.05,468.07-779.05z"/>
			
				<linearGradient id="SVGID_00000178164192609655075910000013007009562686840472_" gradientUnits="userSpaceOnUse" x1="483.7671" y1="-605.5805" x2="483.7671" y2="-820.3664">
				<stop  offset="0" style="stop-color:#F8FB00"/>
				<stop  offset="0.3566" style="stop-color:#9ACC00"/>
				<stop  offset="0.6687" style="stop-color:#4EA600"/>
				<stop  offset="0.8898" style="stop-color:#1F8F00"/>
				<stop  offset="1" style="stop-color:#0D8600"/>
			</linearGradient>
			<path style="fill:url(#SVGID_00000178164192609655075910000013007009562686840472_);" d="M482.98-779.01l-11.27,24.22
				c-0.22,0.47,0.07,0.94,0.61,0.94h3.96c0.72,0,1.12-0.43,1.3-0.86l1.3-2.88h9.79l1.3,2.84c0.32,0.68,0.61,0.9,1.26,0.9h4
				c0.54,0,0.83-0.47,0.61-0.94l-11.27-24.22c-0.11-0.22-0.36-0.4-0.61-0.4h-0.36C483.33-779.41,483.08-779.23,482.98-779.01z
				 M483.73-768.43h0.04l2.74,5.94h-5.47L483.73-768.43z"/>
			
				<linearGradient id="SVGID_00000087408532174083061890000002644587974763492522_" gradientUnits="userSpaceOnUse" x1="506.9148" y1="-493.8315" x2="506.9148" y2="-809.6022">
				<stop  offset="0" style="stop-color:#F8FB00"/>
				<stop  offset="0.3566" style="stop-color:#9ACC00"/>
				<stop  offset="0.6687" style="stop-color:#4EA600"/>
				<stop  offset="0.8898" style="stop-color:#1F8F00"/>
				<stop  offset="1" style="stop-color:#0D8600"/>
			</linearGradient>
			<path style="fill:url(#SVGID_00000087408532174083061890000002644587974763492522_);" d="M514.37-779.05h-14.9
				c-0.4,0-0.68,0.32-0.68,0.68v23.83c0,0.36,0.29,0.68,0.68,0.68h14.9c0.4,0,0.68-0.32,0.68-0.68v-3.92c0-0.36-0.29-0.68-0.68-0.68
				h-9.97v-4.86h8.21c0.36,0,0.68-0.29,0.68-0.68v-3.92c0-0.36-0.32-0.68-0.68-0.68h-8.21v-4.46h9.97c0.4,0,0.68-0.32,0.68-0.68
				v-3.92C515.05-778.73,514.76-779.05,514.37-779.05z"/>
			
				<linearGradient id="SVGID_00000099653948167595465410000001227104014226513296_" gradientUnits="userSpaceOnUse" x1="527.3262" y1="-434.3001" x2="527.3262" y2="-779.051">
				<stop  offset="0" style="stop-color:#F8FB00"/>
				<stop  offset="0.3566" style="stop-color:#9ACC00"/>
				<stop  offset="0.6687" style="stop-color:#4EA600"/>
				<stop  offset="0.8898" style="stop-color:#1F8F00"/>
				<stop  offset="1" style="stop-color:#0D8600"/>
			</linearGradient>
			<path style="fill:url(#SVGID_00000099653948167595465410000001227104014226513296_);" d="M534.09-759.15h-8.57v-19.22
				c0-0.36-0.32-0.68-0.68-0.68h-4.28c-0.4,0-0.68,0.32-0.68,0.68v23.83c0,0.36,0.29,0.68,0.68,0.68h13.54
				c0.4,0,0.68-0.32,0.68-0.68v-3.92C534.78-758.82,534.49-759.15,534.09-759.15z"/>
		</g>
	</g>
	<g>
		<g>
			
				<linearGradient id="SVGID_00000049922331761667884300000002188355034542512062_" gradientUnits="userSpaceOnUse" x1="310.6486" y1="-405.6445" x2="415.5982" y2="-405.6445">
				<stop  offset="0" style="stop-color:#F8FB00"/>
				<stop  offset="1" style="stop-color:#0D8600"/>
			</linearGradient>
			<path style="fill:url(#SVGID_00000049922331761667884300000002188355034542512062_);" d="M349.21-400.77
				c-1.6,0.15-3.23,0.18-4.9,0.11c-1.67-0.07-3.3-0.25-4.9-0.54c-2.61,8.13-3.37,14.8-2.29,20.02c1.09,5.22,3.55,8.85,7.4,10.88
				c3.84,2.03,8.81,2.39,14.91,1.09c6.09-1.31,12.91-4.35,20.46-9.14c6.1-4.21,11.57-9.32,16.43-15.34
				c4.86-6.02,8.96-12.08,12.3-18.17c1.59-0.58,3.08-0.83,4.46-0.76c1.38,0.07,2.21,1.49,2.5,4.24
				c-3.34,6.39-7.73,12.92-13.17,19.59c-5.44,6.68-11.43,12.84-17.96,18.5c-10.45,8.71-20.75,14.51-30.91,17.41
				c-10.16,2.9-18.87,2.03-26.12-2.61c-5.52-3.77-9.76-8.67-12.73-14.69c-2.97-6.02-4.32-12.3-4.03-18.83
				c0.15-6.09,1.27-12.22,3.37-18.39c2.1-6.17,4.9-12.08,8.38-17.74c3.48-5.66,7.54-10.85,12.19-15.56
				c4.64-4.71,9.65-8.52,15.02-11.43c5.37-2.9,11.57-5.15,18.61-6.75c7.04-1.59,13.6-1.59,19.7,0c3.05,0.73,5.58,2,7.62,3.81
				c2.03,1.82,3.52,3.92,4.46,6.31c0.94,2.39,1.34,4.97,1.2,7.73c-0.15,2.76-0.73,5.52-1.74,8.27c-2.47,6.53-6.42,12.05-11.86,16.54
				c-5.44,4.5-11.28,7.98-17.52,10.45C363.14-402.87,356.18-401.2,349.21-400.77z M367.93-442.56c-5.37,4.65-10.27,9.94-14.69,15.89
				c-4.43,5.95-8.16,12.19-11.21,18.72c2.18-0.58,4.64-1.38,7.4-2.39c4.35-1.59,8.56-3.52,12.62-5.77c4.06-2.25,7.76-4.97,11.1-8.16
				c2.9-2.61,5.58-5.66,8.05-9.14c2.47-3.48,3.56-7.33,3.26-11.54c0-2.32-0.73-3.63-2.18-3.92c-1.45-0.29-3.12-0.07-5.01,0.65
				c-1.89,0.73-3.7,1.67-5.44,2.83C370.11-444.22,368.8-443.28,367.93-442.56z"/>
			
				<linearGradient id="SVGID_00000126283506942135963980000010734862469322677408_" gradientUnits="userSpaceOnUse" x1="380.4772" y1="-409.7376" x2="571.2219" y2="-409.7376">
				<stop  offset="0" style="stop-color:#F8FB00"/>
				<stop  offset="1" style="stop-color:#0D8600"/>
			</linearGradient>
			<path style="fill:url(#SVGID_00000126283506942135963980000010734862469322677408_);" d="M564.26-411.87
				c1.74-0.44,3.26-0.51,4.57-0.22c1.31,0.29,2.1,1.52,2.39,3.7c-4.06,7.69-8.64,14.95-13.71,21.77
				c-5.08,6.82-10.74,12.99-16.98,18.5c-2.76,2.47-5.91,4.75-9.47,6.86c-3.56,2.11-7.18,3.59-10.88,4.46s-7.37,0.83-10.99-0.11
				c-3.63-0.94-6.82-3.3-9.58-7.07c-2.47-3.05-3.92-6.49-4.35-10.34c-0.44-3.84-0.33-7.8,0.33-11.86c0.65-4.06,1.67-8.02,3.05-11.86
				c1.38-3.84,2.79-7.43,4.24-10.77c2.47-5.95,5.33-11.64,8.6-17.09c3.26-5.44,6.35-11.06,9.25-16.87
				c-4.21,3.34-8.67,7.26-13.39,11.75c-4.72,4.5-8.81,8.78-12.3,12.84c-4.35,5.08-8.49,10.2-12.41,15.35
				c-3.92,5.15-7.76,10.48-11.54,16c-3.34,4.79-6.17,9.07-8.49,12.84c-2.32,3.77-4.35,6.96-6.09,9.58
				c-1.74,2.61-3.23,4.57-4.46,5.88c-1.23,1.31-2.43,1.96-3.59,1.96c-1.45-0.14-3.12-0.54-5.01-1.2c-1.89-0.65-3.67-1.45-5.33-2.39
				c-1.67-0.94-3.05-2.14-4.13-3.59c-1.09-1.45-1.49-3.19-1.2-5.22c0.14-0.58,0.47-1.56,0.98-2.94c0.51-1.38,1.09-2.86,1.74-4.46
				c0.65-1.6,1.31-3.16,1.96-4.68s1.12-2.72,1.42-3.59c3.92-8.71,8.09-17.56,12.51-26.55c4.42-9,9.25-18.57,14.47-28.73
				c-5.95,5.52-11.72,11.36-17.3,17.52c-5.59,6.17-10.92,12.44-16,18.83c-3.34,4.06-6.57,8.13-9.69,12.19
				c-3.12,4.06-6.2,8.2-9.25,12.41c-0.58,0.73-1.52,2.03-2.83,3.92c-1.31,1.89-2.72,3.85-4.24,5.88c-1.52,2.03-3.01,3.99-4.46,5.88
				c-1.45,1.89-2.61,3.19-3.48,3.92c-1.31,1.02-3.01,1.27-5.12,0.76c-2.1-0.51-4.17-1.49-6.2-2.94c-2.03-1.45-3.73-3.12-5.12-5.01
				c-1.38-1.88-1.92-3.7-1.63-5.44c0.58-3.48,1.96-7.87,4.14-13.17c2.18-5.29,4.72-10.88,7.62-16.76c2.9-5.88,6.06-11.79,9.47-17.74
				c3.41-5.95,6.71-11.46,9.9-16.54l13.28-21.77c1.31-2.32,3.34-3.95,6.09-4.9c2.76-0.94,5.8-0.18,9.14,2.29
				c3.34,2.61,5.44,4.72,6.31,6.31c0.87,1.6,0.58,3.7-0.87,6.31c-1.6,2.9-3.52,6.13-5.77,9.69c-2.25,3.56-4.5,7.11-6.75,10.67
				c-2.25,3.56-4.39,7-6.42,10.34c-2.03,3.34-3.7,6.17-5.01,8.49c2.03-2.47,4.71-5.62,8.05-9.47c3.34-3.84,6.82-7.76,10.45-11.75
				c3.62-3.99,7.18-7.8,10.66-11.43c3.48-3.63,6.45-6.46,8.92-8.49c0.87-0.87,1.99-1.85,3.37-2.94c1.38-1.09,2.86-2.14,4.46-3.16
				c1.59-1.01,3.3-1.88,5.12-2.61c1.81-0.72,3.73-1.01,5.77-0.87c1.88,0.15,3.88,0.69,5.99,1.63c2.1,0.95,4.03,2.1,5.77,3.48
				c1.74,1.38,3.16,2.8,4.24,4.24c1.09,1.45,1.56,2.69,1.42,3.7c-0.29,1.6-1.02,3.37-2.18,5.33c-1.16,1.96-2.1,3.74-2.83,5.33
				l-5.22,10.67c8.85-10.88,18.79-20.1,29.82-27.64c5.66-3.92,10.3-6.17,13.93-6.75c3.63-0.58,7.25,0,10.88,1.74
				c3.77,1.74,6.75,3.7,8.92,5.88c2.18,2.18,3.12,3.78,2.83,4.79c-0.29,1.45-0.8,2.9-1.52,4.35c-0.73,1.45-1.45,2.83-2.18,4.13
				l-9.36,17.63c-3.05,5.95-6.13,11.86-9.25,17.74c-3.12,5.88-5.77,12.01-7.94,18.39c-1.6,4.5-1.13,7.51,1.41,9.03
				c2.54,1.52,6.86,0.62,12.95-2.72c5.95-3.34,11.13-7.87,15.56-13.6C556.17-397.9,560.34-404.47,564.26-411.87z"/>
			
				<linearGradient id="SVGID_00000037694563610482871340000017378323299891040688_" gradientUnits="userSpaceOnUse" x1="542.9694" y1="-429.416" x2="619.54" y2="-429.416">
				<stop  offset="0" style="stop-color:#F8FB00"/>
				<stop  offset="1" style="stop-color:#0D8600"/>
			</linearGradient>
			<path style="fill:url(#SVGID_00000037694563610482871340000017378323299891040688_);" d="M619.11-495.67
				c0.58,2.03,0.58,3.74,0,5.12c-0.58,1.38-1.31,2.94-2.18,4.68l-2.61,5.22c-1.69,3.54-10.45,22.42-10.45,22.42l-5.01,10.45
				l-18.5,37.22c-0.58,1.16-1.67,3.3-3.26,6.42c-1.6,3.12-3.26,6.57-5.01,10.34c-3.48,7.69-5.19,13.39-5.12,17.09
				c0.07,3.7,1.34,5.77,3.81,6.2c2.47,0.44,5.8-0.69,10.01-3.37c4.21-2.68,8.71-6.64,13.5-11.86c3.34-3.77,6.38-7.73,9.14-11.86
				c2.76-4.14,5.51-8.89,8.27-14.26c4.35-2.32,6.75-1.16,7.18,3.48c-2.32,4.35-4.79,8.71-7.4,13.06c-2.61,4.35-5.48,8.56-8.6,12.62
				c-3.12,4.06-6.42,7.94-9.9,11.64c-3.48,3.7-7.26,6.93-11.32,9.69c-3.34,2.47-7.29,4.21-11.86,5.22s-9.03,0.94-13.38-0.22
				c-3.19-0.72-5.88-2.32-8.05-4.79c-2.18-2.47-3.63-5.3-4.35-8.49c-0.87-3.34-1.2-6.75-0.98-10.23c0.22-3.48,0.8-6.97,1.74-10.45
				c0.95-3.48,2.07-6.86,3.37-10.12c1.31-3.26,2.61-6.42,3.92-9.47c3.34-7.84,7.07-15.42,11.21-22.75
				c4.14-7.33,12.52-22.09,12.52-22.09l14.37-25.68l6.31-11.97c1.01-1.74,1.92-3.52,2.72-5.33c0.8-1.81,1.99-3.37,3.59-4.68
				c1.16-0.87,2.65-1.16,4.46-0.87c1.81,0.29,3.55,0.84,5.22,1.63c1.67,0.8,3.12,1.78,4.35,2.94
				C618.05-497.55,618.81-496.54,619.11-495.67z"/>
			
				<linearGradient id="SVGID_00000165211431316333470650000012485036262609828760_" gradientUnits="userSpaceOnUse" x1="552.2706" y1="-361.6816" x2="707.9082" y2="-361.6816">
				<stop  offset="0" style="stop-color:#F8FB00"/>
				<stop  offset="1" style="stop-color:#0D8600"/>
			</linearGradient>
			<path style="fill:url(#SVGID_00000165211431316333470650000012485036262609828760_);" d="M707.91-455.18
				c-2.76,5.22-5.37,10.01-7.84,14.37c-2.03,3.77-4.03,7.44-5.99,10.99c-1.96,3.56-3.3,5.99-4.03,7.29
				c-6.97,13.21-13.21,26.74-18.72,40.59c-5.52,13.86-11.1,28.11-16.76,42.77l9.79,3.05c2.61,0.87,5.48,1.63,8.6,2.29
				c3.12,0.65,6.13,1.12,9.03,1.41c3.05,0.29,5.73,0,8.05-0.87c2.32-0.87,4.5-2.11,6.53-3.7c-1.31,4.64-3.45,8.85-6.42,12.62
				c-2.98,3.77-6.57,6.82-10.77,9.14c-4.35,2.32-8.85,3.63-13.5,3.92c-4.65,0.29-9.36,0.07-14.15-0.65l-7.4-1.52
				c-2.47,6.09-5.3,11.93-8.49,17.52c-3.19,5.58-7.11,10.7-11.75,15.34c-4.65,4.35-9.79,7.94-15.45,10.77
				c-5.66,2.83-11.75,4.25-18.28,4.25c-6.82,0-13.2-1.74-19.15-5.22c-5.95-3.48-10.59-8.2-13.93-14.15
				c-3.19-5.52-4.86-11.46-5.01-17.85c-0.14-6.39,0.95-12.52,3.26-18.39c2.32-5.88,5.66-11.14,10.01-15.78
				c4.35-4.65,9.51-8.05,15.45-10.23c7.55-2.76,15.6-3.78,24.16-3.05c8.56,0.72,16.68,2.03,24.38,3.92h0.22
				c1.88-5.66,3.84-11.28,5.88-16.87c2.03-5.58,4.13-11.13,6.31-16.65l-2.61,3.7c-1.89,2.76-3.95,5.66-6.2,8.71
				c-2.25,3.05-4.72,5.66-7.4,7.84c-2.69,2.18-5.62,3.63-8.81,4.35c-3.19,0.72-6.75,0.14-10.67-1.74
				c-6.67-3.05-10.84-7.54-12.51-13.49c-1.67-5.95-1.85-12.62-0.54-20.02c1.6-8.27,4.35-16.14,8.27-23.62
				c3.92-7.47,8.27-14.69,13.06-21.66c2.03-3.05,4.6-6.38,7.73-10.01c3.12-3.62,6.35-6.31,9.69-8.05c2.32-1.16,5.4-1.63,9.25-1.41
				c3.84,0.22,8.02,1.78,12.52,4.68c-2.61,3.48-5.88,8.27-9.79,14.37c-3.92,6.09-7.8,12.51-11.64,19.26
				c-3.85,6.75-7.22,13.46-10.12,20.13c-2.9,6.68-4.57,12.34-5.01,16.98c-0.15,1.74,0.11,3.26,0.76,4.57
				c0.65,1.31,1.63,2.1,2.94,2.39c1.31,0.29,2.97-0.11,5.01-1.2c2.03-1.09,4.5-3.16,7.4-6.2c4.5-4.79,8.52-9.87,12.08-15.24
				c3.55-5.37,7-10.81,10.34-16.32c2.03-4.5,4.35-9.18,6.96-14.04c2.61-4.86,5.44-9.39,8.49-13.6c3.05-4.21,6.31-7.87,9.79-10.99
				c3.48-3.12,7.11-5.26,10.88-6.42c2.47-0.72,4.64-0.98,6.53-0.76c1.88,0.22,3.55,0.47,5.01,0.76
				C704.93-456.34,706.46-455.76,707.91-455.18z M600.82-284.76c5.51-4.21,9.72-9.51,12.62-15.89c2.9-6.39,7.53-19.54,7.53-19.54
				c-4.21-1.31-8.5-2.52-12.64-3.53c-4.14-1.02-8.3-1.67-12.52-1.96c-4.64-0.29-9.28,0.33-13.93,1.85
				c-4.64,1.52-8.56,4.17-11.75,7.94c-2.9,3.48-4.71,7.58-5.44,12.3c-0.72,4.71,0.07,9.03,2.39,12.95c1.74,2.9,3.95,5.19,6.64,6.86
				c2.69,1.67,5.63,2.75,8.82,3.27c3.19,0.51,6.39,0.4,9.58-0.33C595.31-281.57,598.21-282.87,600.82-284.76z"/>
			
				<linearGradient id="SVGID_00000018201025514769803640000013796927786069886624_" gradientUnits="userSpaceOnUse" x1="553.7124" y1="-475.542" x2="710.1094" y2="-475.542">
				<stop  offset="0" style="stop-color:#F8FB00"/>
				<stop  offset="1" style="stop-color:#0D8600"/>
			</linearGradient>
			<path style="fill:url(#SVGID_00000018201025514769803640000013796927786069886624_);" d="M596.49-467.84
				c-13.99,0.26-15.49-0.41-23.62-1.37c-7.3-1.37-12.32-3.36-15.06-5.99c-2.74-2.62-4.11-4.84-4.11-6.67c0-0.91,0.22-1.82,0.68-2.74
				c5.02,3.2,11.75,4.79,20.19,4.79c5.64-0.07,20.25-2.12,29.43-3.42c15.51-2.96,28.18-4.96,37.99-5.99
				c9.81-1.03,19.05-1.54,27.72-1.54c7.53,0,13.63,0.29,18.31,0.85c4.67,0.57,7.92,1.32,9.75,2.23c2.28,1.14,4.33,2.62,6.16,4.45
				c1.59,1.6,3.02,3.48,4.28,5.65c1.25,2.17,1.88,4.85,1.88,8.04c0,0.92-0.23,2.68-0.68,5.3c-0.46,2.63-1.03,3.94-1.71,3.94
				s-2.11-0.51-4.28-1.54c-2.17-1.03-5.82-2.22-10.95-3.59c-5.13-1.37-12.1-2.57-20.88-3.59c-8.78-1.03-20.14-1.54-34.05-1.54
				C629.8-470.58,600.82-468.07,596.49-467.84z"/>
		</g>
		<g>
			
				<linearGradient id="SVGID_00000009587223978186949720000014742565808403806884_" gradientUnits="userSpaceOnUse" x1="339.0134" y1="-311.8542" x2="339.0134" y2="-627.6249">
				<stop  offset="0" style="stop-color:#F8FB00"/>
				<stop  offset="0.3566" style="stop-color:#9ACC00"/>
				<stop  offset="0.6687" style="stop-color:#4EA600"/>
				<stop  offset="0.8898" style="stop-color:#1F8F00"/>
				<stop  offset="1" style="stop-color:#0D8600"/>
			</linearGradient>
			<path style="fill:url(#SVGID_00000009587223978186949720000014742565808403806884_);" d="M331.56-311.85h14.9
				c0.4,0,0.68-0.32,0.68-0.68v-3.92c0-0.36-0.29-0.68-0.68-0.68h-9.97v-4.86h8.21c0.36,0,0.68-0.29,0.68-0.68v-3.92
				c0-0.36-0.32-0.68-0.68-0.68h-8.21v-4.46h9.97c0.4,0,0.68-0.32,0.68-0.68v-3.92c0-0.36-0.29-0.68-0.68-0.68h-14.9
				c-0.4,0-0.68,0.32-0.68,0.68v23.83C330.88-312.18,331.17-311.85,331.56-311.85z"/>
			
				<linearGradient id="SVGID_00000009585944918910054010000006513861247091114154_" gradientUnits="userSpaceOnUse" x1="358.5613" y1="-285.0658" x2="358.5613" y2="-575.1702">
				<stop  offset="0" style="stop-color:#F8FB00"/>
				<stop  offset="0.3566" style="stop-color:#9ACC00"/>
				<stop  offset="0.6687" style="stop-color:#4EA600"/>
				<stop  offset="0.8898" style="stop-color:#1F8F00"/>
				<stop  offset="1" style="stop-color:#0D8600"/>
			</linearGradient>
			<path style="fill:url(#SVGID_00000009585944918910054010000006513861247091114154_);" d="M366.73-337.05h-15.3
				c-0.36,0-0.68,0.32-0.68,0.68v3.92c0,0.36,0.32,0.68,0.68,0.68h7.85v0.07l-9.57,18.5v0.65c0,0.36,0.32,0.68,0.68,0.68h15.62
				c0.4,0,0.68-0.32,0.68-0.68v-3.92c0-0.36-0.29-0.68-0.68-0.68h-7.85v-0.07l9.25-18.68v-0.47
				C367.42-336.73,367.09-337.05,366.73-337.05z"/>
			
				<linearGradient id="SVGID_00000059278878430476330050000013720893011536941464_" gradientUnits="userSpaceOnUse" x1="392.1482" y1="-268.9327" x2="392.1482" y2="-453.6965">
				<stop  offset="0" style="stop-color:#F8FB00"/>
				<stop  offset="0.3566" style="stop-color:#9ACC00"/>
				<stop  offset="0.6687" style="stop-color:#4EA600"/>
				<stop  offset="0.8898" style="stop-color:#1F8F00"/>
				<stop  offset="1" style="stop-color:#0D8600"/>
			</linearGradient>
			<path style="fill:url(#SVGID_00000059278878430476330050000013720893011536941464_);" d="M393.08-311.89l6.05-11.66h0.07
				l1.62,11.12c0.04,0.29,0.36,0.58,0.68,0.58h4.25c0.43,0,0.76-0.32,0.68-0.79l-4.07-24.19c-0.04-0.32-0.36-0.58-0.65-0.58h-0.58
				c-0.18,0-0.5,0.14-0.61,0.36l-8.35,15.55h-0.07l-8.35-15.55c-0.11-0.22-0.43-0.36-0.61-0.36h-0.58c-0.29,0-0.61,0.25-0.65,0.58
				l-4.07,24.19c-0.07,0.47,0.25,0.79,0.68,0.79h4.25c0.36,0,0.65-0.29,0.68-0.58l1.58-11.12h0.07l6.08,11.66
				c0.11,0.22,0.4,0.4,0.61,0.4h0.65C392.65-311.49,392.98-311.67,393.08-311.89z"/>
			
				<linearGradient id="SVGID_00000046309837761789968900000011301824243060768150_" gradientUnits="userSpaceOnUse" x1="413.8928" y1="43.3497" x2="413.8928" y2="-860.0414">
				<stop  offset="0" style="stop-color:#F8FB00"/>
				<stop  offset="0.3566" style="stop-color:#9ACC00"/>
				<stop  offset="0.6687" style="stop-color:#4EA600"/>
				<stop  offset="0.8898" style="stop-color:#1F8F00"/>
				<stop  offset="1" style="stop-color:#0D8600"/>
			</linearGradient>
			<path style="fill:url(#SVGID_00000046309837761789968900000011301824243060768150_);" d="M416.05-337.05h-4.32
				c-0.36,0-0.68,0.32-0.68,0.68v23.83c0,0.36,0.32,0.68,0.68,0.68h4.32c0.36,0,0.68-0.32,0.68-0.68v-23.83
				C416.74-336.73,416.41-337.05,416.05-337.05z"/>
			
				<linearGradient id="SVGID_00000096777680781590232070000007963716362375088004_" gradientUnits="userSpaceOnUse" x1="432.0698" y1="-204.9917" x2="432.0698" y2="-445.7034">
				<stop  offset="0" style="stop-color:#F8FB00"/>
				<stop  offset="0.3566" style="stop-color:#9ACC00"/>
				<stop  offset="0.6687" style="stop-color:#4EA600"/>
				<stop  offset="0.8898" style="stop-color:#1F8F00"/>
				<stop  offset="1" style="stop-color:#0D8600"/>
			</linearGradient>
			<path style="fill:url(#SVGID_00000096777680781590232070000007963716362375088004_);" d="M442.87-315.96l-2.81-2.99
				c-0.22-0.25-0.68-0.25-0.94-0.04c-1.3,1.12-3.13,1.73-4.82,1.73c-4.07,0-7.09-3.31-7.09-7.31c0-4.03,2.99-7.42,7.06-7.42
				c1.76,0,3.53,0.65,4.86,1.84c0.25,0.25,0.65,0.25,0.9,0l2.81-2.92c0.29-0.29,0.29-0.72-0.04-1.01c-2.45-2.23-5.11-3.35-8.71-3.35
				c-7.2,0-12.99,5.79-12.99,12.99s5.8,12.92,12.99,12.92c3.2,0,6.3-1.12,8.75-3.49C443.09-315.24,443.12-315.71,442.87-315.96z"/>
			
				<linearGradient id="SVGID_00000099633317777595606060000014097611754130961320_" gradientUnits="userSpaceOnUse" x1="457.9553" y1="-176.1957" x2="457.9553" y2="-414.0785">
				<stop  offset="0" style="stop-color:#F8FB00"/>
				<stop  offset="0.3566" style="stop-color:#9ACC00"/>
				<stop  offset="0.6687" style="stop-color:#4EA600"/>
				<stop  offset="0.8898" style="stop-color:#1F8F00"/>
				<stop  offset="1" style="stop-color:#0D8600"/>
			</linearGradient>
			<path style="fill:url(#SVGID_00000099633317777595606060000014097611754130961320_);" d="M468.07-337.05h-4.28
				c-0.4,0-0.68,0.32-0.68,0.68v9.07h-10.29v-9.07c0-0.36-0.29-0.68-0.68-0.68h-4.28c-0.36,0-0.68,0.32-0.68,0.68v23.83
				c0,0.36,0.32,0.68,0.68,0.68h4.28c0.4,0,0.68-0.32,0.68-0.68v-9.47h10.29v9.47c0,0.36,0.29,0.68,0.68,0.68h4.28
				c0.36,0,0.68-0.32,0.68-0.68v-23.83C468.75-336.73,468.43-337.05,468.07-337.05z"/>
			
				<linearGradient id="SVGID_00000137125605945163191650000000223751722507649408_" gradientUnits="userSpaceOnUse" x1="483.7671" y1="-163.5805" x2="483.7671" y2="-378.3664">
				<stop  offset="0" style="stop-color:#F8FB00"/>
				<stop  offset="0.3566" style="stop-color:#9ACC00"/>
				<stop  offset="0.6687" style="stop-color:#4EA600"/>
				<stop  offset="0.8898" style="stop-color:#1F8F00"/>
				<stop  offset="1" style="stop-color:#0D8600"/>
			</linearGradient>
			<path style="fill:url(#SVGID_00000137125605945163191650000000223751722507649408_);" d="M482.98-337.01l-11.27,24.22
				c-0.22,0.47,0.07,0.94,0.61,0.94h3.96c0.72,0,1.12-0.43,1.3-0.86l1.3-2.88h9.79l1.3,2.84c0.32,0.68,0.61,0.9,1.26,0.9h4
				c0.54,0,0.83-0.47,0.61-0.94l-11.27-24.22c-0.11-0.22-0.36-0.4-0.61-0.4h-0.36C483.33-337.41,483.08-337.23,482.98-337.01z
				 M483.73-326.43h0.04l2.74,5.94h-5.47L483.73-326.43z"/>
			
				<linearGradient id="SVGID_00000138552396678346830960000010342091442341410232_" gradientUnits="userSpaceOnUse" x1="506.9148" y1="-51.8315" x2="506.9148" y2="-367.6023">
				<stop  offset="0" style="stop-color:#F8FB00"/>
				<stop  offset="0.3566" style="stop-color:#9ACC00"/>
				<stop  offset="0.6687" style="stop-color:#4EA600"/>
				<stop  offset="0.8898" style="stop-color:#1F8F00"/>
				<stop  offset="1" style="stop-color:#0D8600"/>
			</linearGradient>
			<path style="fill:url(#SVGID_00000138552396678346830960000010342091442341410232_);" d="M514.37-337.05h-14.9
				c-0.4,0-0.68,0.32-0.68,0.68v23.83c0,0.36,0.29,0.68,0.68,0.68h14.9c0.4,0,0.68-0.32,0.68-0.68v-3.92c0-0.36-0.29-0.68-0.68-0.68
				h-9.97v-4.86h8.21c0.36,0,0.68-0.29,0.68-0.68v-3.92c0-0.36-0.32-0.68-0.68-0.68h-8.21v-4.46h9.97c0.4,0,0.68-0.32,0.68-0.68
				v-3.92C515.05-336.73,514.76-337.05,514.37-337.05z"/>
			
				<linearGradient id="SVGID_00000088822144653288012860000003728550599713104010_" gradientUnits="userSpaceOnUse" x1="527.3262" y1="7.6999" x2="527.3262" y2="-337.0509">
				<stop  offset="0" style="stop-color:#F8FB00"/>
				<stop  offset="0.3566" style="stop-color:#9ACC00"/>
				<stop  offset="0.6687" style="stop-color:#4EA600"/>
				<stop  offset="0.8898" style="stop-color:#1F8F00"/>
				<stop  offset="1" style="stop-color:#0D8600"/>
			</linearGradient>
			<path style="fill:url(#SVGID_00000088822144653288012860000003728550599713104010_);" d="M534.09-317.15h-8.57v-19.22
				c0-0.36-0.32-0.68-0.68-0.68h-4.28c-0.4,0-0.68,0.32-0.68,0.68v23.83c0,0.36,0.29,0.68,0.68,0.68h13.54
				c0.4,0,0.68-0.32,0.68-0.68v-3.92C534.78-316.82,534.49-317.15,534.09-317.15z"/>
		</g>
	</g>
</g>
<g id="Layer_3">
	<g>
		<path class="st30" d="M229.78,413.5c-3.8,0.6-7.83,1.16-11.9,1.4c-4.08,0.24-8.09,0.25-12.04,0.02
			c-3.83,13.01-5.45,31.27-0.94,44.5c3.81,11.18,10.54,18.52,20.14,22.07c9.6,3.55,21.49,3.17,35.74-0.93
			c17.22-4.96,56.28-18.29,70.04-28.63c14.1-10.58,23.65-19.26,35.32-27.97c16.83-12.56,23.7-18.73,33.9-26.78
			c6.12-4.77,21.72-20.63,25.13-20.62c3.4,0.01,14.19,9.37,15.17,15.41c-13.09,13.68-19.46,17.27-32.95,29.63
			c-14.45,13.24-46.04,34.43-62.1,46.46c-21.51,14.64-68.73,39.44-95.2,49.61c-19.84,7.62-42.33,9.44-62.07,0.57
			c-12.72-5.71-26.13-17.25-33.92-28.62c-8.39-12.25-13.52-25.8-14.77-40c-1.17-13.24-0.31-27.14,3.15-41.27
			c3.46-14.13,8.89-27.95,15.92-41.31c6.9-13.11,16.66-26.62,26.5-37.5c9.67-10.7,22.72-21.55,35.21-28.89
			c13.69-8.05,30.76-14.64,45.8-18.96c14.84-4.27,34.37-6.44,50.02-3.64c7.84,1.1,14.47,3.5,19.85,7.19
			c5.38,3.69,9.41,8.11,12.08,13.25c2.67,5.14,3.98,10.77,3.95,16.85c-0.03,6.09-1.16,12.25-3.35,18.45
			c-4.67,14.01-16.19,29.05-27.23,38.19c-11.85,9.82-26.91,19.98-41.39,26.08C263.65,404.86,247.01,410.77,229.78,413.5z
			 M267.97,317.62c-12.47,10.85-24.34,24.69-33.64,38.08c-9.11,13.12-17.82,28.64-23.64,43.76c5.2-1.81,11.06-4.17,17.61-7.04
			c10.33-4.53,20.29-9.67,29.88-15.47c9.58-5.79,18.24-12.73,25.98-20.16c6.56-6.3,12.94-13.48,18.56-21.58
			c5.62-8.09,7.38-17.05,6.43-25.94c-0.52-4.89-2.38-7.86-6.07-8.24c-3.7-0.39-7.89,0.39-12.52,2.34
			c-4.64,1.95-9.06,4.37-13.23,7.26C273.14,313.51,270.02,315.85,267.97,317.62z"/>
		<path class="st30" d="M541.51,324.54c-11.65,5.7-22.7,12.03-33.12,18.97c-10.43,6.94-20.44,14.29-30,21.67
			c-8.05,6.22-16.7,13.17-25.6,20.9c-8.91,7.73-18.01,15.58-27.31,23.57c-9.3,7.98-18.53,15.7-27.71,23.12
			c-9.18,7.43-18,13.76-26.47,19c10.73-2.14,22.25-4.59,34.57-7.32c12.31-2.72,24.69-4.81,37.1-6.27
			c12.39-1.46,24.23-1.86,35.46-1.23c11.22,0.63,21.06,3.02,29.47,7.13c12.96,6.33,20.88,14.28,23.81,23.71
			c2.93,9.44,3.31,19.45,1.23,30c-10.3-1.62-22.95-2.7-37.89-3.21c-16.01-0.55-32.26-0.42-48.23,0.16
			c-17.57,0.63-35.26,1.95-52.77,3.53c-17.15,1.55-34.47,3.78-51.52,6.54c-4.41,0.91-8.92,1.83-13.5,2.78
			c-4.58,0.94-9.13,1.38-13.58,1.4c-5.46,0.03-9.72-1.15-12.66-3.66c-2.94-2.5-5.54-7.21-7.8-14.09
			c-2.26-6.88-2.75-12.07-1.45-15.53c1.3-3.47,3.31-5.79,6.01-6.95c10.78-5.29,21.09-11.54,30.96-18.74
			c9.87-7.2,19.58-14.58,29.01-22.14c8.11-6.5,16.68-13.6,25.73-21.22c9.05-7.61,18.33-15.44,27.86-23.47
			c9.53-8.03,18.86-15.92,28-23.69c9.13-7.76,17.81-14.92,26.02-21.48c4.99-3.93,9.47-7.36,13.42-10.3
			c3.95-2.93,8.63-6.03,14.06-9.29c-6.55,0.06-13.56,0.55-20.99,1.47c-7.44,0.92-14.79,1.71-22.05,2.36
			c-7.26,0.65-14.25,0.92-20.98,0.8c-6.73-0.12-12.68-1.36-17.87-3.74c-11.47-5.03-18.13-11.32-19.91-18.93
			c-1.78-7.61-1.07-16.61,2.21-26.99c2.62,0.86,7.9,1.2,15.84,1.08c7.93-0.12,17.25-0.35,27.95-0.63c10.7-0.29,22.14-0.7,34.31-1.22
			c12.17-0.52,23.89-0.88,35.15-1.1c11.25-0.22,21.32-0.46,30.18-0.74c8.86-0.28,15.42-0.48,19.39-0.35
			c6.85,0.23,12.15,3.35,15.38,8.83c3.24,5.49,6.72,26.49,2.26,32.2c-1.81,2.32-11.64,4.24-17.3,6.26
			C552.52,319.73,546.97,322.01,541.51,324.54z"/>
		<path class="st30" d="M839.67,294.65c-8.09,10.79-15.83,20.7-22.7,29.68c-5.87,7.67-11.54,15.43-17.09,22.82
			c-5.55,7.39-9.32,12.45-11.35,15.17c-19.17,27.72-36.92,56.2-52.48,85.79c-15.76,29.95-30.8,60.89-45.57,91.67
			c9,3.19,13.48,4.8,22.44,8.06c5.96,2.3,12.51,4.41,19.66,6.36c7.14,1.94,14.07,3.51,20.75,4.65c7,1.2,13.29,1.05,18.84-0.41
			c5.54-1.46,10.83-3.74,15.87-6.82c-3.94,9.93-9.71,18.74-17.26,26.46c-7.54,7.72-16.38,13.85-26.35,18.13
			c-10.25,4.4-20.83,6.51-31.48,6.47c-10.65-0.04-21.4-1.16-32.26-3.34c-6.7-1.7-10.05-2.54-16.77-4.21
			c-6.29,13.16-13.3,25.74-21.02,37.75c-7.71,12.01-16.96,23.29-27.64,32.86c-10.36,9.29-22.33,16.88-35,22.88
			c-12.66,6-26.15,8.94-40.58,8.87c-15.07-0.07-29.16-3.86-42.44-11.41c-13.27-7.54-23.76-17.89-31.56-30.71
			c-7.29-11.98-11.53-25.03-12.21-39.09c-0.68-14.07,1.45-27.65,6.51-40.73c5.06-13.08,12.58-24.84,22.58-35.22
			c10.01-10.39,22.39-18.72,36-22.87c19.36-5.89,36.88-7.84,56.91-6.32c18.73,1.42,37.96,5.6,57.12,10.14
			c0.2,0.01,0.31,0.01,0.51,0.02c4.87-12.31,9.97-24.53,15.31-36.64c5.33-12.11,10.88-24.12,16.67-36.04
			c-2.66,3.15-3.99,4.72-6.64,7.87c-4.79,5.88-10,12.07-15.62,18.58c-5.62,6.51-11.69,12.06-18.21,16.64
			c-6.53,4.59-13.57,7.58-21.15,8.99c-7.59,1.41-15.95-0.07-25.15-4.38c-15.68-6.99-25.52-16.98-29.41-30.13
			c-3.89-13.14-4.71-28.58-0.99-44.17c4.45-18.59,11.16-35.41,20.78-51.87c9.46-16.19,21.34-31.77,33.35-47.14
			c5.24-6.6,11.9-13.79,20.01-21.55c8.1-7.76,16.51-13.5,25.08-16.92c5.91-2.36,13.85-3.07,23.58-2.15
			c9.72,0.92,20.15,4.88,31.17,11.89c-7.02,7.31-15.8,17.47-26.25,30.39c-10.73,13.27-21.06,27.27-30.76,41.21
			c-9.54,13.71-18.67,28.63-26.33,43.53c-7.44,14.48-11.92,26.93-13.17,37.09c-0.47,3.81,0.08,7.2,1.57,10.12
			c1.49,2.92,3.79,4.74,6.9,5.47c3.11,0.73,7.13-0.03,12.08-2.27c4.94-2.24,11.01-6.59,18.26-13.04
			c11.23-10.14,21.47-20.89,30.69-32.3c9.21-11.41,19.55-23.18,27.17-34.63c5.76-8.66,11.89-19.59,19.04-29.89
			c7.15-10.3,14.86-19.82,23.13-28.56c8.27-8.73,17.07-16.2,26.39-22.39c9.31-6.19,18.93-10.22,28.66-11.9
			c6.34-1.09,11.95-1.13,16.7-0.23c4.73,0.91,9.23,1.7,12.53,2.84C832.22,291.02,836.12,293.03,839.67,294.65z M563.31,655.46
			c11.73-8.07,23.03-21.92,29.12-34.52c6.44-13.34,12.92-27.6,18.01-41.79c0.01-0.38,0.02-0.58,0.03-0.96
			c-9.61-3.16-19.18-5.95-28.69-8.37c-9.51-2.42-19.16-4.03-28.87-4.73c-10.7-0.77-21.5,0.58-32.22,3.96
			c-10.72,3.38-19.78,9.29-26.96,17.69c-6.58,7.7-10.59,16.86-12.08,27.28c-1.49,10.42,0.48,19.95,5.83,28.48
			c3.98,6.34,9.04,11.33,15.08,14.96c6.04,3.63,12.64,6,19.76,7.11c7.13,1.11,14.27,0.89,21.41-0.67
			C550.88,662.35,557.4,659.54,563.31,655.46z"/>
		<path class="st30" d="M816.33,488.57c-2.03,2.84-4.57,5.19-7.6,7.04c-3.03,1.85-6.26,3.16-9.67,3.93
			c-3.41,0.76-6.9,0.95-10.48,0.56c-3.59-0.39-6.92-1.62-10.02-3.68c-6.43-3.95-10.32-9.38-11.63-16.34
			c-1.31-6.96,0.19-13.36,4.22-19.1c3.96-5.65,9.64-9.6,17.07-11.41c7.43-1.81,14.71-0.7,21.34,3.41
			c6.31,3.91,10.12,9.59,11.35,16.6C822.15,476.59,820.59,482.92,816.33,488.57z"/>
		<g>
			<path class="st30" d="M466.18,508.98c-2.71,3.33-6.38,6.14-11.02,8.45c-4.65,2.3-9.04,4.13-13.17,5.48
				c-6.59,2.11-13.36,3.59-20.34,4.44s-14.02,1.45-21.16,1.81c-7.12,0.35-14.31,0.52-21.56,0.49c-7.25-0.03-14.2,0.07-20.82,0.32
				c-3.69,0.21-7.2,0.32-10.54,0.35c-3.34,0.03-6.83,0.25-10.47,0.64L292,534.6c-11.7,1.19-23.89,3.16-36.56,5.93
				c-12.69,2.77-24.13,6.65-34.36,11.69c-10.23,5.03-18.35,11.4-24.38,19.13c-6.02,7.74-8.23,17.16-6.64,28.28
				c15.97-19.72,37.38-23.85,42.06-25.63c4.67-1.79,9.6-2.96,14.78-3.5c5.95-0.72,11.89-1.23,17.82-1.53
				c5.95-0.3,18.1-0.65,18.1-0.65l40.79,0.49c0,0,19.89-0.06,29.85-0.33c9.97-0.27,19.87-0.99,29.69-2.17
				c6.44-0.83,13-1.95,19.67-3.35c6.66-1.41,13.2-3.2,19.63-5.38c6.43-2.18,12.44-4.8,18.06-7.84c5.61-3.05,10.59-6.62,14.94-10.73
				c1.88-1.68,3.76-3.83,5.63-6.44c1.87-2.61,3.49-5.33,4.89-8.15c1.39-2.83,2.21-5.57,2.45-8.23
				C468.67,513.49,467.93,511.1,466.18,508.98z"/>
		</g>
	</g>
</g>
<g id="Layer_2">
	<g>
		<g>
			
				<linearGradient id="SVGID_00000073711034634377932430000010160982494716837046_" gradientUnits="userSpaceOnUse" x1="1169" y1="-660.4052" x2="1395.9973" y2="-660.4052">
				<stop  offset="0" style="stop-color:#F8FB00"/>
				<stop  offset="1" style="stop-color:#0D8600"/>
			</linearGradient>
			<path style="fill:url(#SVGID_00000073711034634377932430000010160982494716837046_);" d="M1252.41-649.86
				c-3.46,0.32-6.99,0.4-10.59,0.24c-3.61-0.16-7.14-0.55-10.59-1.18c-5.65,17.58-7.3,32.01-4.94,43.31
				c2.35,11.3,7.69,19.15,16.01,23.54c8.31,4.4,19.06,5.18,32.25,2.35c13.18-2.82,27.93-9.42,44.25-19.77
				c13.18-9.1,25.02-20.16,35.55-33.19c10.51-13.02,19.38-26.13,26.6-39.31c3.45-1.25,6.66-1.8,9.65-1.65
				c2.98,0.16,4.78,3.22,5.41,9.18c-7.22,13.81-16.71,27.94-28.48,42.37c-11.77,14.44-24.71,27.78-38.84,40.02
				c-22.6,18.83-44.88,31.38-66.85,37.66c-21.97,6.27-40.8,4.39-56.5-5.65c-11.93-8.16-21.11-18.75-27.54-31.78
				c-6.43-13.02-9.33-26.6-8.71-40.72c0.31-13.18,2.75-26.44,7.3-39.78c4.55-13.34,10.59-26.13,18.13-38.37
				c7.53-12.24,16.32-23.46,26.36-33.66c10.04-10.2,20.87-18.43,32.48-24.72c11.61-6.27,25.02-11.14,40.25-14.59
				c15.22-3.45,29.42-3.45,42.61,0c6.59,1.57,12.08,4.32,16.48,8.24c4.39,3.93,7.6,8.47,9.65,13.65c2.04,5.18,2.9,10.75,2.59,16.71
				c-0.31,5.97-1.57,11.93-3.76,17.89c-5.34,14.12-13.89,26.05-25.66,35.78c-11.77,9.73-24.41,17.26-37.9,22.6
				C1282.54-654.4,1267.47-650.8,1252.41-649.86z M1292.9-740.25c-11.62,10.05-22.21,21.5-31.78,34.37
				c-9.58,12.87-17.65,26.36-24.24,40.49c4.71-1.25,10.04-2.98,16.01-5.18c9.42-3.45,18.52-7.61,27.31-12.48
				c8.78-4.86,16.79-10.75,24.01-17.65c6.27-5.65,12.08-12.24,17.42-19.77c5.33-7.53,7.69-15.84,7.06-24.95
				c0-5.02-1.57-7.84-4.71-8.47c-3.14-0.63-6.75-0.16-10.83,1.41c-4.08,1.57-8,3.61-11.77,6.12
				C1297.6-743.85,1294.78-741.81,1292.9-740.25z"/>
			
				<linearGradient id="SVGID_00000049944485418958209910000000197280563452548796_" gradientUnits="userSpaceOnUse" x1="1320.0334" y1="-669.2582" x2="1732.5981" y2="-669.2582">
				<stop  offset="0" style="stop-color:#F8FB00"/>
				<stop  offset="1" style="stop-color:#0D8600"/>
			</linearGradient>
			<path style="fill:url(#SVGID_00000049944485418958209910000000197280563452548796_);" d="M1717.53-673.87
				c3.77-0.94,7.06-1.1,9.89-0.47c2.82,0.63,4.55,3.3,5.18,8c-8.79,16.64-18.68,32.33-29.66,47.08
				c-10.99,14.76-23.23,28.09-36.72,40.02c-5.96,5.34-12.79,10.28-20.48,14.83c-7.7,4.55-15.54,7.77-23.54,9.65
				c-8,1.88-15.93,1.8-23.77-0.23c-7.85-2.04-14.75-7.14-20.71-15.3c-5.34-6.59-8.47-14.04-9.41-22.36
				c-0.94-8.31-0.71-16.87,0.7-25.66c1.41-8.78,3.61-17.34,6.59-25.66c2.98-8.31,6.04-16.08,9.18-23.3
				c5.33-12.86,11.54-25.19,18.6-36.95c7.06-11.77,13.73-23.93,20.01-36.48c-9.11,7.22-18.76,15.7-28.95,25.42
				c-10.2,9.73-19.06,18.99-26.6,27.77c-9.42,10.99-18.36,22.05-26.83,33.19c-8.47,11.14-16.79,22.68-24.95,34.6
				c-7.22,10.36-13.34,19.62-18.36,27.78c-5.02,8.16-9.42,15.06-13.18,20.71c-3.77,5.65-6.99,9.89-9.65,12.71
				c-2.67,2.82-5.26,4.24-7.77,4.24c-3.14-0.31-6.75-1.18-10.83-2.59c-4.08-1.41-7.93-3.13-11.54-5.18
				c-3.61-2.04-6.59-4.63-8.94-7.77c-2.35-3.13-3.22-6.9-2.59-11.3c0.31-1.25,1.02-3.37,2.12-6.36c1.09-2.98,2.35-6.19,3.76-9.65
				c1.41-3.45,2.82-6.83,4.24-10.12c1.41-3.3,2.43-5.88,3.06-7.77c8.47-18.83,17.49-37.97,27.07-57.43
				c9.57-19.46,20.01-40.17,31.31-62.14c-12.87,11.93-25.35,24.56-37.43,37.9c-12.09,13.34-23.62,26.92-34.6,40.72
				c-7.22,8.79-14.21,17.58-20.95,26.36c-6.75,8.79-13.42,17.73-20.01,26.83c-1.26,1.57-3.3,4.4-6.12,8.48
				c-2.82,4.08-5.88,8.32-9.18,12.71c-3.3,4.4-6.52,8.64-9.65,12.71c-3.14,4.08-5.65,6.91-7.53,8.47c-2.82,2.2-6.51,2.75-11.06,1.65
				c-4.54-1.09-9.02-3.21-13.42-6.36c-4.39-3.13-8.08-6.75-11.06-10.83c-2.98-4.07-4.16-8-3.53-11.77
				c1.26-7.53,4.24-17.02,8.95-28.48c4.71-11.45,10.2-23.54,16.48-36.25c6.28-12.71,13.1-25.5,20.48-38.37
				c7.37-12.87,14.51-24.79,21.42-35.78l28.72-47.08c2.82-5.02,7.22-8.55,13.18-10.59c5.96-2.04,12.55-0.39,19.78,4.94
				c7.21,5.65,11.77,10.2,13.65,13.65c1.89,3.46,1.25,8-1.88,13.65c-3.46,6.28-7.61,13.26-12.48,20.95
				c-4.87,7.69-9.73,15.38-14.59,23.07c-4.87,7.69-9.5,15.15-13.89,22.36c-4.4,7.22-8,13.34-10.83,18.36
				c4.39-5.33,10.19-12.16,17.42-20.48c7.22-8.31,14.75-16.79,22.6-25.42c7.84-8.63,15.54-16.87,23.07-24.72
				c7.53-7.84,13.96-13.96,19.3-18.36c1.88-1.88,4.31-4,7.3-6.36c2.98-2.35,6.19-4.63,9.65-6.83c3.45-2.19,7.13-4.08,11.06-5.65
				c3.92-1.57,8.08-2.19,12.48-1.88c4.07,0.32,8.39,1.49,12.95,3.53c4.54,2.04,8.71,4.55,12.48,7.53c3.76,2.99,6.83,6.05,9.18,9.18
				c2.35,3.14,3.37,5.81,3.06,8c-0.64,3.46-2.2,7.3-4.71,11.53c-2.51,4.24-4.55,8.08-6.12,11.53l-11.3,23.07
				c19.14-23.54,40.64-43.47,64.5-59.79c12.24-8.47,22.28-13.34,30.13-14.59c7.84-1.25,15.69,0,23.54,3.77
				c8.16,3.77,14.59,8,19.3,12.71c4.71,4.71,6.74,8.17,6.12,10.36c-0.63,3.14-1.73,6.28-3.29,9.42c-1.57,3.14-3.14,6.12-4.71,8.94
				l-20.25,38.13c-6.59,12.87-13.26,25.66-20.01,38.37c-6.75,12.71-12.48,25.97-17.18,39.78c-3.46,9.73-2.44,16.24,3.06,19.54
				c5.49,3.3,14.83,1.34,28.01-5.88c12.86-7.22,24.08-17.02,33.66-29.42C1700.03-643.66,1709.06-657.86,1717.53-673.87z"/>
			
				<linearGradient id="SVGID_00000150092484033131735570000002758269154776573358_" gradientUnits="userSpaceOnUse" x1="1671.4902" y1="-711.8209" x2="1837.1061" y2="-711.8209">
				<stop  offset="0" style="stop-color:#F8FB00"/>
				<stop  offset="1" style="stop-color:#0D8600"/>
			</linearGradient>
			<path style="fill:url(#SVGID_00000150092484033131735570000002758269154776573358_);" d="M1836.17-855.12
				c1.25,4.4,1.25,8.09,0,11.06c-1.26,2.99-2.82,6.36-4.71,10.12l-5.65,11.3c-3.65,7.65-22.6,48.49-22.6,48.49l-10.83,22.6
				l-40.01,80.5c-1.26,2.52-3.61,7.14-7.06,13.89c-3.46,6.75-7.06,14.2-10.83,22.36c-7.53,16.64-11.23,28.95-11.06,36.95
				c0.16,8,2.9,12.48,8.24,13.42c5.33,0.94,12.55-1.49,21.65-7.3c9.1-5.8,18.83-14.36,29.19-25.66
				c7.22-8.16,13.81-16.71,19.77-25.66c5.96-8.95,11.92-19.22,17.89-30.84c9.42-5.02,14.59-2.51,15.54,7.53
				c-5.02,9.41-10.36,18.83-16,28.25c-5.65,9.41-11.85,18.52-18.6,27.31c-6.75,8.79-13.88,17.18-21.42,25.19
				c-7.53,8-15.7,14.99-24.48,20.95c-7.22,5.34-15.77,9.11-25.66,11.3s-19.54,2.04-28.95-0.47c-6.9-1.57-12.71-5.02-17.42-10.36
				c-4.71-5.33-7.84-11.45-9.41-18.36c-1.89-7.22-2.59-14.59-2.12-22.13c0.47-7.53,1.73-15.07,3.77-22.6
				c2.04-7.53,4.47-14.83,7.3-21.89c2.82-7.06,5.65-13.89,8.47-20.48c7.22-16.95,15.3-33.34,24.24-49.2
				c8.95-15.84,27.07-47.78,27.07-47.78l31.07-55.55l13.65-25.89c2.19-3.77,4.15-7.61,5.88-11.53c1.72-3.92,4.31-7.3,7.77-10.12
				c2.51-1.88,5.73-2.51,9.65-1.88c3.92,0.63,7.69,1.81,11.3,3.53c3.61,1.73,6.75,3.85,9.42,6.36
				C1833.89-859.19,1835.53-857,1836.17-855.12z"/>
			
				<linearGradient id="SVGID_00000183211621555671445660000003904069626609683602_" gradientUnits="userSpaceOnUse" x1="1691.6082" y1="-565.3171" x2="2028.239" y2="-565.3171">
				<stop  offset="0" style="stop-color:#F8FB00"/>
				<stop  offset="1" style="stop-color:#0D8600"/>
			</linearGradient>
			<path style="fill:url(#SVGID_00000183211621555671445660000003904069626609683602_);" d="M2028.24-767.55
				c-5.96,11.3-11.61,21.66-16.95,31.07c-4.4,8.16-8.71,16.09-12.95,23.77c-4.24,7.69-7.14,12.95-8.71,15.77
				c-15.07,28.56-28.56,57.83-40.49,87.8c-11.93,29.98-24.01,60.81-36.25,92.51l21.18,6.59c5.65,1.88,11.84,3.53,18.59,4.94
				c6.75,1.41,13.26,2.43,19.54,3.06c6.59,0.63,12.4,0,17.42-1.88c5.02-1.88,9.72-4.55,14.12-8c-2.82,10.04-7.46,19.14-13.89,27.31
				c-6.44,8.16-14.21,14.75-23.3,19.77c-9.41,5.02-19.15,7.84-29.19,8.47c-10.05,0.63-20.24,0.16-30.6-1.41l-16.01-3.29
				c-5.34,13.18-11.46,25.81-18.36,37.9c-6.91,12.08-15.38,23.14-25.42,33.19c-10.05,9.42-21.18,17.18-33.43,23.3
				c-12.24,6.12-25.42,9.18-39.54,9.18c-14.75,0-28.56-3.77-41.43-11.3c-12.86-7.53-22.9-17.73-30.13-30.6
				c-6.9-11.93-10.51-24.8-10.83-38.6c-0.31-13.82,2.04-27.07,7.06-39.78c5.02-12.71,12.24-24.09,21.66-34.13
				c9.41-10.05,20.56-17.42,33.42-22.13c16.32-5.97,33.74-8.17,52.26-6.59c18.52,1.57,36.09,4.39,52.72,8.47h0.47
				c4.07-12.24,8.31-24.4,12.71-36.49c4.39-12.08,8.94-24.08,13.65-36.01l-5.65,8c-4.08,5.97-8.55,12.24-13.42,18.83
				c-4.87,6.59-10.2,12.24-16.01,16.95c-5.81,4.71-12.16,7.84-19.06,9.42c-6.91,1.57-14.6,0.31-23.07-3.77
				c-14.43-6.59-23.46-16.31-27.07-29.19c-3.61-12.87-4-27.31-1.18-43.31c3.46-17.89,9.42-34.91,17.89-51.08
				c8.47-16.16,17.89-31.78,28.25-46.84c4.39-6.59,9.96-13.81,16.71-21.66c6.75-7.84,13.73-13.65,20.95-17.42
				c5.02-2.51,11.69-3.53,20.01-3.06c8.31,0.47,17.34,3.85,27.07,10.12c-5.65,7.53-12.71,17.89-21.18,31.07
				c-8.48,13.18-16.87,27.07-25.19,41.66c-8.32,14.59-15.62,29.11-21.89,43.55c-6.28,14.44-9.89,26.68-10.83,36.72
				c-0.31,3.77,0.23,7.06,1.65,9.89c1.41,2.82,3.53,4.55,6.36,5.18c2.82,0.63,6.43-0.23,10.83-2.59c4.39-2.35,9.72-6.83,16.01-13.42
				c9.72-10.36,18.43-21.34,26.13-32.95c7.69-11.61,15.14-23.38,22.36-35.31c4.39-9.72,9.41-19.85,15.06-30.36
				c5.65-10.51,11.77-20.32,18.36-29.42c6.59-9.1,13.65-17.02,21.18-23.77c7.53-6.75,15.37-11.37,23.54-13.89
				c5.33-1.57,10.04-2.12,14.13-1.65c4.07,0.47,7.69,1.02,10.83,1.65C2021.8-770.06,2025.1-768.8,2028.24-767.55z M1796.62-398.94
				c11.92-9.11,21.02-20.56,27.3-34.37c6.28-13.81,16.28-42.27,16.28-42.27c-9.11-2.82-18.39-5.44-27.34-7.63
				c-8.95-2.2-17.96-3.61-27.07-4.24c-10.04-0.63-20.08,0.71-30.13,4c-10.04,3.29-18.52,9.02-25.42,17.18
				c-6.27,7.53-10.2,16.4-11.77,26.6c-1.56,10.2,0.16,19.54,5.18,28.01c3.77,6.27,8.55,11.22,14.36,14.83
				c5.81,3.61,12.17,5.96,19.07,7.06c6.91,1.09,13.81,0.86,20.71-0.71C1784.69-392.03,1790.97-394.86,1796.62-398.94z"/>
			
				<linearGradient id="SVGID_00000162323843749431098870000018175591444912758711_" gradientUnits="userSpaceOnUse" x1="1694.7266" y1="-811.5875" x2="2033" y2="-811.5875">
				<stop  offset="0" style="stop-color:#F8FB00"/>
				<stop  offset="1" style="stop-color:#0D8600"/>
			</linearGradient>
			<path style="fill:url(#SVGID_00000162323843749431098870000018175591444912758711_);" d="M1787.25-794.93
				c-30.26,0.57-33.5-0.88-51.08-2.96c-15.79-2.96-26.64-7.28-32.57-12.95c-5.92-5.67-8.88-10.48-8.88-14.43
				c0-1.97,0.49-3.94,1.48-5.92c10.85,6.92,25.41,10.36,43.67,10.36c12.2-0.14,43.79-4.58,63.66-7.4
				c33.55-6.41,60.94-10.73,82.16-12.95c21.21-2.22,41.2-3.33,59.96-3.33c16.29,0,29.48,0.62,39.6,1.85
				c10.11,1.24,17.14,2.85,21.09,4.81c4.93,2.48,9.37,5.68,13.32,9.62c3.45,3.46,6.54,7.53,9.26,12.22
				c2.71,4.7,4.07,10.49,4.07,17.39c0,1.98-0.5,5.81-1.48,11.47c-1,5.68-2.23,8.51-3.7,8.51c-1.48,0-4.57-1.11-9.25-3.33
				c-4.7-2.22-12.59-4.81-23.69-7.77c-11.11-2.96-26.16-5.55-45.16-7.77c-19-2.22-43.56-3.33-73.65-3.33
				C1859.3-800.85,1796.62-795.42,1787.25-794.93z"/>
		</g>
		<g>
			
				<linearGradient id="SVGID_00000092418721261324203890000008971068487998430337_" gradientUnits="userSpaceOnUse" x1="1230.3508" y1="-457.5446" x2="1230.3508" y2="-1140.5299">
				<stop  offset="0" style="stop-color:#F8FB00"/>
				<stop  offset="0.3566" style="stop-color:#9ACC00"/>
				<stop  offset="0.6687" style="stop-color:#4EA600"/>
				<stop  offset="0.8898" style="stop-color:#1F8F00"/>
				<stop  offset="1" style="stop-color:#0D8600"/>
			</linearGradient>
			<path style="fill:url(#SVGID_00000092418721261324203890000008971068487998430337_);" d="M1214.23-457.54h32.23
				c0.86,0,1.48-0.7,1.48-1.48v-8.49c0-0.78-0.62-1.48-1.48-1.48h-21.57v-10.51h17.75c0.78,0,1.48-0.62,1.48-1.48v-8.49
				c0-0.78-0.7-1.48-1.48-1.48h-17.75v-9.65h21.57c0.86,0,1.48-0.7,1.48-1.48v-8.49c0-0.78-0.62-1.48-1.48-1.48h-32.23
				c-0.86,0-1.48,0.7-1.48,1.48v51.54C1212.76-458.24,1213.38-457.54,1214.23-457.54z"/>
			
				<linearGradient id="SVGID_00000131348023043034765720000009294468108107357582_" gradientUnits="userSpaceOnUse" x1="1272.6312" y1="-399.6036" x2="1272.6312" y2="-1027.0748">
				<stop  offset="0" style="stop-color:#F8FB00"/>
				<stop  offset="0.3566" style="stop-color:#9ACC00"/>
				<stop  offset="0.6687" style="stop-color:#4EA600"/>
				<stop  offset="0.8898" style="stop-color:#1F8F00"/>
				<stop  offset="1" style="stop-color:#0D8600"/>
			</linearGradient>
			<path style="fill:url(#SVGID_00000131348023043034765720000009294468108107357582_);" d="M1290.3-512.04h-33.09
				c-0.78,0-1.48,0.7-1.48,1.48v8.49c0,0.78,0.7,1.48,1.48,1.48h16.97v0.16l-20.71,40.02v1.4c0,0.78,0.7,1.48,1.48,1.48h33.79
				c0.86,0,1.48-0.7,1.48-1.48v-8.49c0-0.78-0.62-1.48-1.48-1.48h-16.97v-0.16l20.01-40.41v-1.01
				C1291.78-511.34,1291.08-512.04,1290.3-512.04z"/>
			
				<linearGradient id="SVGID_00000039843759122286735100000011305137298323223461_" gradientUnits="userSpaceOnUse" x1="1345.2769" y1="-364.7091" x2="1345.2769" y2="-764.3376">
				<stop  offset="0" style="stop-color:#F8FB00"/>
				<stop  offset="0.3566" style="stop-color:#9ACC00"/>
				<stop  offset="0.6687" style="stop-color:#4EA600"/>
				<stop  offset="0.8898" style="stop-color:#1F8F00"/>
				<stop  offset="1" style="stop-color:#0D8600"/>
			</linearGradient>
			<path style="fill:url(#SVGID_00000039843759122286735100000011305137298323223461_);" d="M1347.3-457.62l13.08-25.23h0.16
				l3.5,24.06c0.08,0.62,0.78,1.25,1.48,1.25h9.19c0.93,0,1.63-0.7,1.48-1.71l-8.8-52.32c-0.08-0.7-0.78-1.25-1.4-1.25h-1.25
				c-0.39,0-1.09,0.31-1.32,0.78l-18.06,33.63h-0.16l-18.06-33.63c-0.23-0.47-0.93-0.78-1.32-0.78h-1.25c-0.62,0-1.32,0.54-1.4,1.25
				l-8.8,52.32c-0.16,1.01,0.54,1.71,1.48,1.71h9.19c0.78,0,1.4-0.62,1.48-1.25l3.43-24.06h0.16l13.16,25.23
				c0.23,0.47,0.86,0.86,1.32,0.86h1.4C1346.37-456.77,1347.07-457.15,1347.3-457.62z"/>
			
				<linearGradient id="SVGID_00000099633102681897802380000002708653287810504321_" gradientUnits="userSpaceOnUse" x1="1392.3086" y1="310.7312" x2="1392.3086" y2="-1643.2273">
				<stop  offset="0" style="stop-color:#F8FB00"/>
				<stop  offset="0.3566" style="stop-color:#9ACC00"/>
				<stop  offset="0.6687" style="stop-color:#4EA600"/>
				<stop  offset="0.8898" style="stop-color:#1F8F00"/>
				<stop  offset="1" style="stop-color:#0D8600"/>
			</linearGradient>
			<path style="fill:url(#SVGID_00000099633102681897802380000002708653287810504321_);" d="M1396.98-512.04h-9.34
				c-0.78,0-1.48,0.7-1.48,1.48v51.54c0,0.78,0.7,1.48,1.48,1.48h9.34c0.78,0,1.48-0.7,1.48-1.48v-51.54
				C1398.46-511.34,1397.76-512.04,1396.98-512.04z"/>
			
				<linearGradient id="SVGID_00000094581001947107708250000013361811648472891544_" gradientUnits="userSpaceOnUse" x1="1431.6238" y1="-226.4101" x2="1431.6238" y2="-747.0491">
				<stop  offset="0" style="stop-color:#F8FB00"/>
				<stop  offset="0.3566" style="stop-color:#9ACC00"/>
				<stop  offset="0.6687" style="stop-color:#4EA600"/>
				<stop  offset="0.8898" style="stop-color:#1F8F00"/>
				<stop  offset="1" style="stop-color:#0D8600"/>
			</linearGradient>
			<path style="fill:url(#SVGID_00000094581001947107708250000013361811648472891544_);" d="M1454.99-466.42l-6.07-6.46
				c-0.47-0.54-1.48-0.54-2.02-0.08c-2.8,2.41-6.77,3.74-10.43,3.74c-8.8,0-15.34-7.16-15.34-15.8c0-8.72,6.46-16.04,15.26-16.04
				c3.81,0,7.63,1.4,10.51,3.97c0.54,0.54,1.4,0.54,1.95,0l6.07-6.31c0.62-0.62,0.62-1.56-0.08-2.18
				c-5.29-4.83-11.06-7.24-18.84-7.24c-15.57,0-28.11,12.53-28.11,28.11s12.54,27.95,28.11,27.95c6.93,0,13.62-2.41,18.92-7.55
				C1455.45-464.86,1455.53-465.88,1454.99-466.42z"/>
			
				<linearGradient id="SVGID_00000148638571411154454150000008651958361626358168_" gradientUnits="userSpaceOnUse" x1="1487.6121" y1="-164.1268" x2="1487.6121" y2="-678.6473">
				<stop  offset="0" style="stop-color:#F8FB00"/>
				<stop  offset="0.3566" style="stop-color:#9ACC00"/>
				<stop  offset="0.6687" style="stop-color:#4EA600"/>
				<stop  offset="0.8898" style="stop-color:#1F8F00"/>
				<stop  offset="1" style="stop-color:#0D8600"/>
			</linearGradient>
			<path style="fill:url(#SVGID_00000148638571411154454150000008651958361626358168_);" d="M1509.49-512.04h-9.26
				c-0.86,0-1.48,0.7-1.48,1.48v19.62h-22.27v-19.62c0-0.78-0.62-1.48-1.48-1.48h-9.27c-0.78,0-1.48,0.7-1.48,1.48v51.54
				c0,0.78,0.7,1.48,1.48,1.48h9.27c0.86,0,1.48-0.7,1.48-1.48v-20.48h22.27v20.48c0,0.78,0.62,1.48,1.48,1.48h9.26
				c0.78,0,1.48-0.7,1.48-1.48v-51.54C1510.97-511.34,1510.27-512.04,1509.49-512.04z"/>
			
				<linearGradient id="SVGID_00000171716964823912215650000017339336197694339509_" gradientUnits="userSpaceOnUse" x1="1543.4408" y1="-136.8412" x2="1543.4408" y2="-601.4049">
				<stop  offset="0" style="stop-color:#F8FB00"/>
				<stop  offset="0.3566" style="stop-color:#9ACC00"/>
				<stop  offset="0.6687" style="stop-color:#4EA600"/>
				<stop  offset="0.8898" style="stop-color:#1F8F00"/>
				<stop  offset="1" style="stop-color:#0D8600"/>
			</linearGradient>
			<path style="fill:url(#SVGID_00000171716964823912215650000017339336197694339509_);" d="M1541.73-511.96l-24.37,52.4
				c-0.47,1.01,0.16,2.02,1.32,2.02h8.56c1.56,0,2.41-0.93,2.8-1.87l2.8-6.23h21.18l2.8,6.15c0.7,1.48,1.32,1.95,2.72,1.95h8.64
				c1.17,0,1.79-1.01,1.32-2.02l-24.37-52.4c-0.23-0.47-0.78-0.86-1.32-0.86h-0.78C1542.51-512.82,1541.96-512.43,1541.73-511.96z
				 M1543.36-489.08h0.08l5.92,12.85h-11.83L1543.36-489.08z"/>
			
				<linearGradient id="SVGID_00000116237812238336838470000007694912395265027465_" gradientUnits="userSpaceOnUse" x1="1593.5073" y1="104.8624" x2="1593.5073" y2="-578.123">
				<stop  offset="0" style="stop-color:#F8FB00"/>
				<stop  offset="0.3566" style="stop-color:#9ACC00"/>
				<stop  offset="0.6687" style="stop-color:#4EA600"/>
				<stop  offset="0.8898" style="stop-color:#1F8F00"/>
				<stop  offset="1" style="stop-color:#0D8600"/>
			</linearGradient>
			<path style="fill:url(#SVGID_00000116237812238336838470000007694912395265027465_);" d="M1609.62-512.04h-32.23
				c-0.86,0-1.48,0.7-1.48,1.48v51.54c0,0.78,0.62,1.48,1.48,1.48h32.23c0.86,0,1.48-0.7,1.48-1.48v-8.49
				c0-0.78-0.62-1.48-1.48-1.48h-21.57v-10.51h17.75c0.78,0,1.48-0.62,1.48-1.48v-8.49c0-0.78-0.7-1.48-1.48-1.48h-17.75v-9.65
				h21.57c0.86,0,1.48-0.7,1.48-1.48v-8.49C1611.1-511.34,1610.48-512.04,1609.62-512.04z"/>
			
				<linearGradient id="SVGID_00000073679135832593428660000017261379892100094605_" gradientUnits="userSpaceOnUse" x1="1637.6554" y1="233.6239" x2="1637.6554" y2="-512.0431">
				<stop  offset="0" style="stop-color:#F8FB00"/>
				<stop  offset="0.3566" style="stop-color:#9ACC00"/>
				<stop  offset="0.6687" style="stop-color:#4EA600"/>
				<stop  offset="0.8898" style="stop-color:#1F8F00"/>
				<stop  offset="1" style="stop-color:#0D8600"/>
			</linearGradient>
			<path style="fill:url(#SVGID_00000073679135832593428660000017261379892100094605_);" d="M1652.29-468.99h-18.53v-41.57
				c0-0.78-0.7-1.48-1.48-1.48h-9.27c-0.86,0-1.48,0.7-1.48,1.48v51.54c0,0.78,0.62,1.48,1.48,1.48h29.28c0.86,0,1.48-0.7,1.48-1.48
				v-8.49C1653.77-468.29,1653.15-468.99,1652.29-468.99z"/>
		</g>
	</g>
</g>
</svg>
