<svg width="85" height="50" viewBox="0 0 85 50" fill="none" xmlns="http://www.w3.org/2000/svg">
<path d="M8.85015 21.5789C8.51379 21.61 8.17063 21.6178 7.82066 21.6023C7.46973 21.5867 7.12656 21.5488 6.79118 21.4875C6.24193 23.1965 6.08153 24.5993 6.31095 25.6978C6.5394 26.7963 7.05852 27.5594 7.86733 27.9862C8.67516 28.4139 9.7202 28.4898 11.0024 28.2147C12.2837 27.9405 13.7176 27.2989 15.3041 26.2928C16.5854 25.4081 17.7364 24.333 18.76 23.0663C19.7817 21.8006 20.644 20.5261 21.3459 19.2449C21.6812 19.1233 21.9933 19.0699 22.284 19.0844C22.5737 19.1 22.7486 19.3975 22.8099 19.9769C22.108 21.3194 21.1855 22.693 20.0413 24.0958C18.8971 25.4995 17.6391 26.7963 16.2655 27.9862C14.0685 29.8167 11.9026 31.0367 9.76686 31.6472C7.6311 32.2568 5.80058 32.074 4.27435 31.098C3.1146 30.3047 2.22219 29.2752 1.59711 28.0086C0.971061 26.7429 0.689144 25.4237 0.749416 24.0501C0.779552 22.7688 1.01675 21.4798 1.45907 20.183C1.90139 18.8861 2.48855 17.6428 3.22153 16.4529C3.95354 15.263 4.80804 14.1723 5.78406 13.1807C6.76007 12.1892 7.81289 11.3891 8.94152 10.7776C10.0702 10.1681 11.3738 9.69468 12.8543 9.3593C14.3339 9.02391 15.7143 9.02391 16.9966 9.3593C17.6372 9.51192 18.1709 9.77925 18.5986 10.1603C19.0254 10.5424 19.3374 10.9837 19.5367 11.4873C19.735 11.9908 19.8186 12.5323 19.7885 13.1117C19.7584 13.6921 19.6359 14.2715 19.423 14.8508C18.9039 16.2235 18.0727 17.3832 16.9285 18.3291C15.7843 19.275 14.5556 20.007 13.2442 20.5261C11.7801 21.1366 10.3151 21.4875 8.85112 21.5789H8.85015ZM12.7863 12.7919C11.6567 13.7689 10.6272 14.8819 9.69687 16.1331C8.76557 17.3842 7.98106 18.6956 7.34043 20.0692C7.7983 19.9477 8.31645 19.7795 8.89583 19.5657C9.81158 19.2303 10.6962 18.8259 11.5507 18.3524C12.4042 17.88 13.1829 17.3074 13.8848 16.6366C14.4943 16.0874 15.0591 15.4468 15.5782 14.7147C16.0964 13.9827 16.3258 13.1749 16.2646 12.2893C16.2646 11.8013 16.1119 11.5271 15.8067 11.4659C15.5014 11.4046 15.1505 11.4503 14.7539 11.603C14.3572 11.7556 13.9762 11.9539 13.6097 12.1979C13.2432 12.4429 12.969 12.6402 12.7863 12.7928V12.7919Z" fill="url(#paint0_linear_8_1176)"/>
<path d="M54.0657 19.2448C54.4322 19.1535 54.752 19.1379 55.0271 19.1992C55.3013 19.2604 55.4694 19.52 55.5307 19.9769C54.6762 21.5945 53.7148 23.1197 52.6474 24.5536C51.579 25.9885 50.3891 27.2843 49.0777 28.4441C48.4983 28.9632 47.8344 29.4434 47.0868 29.8857C46.3383 30.3281 45.5761 30.6411 44.7984 30.8238C44.0207 31.0066 43.2498 30.9988 42.4877 30.8015C41.7245 30.6032 41.0538 30.1074 40.4744 29.3141C39.9553 28.6735 39.651 27.9493 39.5596 27.1405C39.4682 26.3326 39.4906 25.5005 39.6277 24.646C39.7647 23.7925 39.9786 22.9603 40.2683 22.1515C40.558 21.3437 40.8555 20.5883 41.1607 19.8865C41.6789 18.6363 42.2825 17.4377 42.9689 16.2944C43.6552 15.1503 44.3036 13.9681 44.9141 12.7472C44.0285 13.449 43.0904 14.2734 42.0998 15.2183C41.1082 16.1642 40.2469 17.0644 39.5139 17.9179C38.5982 18.9863 37.7291 20.0614 36.9057 21.1444C36.0823 22.2273 35.2735 23.3492 34.4803 24.5079C33.7784 25.5151 33.1834 26.4153 32.6954 27.2085C32.2074 28.0018 31.7797 28.6725 31.4142 29.2218C31.0477 29.771 30.7347 30.1832 30.4761 30.4574C30.2165 30.7315 29.9647 30.8695 29.7207 30.8695C29.4155 30.8394 29.0645 30.7548 28.6679 30.6178C28.2713 30.4807 27.897 30.3135 27.5461 30.1142C27.1951 29.9159 26.9055 29.6641 26.677 29.3589C26.4486 29.0546 26.364 28.6881 26.4252 28.2603C26.4554 28.1388 26.5244 27.9327 26.6313 27.6421C26.7373 27.3524 26.8598 27.0403 26.9968 26.704C27.1339 26.3686 27.271 26.04 27.409 25.7202C27.5461 25.3994 27.6452 25.1486 27.7065 24.9648C28.5299 23.1343 29.4067 21.2737 30.338 19.3819C31.2684 17.4902 32.2833 15.4769 33.3818 13.3411C32.1306 14.5009 30.9174 15.7287 29.7431 17.0255C28.5678 18.3223 27.4469 19.6424 26.3795 20.984C25.6777 21.8385 24.9981 22.693 24.3429 23.5465C23.6867 24.401 23.0383 25.2701 22.3977 26.1547C22.2752 26.3073 22.0769 26.5825 21.8028 26.9791C21.5286 27.3757 21.2312 27.7879 20.9104 28.2147C20.5895 28.6424 20.2765 29.0546 19.9722 29.4502C19.667 29.8469 19.423 30.122 19.2402 30.2736C18.9661 30.4875 18.6074 30.541 18.1651 30.434C17.7237 30.3281 17.2882 30.122 16.8605 29.8158C16.4337 29.5115 16.075 29.1596 15.7853 28.7629C15.4956 28.3673 15.3809 27.9852 15.4421 27.6187C15.5646 26.8867 15.8543 25.9642 16.3122 24.8501C16.7701 23.737 17.3038 22.5617 17.9143 21.3262C18.5248 20.0906 19.1877 18.8472 19.9052 17.5961C20.6216 16.345 21.3157 15.1862 21.9875 14.1179L24.7794 9.54108C25.0536 9.05307 25.4813 8.70991 26.0607 8.5116C26.6401 8.31329 27.2807 8.47369 27.9835 8.99183C28.6844 9.54108 29.1277 9.9834 29.3105 10.3188C29.4942 10.6551 29.432 11.0965 29.1277 11.6457C28.7914 12.2562 28.3879 12.9348 27.9145 13.6823C27.4411 14.4299 26.9686 15.1775 26.4962 15.925C26.0228 16.6726 25.5727 17.3978 25.1459 18.0987C24.7182 18.8006 24.3682 19.3955 24.0931 19.8835C24.5199 19.3654 25.0837 18.7014 25.7865 17.8926C26.4884 17.0848 27.2204 16.2604 27.9835 15.4215C28.7457 14.5825 29.4942 13.7815 30.2262 13.0184C30.9582 12.2562 31.5833 11.6613 32.1024 11.2336C32.2852 11.0508 32.5214 10.8447 32.8121 10.6153C33.1018 10.3868 33.4138 10.1652 33.7502 9.95132C34.0856 9.73842 34.4433 9.55469 34.8254 9.40207C35.2064 9.24944 35.6108 9.18917 36.0386 9.21931C36.4342 9.25042 36.8542 9.36415 37.2975 9.56247C37.7388 9.76078 38.1442 10.0048 38.5107 10.2945C38.8762 10.5851 39.1747 10.8826 39.4031 11.1869C39.6316 11.4921 39.7307 11.7517 39.7006 11.9646C39.6384 12.3009 39.4867 12.6742 39.2427 13.0855C38.9987 13.4976 38.8004 13.8709 38.6478 14.2063L37.5493 16.449C39.4099 14.1606 41.5 12.2232 43.8195 10.6367C45.0094 9.81328 45.9854 9.33985 46.7485 9.21834C47.5106 9.09682 48.2738 9.21834 49.0369 9.58483C49.8301 9.95132 50.4552 10.3625 50.9131 10.8204C51.371 11.2783 51.5683 11.6146 51.508 11.8275C51.4468 12.1328 51.3399 12.438 51.1882 12.7433C51.0356 13.0485 50.8829 13.3382 50.7303 13.6123L48.7618 17.3191C48.1211 18.5702 47.4727 19.8135 46.8165 21.0491C46.1604 22.2847 45.6033 23.5737 45.1464 24.9162C44.8101 25.8621 44.9092 26.495 45.4439 26.8158C45.9776 27.1366 46.8856 26.946 48.1668 26.2442C49.417 25.5423 50.5077 24.5896 51.439 23.3842C52.3693 22.1797 53.2462 20.7983 54.0706 19.2419L54.0657 19.2448Z" fill="url(#paint1_linear_8_1176)"/>
<path d="M65.599 1.62505C65.7205 2.05278 65.7205 2.4115 65.599 2.70022C65.4765 2.99088 65.3249 3.31849 65.1411 3.68401L64.5919 4.78251C64.237 5.52619 62.3949 9.49635 62.3949 9.49635L61.3421 11.6934L57.4526 19.519C57.3301 19.764 57.1016 20.2131 56.7663 20.8693C56.4299 21.5254 56.0799 22.2497 55.7134 23.0429C54.9814 24.6606 54.6217 25.8572 54.6383 26.6349C54.6538 27.4126 54.9202 27.8482 55.4393 27.9395C55.9574 28.0309 56.6593 27.7947 57.544 27.2299C58.4286 26.6661 59.3745 25.8339 60.3816 24.7354C61.0835 23.9422 61.7241 23.111 62.3035 22.2409C62.8829 21.3709 63.4623 20.3725 64.0426 19.2429C64.9584 18.7549 65.461 18.9989 65.5533 19.9749C65.0653 20.8897 64.5462 21.8054 63.9979 22.7212C63.4487 23.6359 62.8459 24.5215 62.1897 25.376C61.5336 26.2305 60.8404 27.0462 60.1075 27.8248C59.3754 28.6025 58.5812 29.282 57.7277 29.8614C57.0258 30.3805 56.1946 30.747 55.2332 30.9599C54.2718 31.1728 53.3337 31.1582 52.4189 30.9142C51.7481 30.7616 51.1833 30.4262 50.7255 29.9071C50.2676 29.389 49.9633 28.794 49.8107 28.1223C49.627 27.4204 49.5589 26.704 49.6046 25.971C49.6503 25.239 49.7728 24.506 49.9711 23.774C50.1694 23.042 50.4056 22.3323 50.6807 21.646C50.9549 20.9597 51.23 20.2957 51.5041 19.6551C52.206 18.0073 52.9915 16.414 53.8606 14.8722C54.7306 13.3324 56.4921 10.2274 56.4921 10.2274L59.5125 4.82723L60.8395 2.3104C61.0524 1.9439 61.2429 1.57061 61.4111 1.18953C61.5783 0.80846 61.8301 0.479881 62.1664 0.205741C62.4104 0.0229817 62.7234 -0.0382623 63.1045 0.0229817C63.4856 0.0842257 63.8521 0.198937 64.203 0.366142C64.554 0.53432 64.8592 0.740411 65.1188 0.984415C65.3773 1.22939 65.5377 1.44229 65.599 1.62505Z" fill="url(#paint2_linear_8_1176)"/>
<path d="M84.2706 10.138C83.6912 11.2365 83.142 12.2436 82.6229 13.1584C82.1951 13.9516 81.7762 14.7225 81.364 15.4691C80.9518 16.2167 80.6699 16.728 80.5173 17.0021C79.0523 19.7785 77.7409 22.624 76.5811 25.5374C75.4214 28.4519 74.247 31.4489 73.0572 34.5306L75.1161 35.1712C75.6654 35.3539 76.2671 35.5143 76.9233 35.6514C77.5795 35.7885 78.2123 35.8876 78.8228 35.9489C79.4635 36.0101 80.0283 35.9489 80.5163 35.7661C81.0043 35.5834 81.4612 35.3238 81.8889 34.9884C81.6148 35.9644 81.1637 36.8491 80.5386 37.6433C79.9126 38.4366 79.1572 39.0772 78.2736 39.5652C77.3588 40.0532 76.412 40.3273 75.4359 40.3886C74.459 40.4498 73.4684 40.4041 72.4612 40.2515L70.9049 39.9317C70.3857 41.213 69.7908 42.4408 69.12 43.6161C68.4483 44.7904 67.6249 45.8656 66.6489 46.8425C65.6719 47.7583 64.5899 48.5126 63.3991 49.1076C62.2092 49.7025 60.9279 50 59.5553 50C58.1826 50 56.7789 49.6335 55.5278 48.9015C54.2776 48.1695 53.3016 47.1779 52.5988 45.9268C51.928 44.767 51.577 43.5159 51.5459 42.1744C51.5158 40.8309 51.7443 39.5428 52.2323 38.3073C52.7203 37.0717 53.4221 35.9654 54.3379 34.9894C55.2527 34.0124 56.3366 33.296 57.5867 32.8381C59.1732 32.2577 60.8667 32.0439 62.6671 32.1975C64.4674 32.3501 66.1755 32.6242 67.7921 33.0208H67.8378C68.2335 31.831 68.6456 30.6489 69.0734 29.4736C69.5001 28.2992 69.9425 27.1327 70.4003 25.9729L69.8511 26.7506C69.4544 27.331 69.0199 27.9405 68.5465 28.5811C68.0731 29.2218 67.5549 29.771 66.9901 30.2289C66.4253 30.6868 65.808 30.991 65.1372 31.1446C64.4655 31.2973 63.7179 31.1748 62.8945 30.7781C61.4918 30.1375 60.6139 29.1926 60.263 27.9405C59.9121 26.6894 59.8741 25.2856 60.1483 23.7302C60.4846 21.9911 61.064 20.3365 61.8874 18.7646C62.7108 17.1937 63.6266 15.6752 64.6337 14.2112C65.0604 13.5705 65.6019 12.8687 66.2581 12.1055C66.9143 11.3434 67.5928 10.7786 68.2947 10.4121C68.7827 10.1681 69.4311 10.0689 70.2399 10.1146C71.0478 10.1603 71.9256 10.4889 72.8715 11.0984C72.3222 11.8304 71.6359 12.8376 70.8125 14.1188C69.9881 15.4001 69.1725 16.7504 68.3637 18.1687C67.5549 19.587 66.8453 20.9986 66.2357 22.4023C65.6252 23.8061 65.2743 24.9959 65.1829 25.972C65.1528 26.3384 65.2053 26.6583 65.3433 26.9334C65.4804 27.2075 65.6865 27.3757 65.9616 27.437C66.2357 27.4982 66.5867 27.4146 67.0144 27.1852C67.4412 26.9567 67.9593 26.5212 68.5698 25.8806C69.5147 24.8735 70.3614 23.8061 71.11 22.6774C71.8575 21.5488 72.5818 20.4046 73.2837 19.2448C73.7104 18.2999 74.1984 17.3152 74.7477 16.2935C75.2969 15.2718 75.8919 14.3181 76.5325 13.4335C77.1731 12.5488 77.8595 11.7789 78.5915 11.1227C79.3235 10.4665 80.0856 10.0174 80.8799 9.77244C81.398 9.61982 81.8559 9.56635 82.2535 9.61204C82.6491 9.65773 83.001 9.7112 83.3063 9.77244C83.6417 9.89493 83.9625 10.0174 84.2677 10.1389L84.2706 10.138ZM61.7542 45.9725C62.913 45.0869 63.7976 43.9738 64.4081 42.6313C65.0186 41.2888 65.9908 38.5221 65.9908 38.5221C65.1052 38.248 64.203 37.9933 63.333 37.7804C62.4629 37.5665 61.587 37.4294 60.7014 37.3682C59.7254 37.307 58.7494 37.4372 57.7724 37.757C56.7964 38.0769 55.972 38.6339 55.3013 39.4272C54.6917 40.1592 54.3097 41.0214 54.1571 42.013C54.0054 43.0046 54.1726 43.9125 54.6606 44.7359C55.0271 45.3455 55.4918 45.8267 56.0566 46.1776C56.6214 46.5285 57.2397 46.757 57.9105 46.8639C58.5822 46.9699 59.253 46.9475 59.9237 46.7949C60.5955 46.6423 61.205 46.3672 61.7542 45.9705V45.9725Z" fill="url(#paint3_linear_8_1176)"/>
<path d="M60.8434 7.47529C57.9017 7.5307 57.5867 7.38974 55.8777 7.18754C54.3427 6.89979 53.288 6.47983 52.7115 5.92864C52.136 5.37744 51.8483 4.90985 51.8483 4.52586C51.8483 4.33435 51.8959 4.14284 51.9921 3.95036C53.0469 4.62307 54.4623 4.95748 56.2374 4.95748C57.4234 4.94387 60.4944 4.51225 62.426 4.23811C65.6875 3.61498 68.3501 3.19502 70.413 2.97921C72.4748 2.76339 74.4181 2.65549 76.2418 2.65549C77.8254 2.65549 79.1077 2.71576 80.0915 2.83533C81.0743 2.95587 81.7577 3.11239 82.1417 3.30292C82.6209 3.54401 83.0526 3.85509 83.4365 4.23811C83.7719 4.57446 84.0723 4.97012 84.3367 5.42605C84.6002 5.88295 84.7324 6.44581 84.7324 7.11657C84.7324 7.30906 84.6838 7.68138 84.5885 8.2316C84.4913 8.78377 84.3717 9.05888 84.2288 9.05888C84.0859 9.05888 83.7846 8.95098 83.3296 8.73517C82.8727 8.51935 82.1057 8.26757 81.0266 7.97982C79.9466 7.69207 78.4836 7.44029 76.6365 7.22448C74.7895 7.00867 72.4019 6.90076 69.4768 6.90076C67.8456 6.90076 61.7523 7.42863 60.8424 7.47626L60.8434 7.47529Z" fill="url(#paint4_linear_8_1176)"/>
<defs>
<linearGradient id="paint0_linear_8_1176" x1="0.741639" y1="20.5533" x2="22.8089" y2="20.5533" gradientUnits="userSpaceOnUse">
<stop stop-color="white"/>
<stop offset="1" stop-color="#D9D9D9"/>
</linearGradient>
<linearGradient id="paint1_linear_8_1176" x1="15.4265" y1="19.6924" x2="55.5289" y2="19.6924" gradientUnits="userSpaceOnUse">
<stop stop-color="white"/>
<stop offset="1" stop-color="#D9D9D9"/>
</linearGradient>
<linearGradient id="paint2_linear_8_1176" x1="49.591" y1="15.5546" x2="65.6894" y2="15.5546" gradientUnits="userSpaceOnUse">
<stop stop-color="white"/>
<stop offset="1" stop-color="#D9D9D9"/>
</linearGradient>
<linearGradient id="paint3_linear_8_1176" x1="51.5436" y1="29.7982" x2="84.2692" y2="29.7982" gradientUnits="userSpaceOnUse">
<stop stop-color="white"/>
<stop offset="1" stop-color="#D9D9D9"/>
</linearGradient>
<linearGradient id="paint4_linear_8_1176" x1="51.8485" y1="5.85719" x2="84.7309" y2="5.85719" gradientUnits="userSpaceOnUse">
<stop stop-color="white"/>
<stop offset="1" stop-color="#D9D9D9"/>
</linearGradient>
</defs>
</svg>
