<svg xmlns="http://www.w3.org/2000/svg" width="1440" height="79" viewBox="0 0 1440 79" fill="none">
  <path d="M0 79L1440 79.0001L1440 15.6477L1432.55 10.7152L1412.73 14.5516L1396.95 29.4589L1376.91 33.076L1358.73 38.5567L1339.34 26.9378L1321.71 31.5415L1303.31 39.9816L1285.89 27.3762L1267.49 33.4049L1249.64 34.7202L1231.67 33.9529L1216.23 42.8315L1198.38 41.7354L1182.71 51.3813L1164.09 38.7759L1147.55 44.4757L1127.84 44.5853L1110.42 35.8163L1096.51 22.0052L1078.44 16.0861L1059.71 10.8247L1040.21 10.0575L1020.61 13.017L1000.67 16.4149L980.957 8.96132L962.884 18.1687L942.402 14.1131L924.549 22.4437L906.805 30.3357L888.732 36.6932L870.44 43.0507L851.82 47.9832L830.571 40.6392L812.827 48.7505L795.85 54.9984L778.106 55.3272L761.238 61.7944L743.166 60.2598L725.75 62.6713L707.897 56.2041L690.81 58.3964L673.285 61.1367L654.994 53.135L634.292 48.6409L616.548 37.022L595.409 43.0507L577.008 25.7319L557.073 28.253L538.781 32.4183L521.476 27.2665L503.294 33.624L485.659 34.9394L468.134 32.1991L450.39 25.1839L432.318 19.4841L415.231 33.1856L396.939 25.7319L378.757 24.4166L361.999 33.9528L345.46 43.2699L325.963 33.624L307.891 33.624L295.733 56.0945L277.003 53.0253L259.15 44.1467L243.158 47.1063L223.662 53.9022L209.97 37.8988L194.198 28.5818L173.825 30.226L158.929 18.1687L138.009 22.7724L123.77 7.42667L105.807 3.69987L86.8579 6.33057L69.333 0.301913L51 6.33057L32 4.46713L13 9.5L5.50763e-06 16L0 79Z" fill="#044E9E"/>
</svg>