<svg width="95" height="60" viewBox="0 0 95 60" fill="none" xmlns="http://www.w3.org/2000/svg">
<g clip-path="url(#clip0_98_192)">
<path d="M12.3179 20.1049C11.8033 20.1891 11.2576 20.2678 10.7064 20.3015C10.1539 20.3352 9.61088 20.3366 9.07597 20.3043C8.55731 22.1319 8.33793 24.697 8.94868 26.5555C9.46463 28.126 10.376 29.1571 11.676 29.6558C12.9761 30.1545 14.5862 30.1011 16.5159 29.5252C18.8479 28.8284 24.1374 26.9559 26.0008 25.5033C27.9102 24.0171 29.2034 22.7978 30.7838 21.5742C33.0629 19.8099 33.9932 18.9431 35.3745 17.8123C36.2033 17.1422 38.3159 14.9143 38.7776 14.9157C39.2381 14.9157 40.6992 16.2319 40.832 17.0804C39.0593 19.0021 38.1967 19.5064 36.3699 21.2427C34.413 23.1026 30.1351 26.0807 27.9603 27.7692C25.0474 29.8258 18.6529 33.3096 15.0683 34.7382C12.3816 35.8086 9.33598 36.0643 6.66279 34.8183C4.94024 34.0162 3.12426 32.3951 2.06934 30.7979C0.933166 29.077 0.238462 27.1736 0.0691867 25.1788C-0.0892546 23.3189 0.0272065 21.3663 0.49576 19.3814C0.964313 17.3965 1.69964 15.4551 2.65165 13.5783C3.58604 11.7367 4.90774 9.83888 6.24028 8.31051C7.54979 6.80741 9.31702 5.28325 11.0084 4.25216C12.8623 3.12133 15.1739 2.1956 17.2106 1.58874C19.2203 0.988909 21.865 0.684076 23.9844 1.07741C25.046 1.23193 25.9439 1.56907 26.6724 2.08743C27.401 2.60578 27.9467 3.22669 28.3083 3.94873C28.6699 4.67078 28.8473 5.46166 28.8432 6.31575C28.8392 7.17125 28.6861 8.03658 28.3896 8.90753C27.7572 10.8756 26.1971 12.9883 24.7021 14.2723C23.0974 15.6518 21.0579 17.079 19.097 17.9359C16.9073 18.8939 14.6526 19.7228 12.3193 20.1063L12.3179 20.1049ZM17.4896 6.63603C15.8009 8.1602 14.1935 10.1044 12.9341 11.9854C11.7004 13.8284 10.5209 16.0086 9.73276 18.1326C10.4369 17.8783 11.2305 17.5468 12.1175 17.1436C13.5164 16.5073 14.8652 15.7852 16.1639 14.9705C17.4612 14.1571 18.6339 13.1822 19.6821 12.1385C20.5704 11.2535 21.4344 10.2449 22.1955 9.107C22.9565 7.97055 23.1949 6.71189 23.0662 5.46306C22.9958 4.77614 22.7439 4.35892 22.2442 4.30554C21.7432 4.25076 21.1757 4.36033 20.5488 4.63426C19.9204 4.90818 19.3218 5.24813 18.7571 5.65411C18.1911 6.06008 17.7686 6.3888 17.491 6.63744L17.4896 6.63603Z" fill="#191924"/>
<path d="M54.5323 7.60812C52.9547 8.40884 51.4583 9.29805 50.0472 10.2729C48.6348 11.2479 47.2792 12.2803 45.9846 13.3171C44.8945 14.1908 43.7231 15.1671 42.5179 16.253C41.3113 17.3389 40.0789 18.4416 38.8195 19.564C37.5601 20.685 36.3102 21.7695 35.067 22.8118C33.8239 23.8556 32.6295 24.7448 31.4825 25.4809C32.9355 25.1802 34.4956 24.8361 36.1639 24.4526C37.831 24.0705 39.5075 23.7769 41.188 23.5718C42.8659 23.3667 44.4693 23.3105 45.99 23.399C47.5094 23.4875 48.842 23.8232 49.9808 24.4006C51.7359 25.2898 52.8084 26.4066 53.2052 27.7313C53.602 29.0574 53.6534 30.4635 53.3718 31.9456C51.9769 31.718 50.2639 31.5663 48.2407 31.4946C46.0726 31.4174 43.8721 31.4356 41.7094 31.5171C39.3301 31.6056 36.9345 31.791 34.5633 32.013C32.2408 32.2307 29.8954 32.544 27.5864 32.9317C26.9892 33.0595 26.3785 33.1888 25.7583 33.3222C25.1381 33.4543 24.5219 33.5161 23.9193 33.5189C23.1799 33.5231 22.603 33.3573 22.2049 33.0047C21.8067 32.6535 21.4546 31.9919 21.1486 31.0254C20.8425 30.059 20.7762 29.3299 20.9522 28.8438C21.1283 28.3564 21.4005 28.0305 21.7661 27.8675C23.2259 27.1244 24.6221 26.2464 25.9587 25.235C27.2953 24.2236 28.6102 23.1869 29.8872 22.1249C30.9855 21.2118 32.146 20.2144 33.3716 19.144C34.5971 18.075 35.8538 16.975 37.1444 15.847C38.4349 14.719 39.6984 13.6107 40.9361 12.5192C42.1725 11.4291 43.348 10.4233 44.4598 9.50174C45.1355 8.94967 45.7422 8.46784 46.2771 8.05484C46.812 7.64324 47.4458 7.20777 48.1811 6.74982C47.2941 6.75825 46.3448 6.82708 45.3386 6.95632C44.3311 7.08555 43.3358 7.19653 42.3526 7.28784C41.3695 7.37915 40.4229 7.41708 39.5115 7.40022C38.6002 7.38336 37.7944 7.20917 37.0916 6.87484C35.5383 6.16825 34.6364 5.28465 34.3954 4.21563C34.1543 3.14661 34.2505 1.88233 34.6946 0.424193C35.0494 0.545002 35.7645 0.592764 36.8397 0.575907C37.9136 0.55905 39.1757 0.526741 40.6247 0.487407C42.0737 0.446669 43.6229 0.389074 45.2709 0.316027C46.919 0.242979 48.5061 0.192408 50.031 0.161504C51.5544 0.130599 52.9181 0.0968847 54.1179 0.0575515C55.3177 0.0182183 56.2061 -0.0098769 56.7437 0.00838495C57.6713 0.0406944 58.3891 0.478979 58.8265 1.24879C59.2652 2.02 59.7365 4.96999 59.1325 5.77211C58.8874 6.09801 57.5562 6.36772 56.7898 6.65148C56.0233 6.93524 55.2703 7.25553 54.531 7.61234L54.5323 7.60812Z" fill="#191924"/>
<path d="M94.9091 3.41067C93.8136 4.9264 92.7654 6.31851 91.8351 7.57999C91.0402 8.65744 90.2724 9.74753 89.5208 10.7856C88.7692 11.8238 88.2587 12.5346 87.9838 12.9167C85.3878 16.8106 82.9841 20.8114 80.8769 24.9681C78.7427 29.1753 76.706 33.5216 74.7058 37.8455C75.9246 38.2936 76.5313 38.5198 77.7447 38.9777C78.5518 39.3008 79.4388 39.5972 80.407 39.8711C81.3739 40.1437 82.3124 40.3642 83.217 40.5244C84.1649 40.6929 85.0167 40.6719 85.7683 40.4668C86.5185 40.2617 87.2349 39.9414 87.9174 39.5087C87.3839 40.9036 86.6025 42.1412 85.5801 43.2257C84.559 44.3102 83.3619 45.1713 82.0117 45.7725C80.6237 46.3906 79.1909 46.687 77.7487 46.6814C76.3065 46.6758 74.8507 46.5185 73.3801 46.2122C72.4728 45.9734 72.0191 45.8554 71.1091 45.6208C70.2573 47.4695 69.308 49.2367 68.2626 50.9238C67.2185 52.6109 65.9658 54.1955 64.5195 55.5398C63.1166 56.8448 61.4956 57.911 59.7798 58.7539C58.0654 59.5968 56.2386 60.0097 54.2845 59.9999C52.2437 59.9901 50.3357 59.4577 48.5373 58.3971C46.7403 57.3379 45.3197 55.884 44.2634 54.0831C43.2762 52.4002 42.702 50.567 42.6099 48.5919C42.5179 46.6154 42.8063 44.7077 43.4915 42.8703C44.1768 41.0329 45.1951 39.3809 46.5493 37.9227C47.9049 36.4632 49.5814 35.293 51.4244 34.7101C54.0462 33.8827 56.4187 33.6087 59.1312 33.8223C61.6676 34.0217 64.2717 34.6089 66.8664 35.2467C66.8935 35.2467 66.9084 35.2481 66.9354 35.2495C67.5949 33.5202 68.2856 31.8036 69.0087 30.1025C69.7305 28.4013 70.4821 26.7142 71.2662 25.0397C70.906 25.4822 70.7258 25.7028 70.367 26.1453C69.7183 26.9713 69.0128 27.8408 68.2517 28.7553C67.4907 29.6698 66.6687 30.4494 65.7857 31.0928C64.9014 31.7376 63.9481 32.1576 62.9216 32.3557C61.8938 32.5538 60.7616 32.3459 59.5158 31.7404C57.3924 30.7585 56.0599 29.3551 55.5331 27.5079C55.0063 25.662 54.8952 23.4931 55.399 21.3031C56.0016 18.6916 56.9103 16.3288 58.213 14.0166C59.4941 11.7423 61.1029 9.55367 62.7293 7.39456C63.4389 6.46742 64.3408 5.4574 65.439 4.36731C66.5359 3.27721 67.6748 2.47088 68.8354 1.99046C69.6357 1.65893 70.7109 1.5592 72.0286 1.68843C73.3449 1.81767 74.7573 2.37396 76.2496 3.35869C75.299 4.38557 74.11 5.8128 72.6948 7.62775C71.2418 9.49186 69.8429 11.4585 68.5293 13.4168C67.2374 15.3427 66.001 17.4386 64.9637 19.5317C63.9562 21.5658 63.3495 23.3147 63.1802 24.7419C63.1166 25.2771 63.1911 25.7533 63.3928 26.1635C63.5946 26.5737 63.9061 26.8294 64.3272 26.9319C64.7484 27.0345 65.2928 26.9277 65.9631 26.613C66.6321 26.2984 67.4541 25.6873 68.4359 24.7812C69.9567 23.3568 71.3434 21.8467 72.5919 20.2439C73.8391 18.641 75.2394 16.9876 76.2713 15.3792C77.0513 14.1627 77.8814 12.6273 78.8497 11.1804C79.8179 9.73348 80.862 8.39615 81.982 7.16839C83.1019 5.94204 84.2936 4.89269 85.5557 4.02314C86.8164 3.1536 88.1192 2.58748 89.4368 2.35148C90.2954 2.19836 91.0551 2.19274 91.6983 2.31917C92.3389 2.447 92.9483 2.55798 93.3951 2.71812C93.903 2.89934 94.4311 3.18169 94.9119 3.41067H94.9091ZM57.4845 54.0957C59.073 52.9621 60.6032 51.0165 61.4279 49.2465C62.3 47.3726 63.1775 45.3694 63.8668 43.376C63.8682 43.3226 63.8695 43.2945 63.8709 43.2412C62.5695 42.7973 61.2735 42.4053 59.9857 42.0654C58.6978 41.7254 57.391 41.4993 56.0761 41.4009C54.6271 41.2928 53.1646 41.4824 51.7129 41.9572C50.2612 42.432 49.0343 43.2622 48.062 44.4422C47.1709 45.5239 46.6279 46.8106 46.4261 48.2744C46.2243 49.7382 46.4911 51.0769 47.2156 52.2752C47.7546 53.1658 48.4398 53.8667 49.2577 54.3767C50.0756 54.8866 50.9694 55.2195 51.9336 55.3755C52.8992 55.5314 53.8661 55.5005 54.833 55.2813C55.8012 55.0622 56.6841 54.6675 57.4845 54.0943V54.0957Z" fill="#191924"/>
<path d="M91.7484 30.6518C91.4735 31.0508 91.1295 31.3809 90.7192 31.6408C90.3088 31.9007 89.8714 32.0847 89.4097 32.1929C88.9479 32.2996 88.4753 32.3263 87.9905 32.2715C87.5043 32.2167 87.0533 32.044 86.6335 31.7546C85.7628 31.1997 85.236 30.4369 85.0586 29.4592C84.8812 28.4815 85.0843 27.5825 85.6301 26.7761C86.1663 25.9824 86.9355 25.4276 87.9417 25.1733C88.9479 24.919 89.9337 25.075 90.8316 25.6523C91.6861 26.2016 92.202 26.9995 92.3686 27.9842C92.5352 28.9689 92.3239 29.8582 91.747 30.6518H91.7484Z" fill="#191924"/>
<path d="M44.3324 33.5188C43.9654 33.9866 43.4684 34.3813 42.8401 34.7058C42.2104 35.0289 41.6159 35.286 41.0566 35.4756C40.1642 35.772 39.2474 35.9799 38.3022 36.0993C37.3583 36.2187 36.4036 36.303 35.4367 36.3536C34.4725 36.4028 33.4988 36.4266 32.517 36.4224C31.5352 36.4182 30.5941 36.4323 29.6976 36.4674C29.1979 36.4969 28.7226 36.5123 28.2703 36.5166C27.8179 36.5208 27.3453 36.5517 26.8524 36.6065L20.7436 37.115C19.1592 37.2821 17.5084 37.5589 15.7927 37.948C14.0742 38.3371 12.525 38.8822 11.1396 39.5902C9.75428 40.2968 8.65467 41.1916 7.83808 42.2775C7.02286 43.3647 6.72358 44.688 6.9389 46.2501C9.10155 43.4799 12.0009 42.8998 12.6347 42.6497C13.2671 42.3983 13.9347 42.2339 14.6362 42.1581C15.4419 42.0569 16.2463 41.9853 17.0494 41.9431C17.8551 41.901 19.5005 41.8518 19.5005 41.8518L25.0242 41.9207C25.0242 41.9207 27.7177 41.9122 29.0665 41.8743C30.4167 41.8364 31.7573 41.7352 33.0871 41.5695C33.9592 41.4529 34.8476 41.2955 35.7509 41.0989C36.6527 40.9008 37.5384 40.6493 38.4091 40.3431C39.2799 40.0369 40.0938 39.6688 40.8548 39.2418C41.6145 38.8133 42.2889 38.3118 42.878 37.7345C43.1326 37.4985 43.3872 37.1965 43.6404 36.8298C43.8937 36.4632 44.113 36.0811 44.3026 35.6849C44.4909 35.2874 44.6019 34.9025 44.6344 34.5288C44.6669 34.1552 44.5653 33.8194 44.3297 33.5216L44.3324 33.5188Z" fill="#191924"/>
</g>
<defs>
<clipPath id="clip0_98_192">
<rect width="94.9091" height="60" fill="white"/>
</clipPath>
</defs>
</svg>
