<svg xmlns="http://www.w3.org/2000/svg" width="37" height="30" viewBox="0 0 37 30" fill="none">
  <path d="M31.0314 0H5.96859C2.67223 0 0 2.64815 0 5.91481V24.0852C0 27.3518 2.67223 30 5.96859 30H31.0314C34.3278 30 37 27.3518 37 24.0852V5.91481C37 2.64815 34.3278 0 31.0314 0Z" fill="white"/>
  <path d="M26.0666 5.97089L18.3187 12.0175L10.3937 5.97089V5.97252L10.4033 5.9807V14.4475L18.2294 20.6248L26.0666 14.686V5.97089Z" fill="#EA4335"/>
  <path d="M28.1004 4.50002L26.0657 5.9708V14.686L32.4682 9.77036V6.80914C32.4682 6.80914 31.6911 2.57983 28.1004 4.50002Z" fill="#FBBC05"/>
  <path d="M26.0657 14.686V25.9898H30.9729C30.9729 25.9898 32.3693 25.846 32.4698 24.2543V9.77036L26.0657 14.686Z" fill="#34A853"/>
  <path d="M10.4036 25.9998V14.4475L10.3937 14.4394L10.4036 25.9998Z" fill="#C5221F"/>
  <path d="M10.393 5.97222L8.36946 4.50961C4.77877 2.58942 4 6.81711 4 6.81711V9.77824L10.393 14.439V5.97222Z" fill="#C5221F"/>
  <path d="M10.3937 5.97275V14.4396L10.4036 14.4478V5.98093L10.3937 5.97275Z" fill="#C5221F"/>
  <path d="M4 9.78049V24.2644C4.09895 25.8578 5.49692 26 5.49692 26H10.4042L10.393 14.4396L4 9.78049Z" fill="#4285F4"/>
</svg>