<svg width="77" height="77" viewBox="0 0 77 77" fill="none" xmlns="http://www.w3.org/2000/svg">
<g clip-path="url(#clip0_69_176)">
<g filter="url(#filter0_d_69_176)">
<path d="M38.8079 72.1256C57.2202 72.1256 72.1464 57.1995 72.1464 38.7872C72.1464 20.3749 57.2202 5.44873 38.8079 5.44873C20.3956 5.44873 5.46948 20.3749 5.46948 38.7872C5.46948 57.1995 20.3956 72.1256 38.8079 72.1256Z" fill="black"/>
</g>
<path d="M38.8079 72.1256C57.2202 72.1256 72.1464 57.1995 72.1464 38.7872C72.1464 20.3749 57.2202 5.44873 38.8079 5.44873C20.3956 5.44873 5.46948 20.3749 5.46948 38.7872C5.46948 57.1995 20.3956 72.1256 38.8079 72.1256Z" stroke="#BABABA" stroke-opacity="0.5" stroke-width="2"/>
<path d="M38.8079 72.1256C57.2202 72.1256 72.1464 57.1995 72.1464 38.7872C72.1464 20.3749 57.2202 5.44873 38.8079 5.44873C20.3956 5.44873 5.46948 20.3749 5.46948 38.7872C5.46948 57.1995 20.3956 72.1256 38.8079 72.1256Z" fill="url(#paint0_linear_69_176)"/>
<g filter="url(#filter1_d_69_176)">
<path d="M7.85083 38.8074C7.85083 52.5149 16.7123 64.0923 29.0178 68.1971C30.5656 68.4685 31.1461 67.5392 31.1461 66.7266C31.1461 65.9902 31.1074 63.5511 31.1074 60.9567C23.3294 62.3884 21.3172 59.0582 20.698 57.3162C20.3498 56.4256 18.8406 53.6764 17.5249 52.9406C16.4414 52.3595 14.8936 50.9272 17.4862 50.8885C19.9241 50.8498 21.6654 53.134 22.2459 54.0634C25.032 58.7486 29.4821 57.4329 31.2622 56.6191C31.533 54.6057 32.3457 53.2495 33.2357 52.4756C26.3477 51.7017 19.1502 49.0298 19.1502 37.1816C19.1502 33.812 20.3498 31.0241 22.3233 28.8559C22.0137 28.082 20.9302 24.9065 22.6329 20.6463C22.6329 20.6463 25.2255 19.8337 31.1461 23.8218C33.6226 23.1253 36.254 22.7764 38.8853 22.7764C41.5167 22.7764 44.1481 23.1253 46.6246 23.8218C52.5452 19.795 55.1378 20.6469 55.1378 20.6469C56.8405 24.9059 55.757 28.0808 55.4474 28.8553C57.4209 31.0235 58.6205 33.7727 58.6205 37.1804C58.6205 49.0679 51.3843 51.7005 44.4963 52.4756C45.6185 53.4436 46.5859 55.3022 46.5859 58.2062C46.5859 62.3497 46.5472 65.6794 46.5472 66.7254C46.5472 67.538 47.1277 68.5054 48.6755 68.1959C60.9036 64.0929 69.7651 52.4768 69.7651 38.808C69.7651 21.6917 55.9118 7.83008 38.808 7.83008C21.7041 7.83008 7.85083 21.6923 7.85083 38.8074Z" fill="black"/>
</g>
<path d="M7.85083 38.8074C7.85083 52.5149 16.7123 64.0923 29.0178 68.1971C30.5656 68.4685 31.1461 67.5392 31.1461 66.7266C31.1461 65.9902 31.1074 63.5511 31.1074 60.9567C23.3294 62.3884 21.3172 59.0582 20.698 57.3162C20.3498 56.4256 18.8406 53.6764 17.5249 52.9406C16.4414 52.3595 14.8936 50.9272 17.4862 50.8885C19.9241 50.8498 21.6654 53.134 22.2459 54.0634C25.032 58.7486 29.4821 57.4329 31.2622 56.6191C31.533 54.6057 32.3457 53.2495 33.2357 52.4756C26.3477 51.7017 19.1502 49.0298 19.1502 37.1816C19.1502 33.812 20.3498 31.0241 22.3233 28.8559C22.0137 28.082 20.9302 24.9065 22.6329 20.6463C22.6329 20.6463 25.2255 19.8337 31.1461 23.8218C33.6226 23.1253 36.254 22.7764 38.8853 22.7764C41.5167 22.7764 44.1481 23.1253 46.6246 23.8218C52.5452 19.795 55.1378 20.6469 55.1378 20.6469C56.8405 24.9059 55.757 28.0808 55.4474 28.8553C57.4209 31.0235 58.6205 33.7727 58.6205 37.1804C58.6205 49.0679 51.3843 51.7005 44.4963 52.4756C45.6185 53.4436 46.5859 55.3022 46.5859 58.2062C46.5859 62.3497 46.5472 65.6794 46.5472 66.7254C46.5472 67.538 47.1277 68.5054 48.6755 68.1959C60.9036 64.0929 69.7651 52.4768 69.7651 38.808C69.7651 21.6917 55.9118 7.83008 38.808 7.83008C21.7041 7.83008 7.85083 21.6923 7.85083 38.8074Z" fill="url(#paint1_linear_69_176)"/>
<g filter="url(#filter2_i_69_176)">
<path d="M7.85083 38.8074C7.85083 52.5149 16.7123 64.0923 29.0178 68.1971C30.5656 68.4685 31.1461 67.5392 31.1461 66.7266C31.1461 65.9902 31.1074 63.5511 31.1074 60.9567C23.3294 62.3884 21.3172 59.0582 20.698 57.3162C20.3498 56.4256 18.8406 53.6764 17.5249 52.9406C16.4414 52.3595 14.8936 50.9272 17.4862 50.8885C19.9241 50.8498 21.6654 53.134 22.2459 54.0634C25.032 58.7486 29.4821 57.4329 31.2622 56.6191C31.533 54.6057 32.3457 53.2495 33.2357 52.4756C26.3477 51.7017 19.1502 49.0298 19.1502 37.1816C19.1502 33.812 20.3498 31.0241 22.3233 28.8559C22.0137 28.082 20.9302 24.9065 22.6329 20.6463C22.6329 20.6463 25.2255 19.8337 31.1461 23.8218C33.6226 23.1253 36.254 22.7764 38.8853 22.7764C41.5167 22.7764 44.1481 23.1253 46.6246 23.8218C52.5452 19.795 55.1378 20.6469 55.1378 20.6469C56.8405 24.9059 55.757 28.0808 55.4474 28.8553C57.4209 31.0235 58.6205 33.7727 58.6205 37.1804C58.6205 49.0679 51.3843 51.7005 44.4963 52.4756C45.6185 53.4436 46.5859 55.3022 46.5859 58.2062C46.5859 62.3497 46.5472 65.6794 46.5472 66.7254C46.5472 67.538 47.1277 68.5054 48.6755 68.1959C60.9036 64.0929 69.7651 52.4768 69.7651 38.808C69.7651 21.6917 55.9118 7.83008 38.808 7.83008C21.7041 7.83008 7.85083 21.6923 7.85083 38.8074Z" fill="black"/>
</g>
</g>
<defs>
<filter id="filter0_d_69_176" x="1.46948" y="3.44873" width="74.677" height="74.6768" filterUnits="userSpaceOnUse" color-interpolation-filters="sRGB">
<feFlood flood-opacity="0" result="BackgroundImageFix"/>
<feColorMatrix in="SourceAlpha" type="matrix" values="0 0 0 0 0 0 0 0 0 0 0 0 0 0 0 0 0 0 127 0" result="hardAlpha"/>
<feOffset dy="2"/>
<feGaussianBlur stdDeviation="2"/>
<feComposite in2="hardAlpha" operator="out"/>
<feColorMatrix type="matrix" values="0 0 0 0 0 0 0 0 0 0 0 0 0 0 0 0 0 0 0.240942 0"/>
<feBlend mode="normal" in2="BackgroundImageFix" result="effect1_dropShadow_69_176"/>
<feBlend mode="normal" in="SourceGraphic" in2="effect1_dropShadow_69_176" result="shape"/>
</filter>
<filter id="filter1_d_69_176" x="7.85083" y="7.83008" width="61.9143" height="61.4248" filterUnits="userSpaceOnUse" color-interpolation-filters="sRGB">
<feFlood flood-opacity="0" result="BackgroundImageFix"/>
<feColorMatrix in="SourceAlpha" type="matrix" values="0 0 0 0 0 0 0 0 0 0 0 0 0 0 0 0 0 0 127 0" result="hardAlpha"/>
<feOffset dy="1"/>
<feColorMatrix type="matrix" values="0 0 0 0 1 0 0 0 0 1 0 0 0 0 1 0 0 0 0.529297 0"/>
<feBlend mode="normal" in2="BackgroundImageFix" result="effect1_dropShadow_69_176"/>
<feBlend mode="normal" in="SourceGraphic" in2="effect1_dropShadow_69_176" result="shape"/>
</filter>
<filter id="filter2_i_69_176" x="7.85083" y="7.83008" width="61.9143" height="60.4248" filterUnits="userSpaceOnUse" color-interpolation-filters="sRGB">
<feFlood flood-opacity="0" result="BackgroundImageFix"/>
<feBlend mode="normal" in="SourceGraphic" in2="BackgroundImageFix" result="shape"/>
<feColorMatrix in="SourceAlpha" type="matrix" values="0 0 0 0 0 0 0 0 0 0 0 0 0 0 0 0 0 0 127 0" result="hardAlpha"/>
<feOffset/>
<feGaussianBlur stdDeviation="1"/>
<feComposite in2="hardAlpha" operator="arithmetic" k2="-1" k3="1"/>
<feColorMatrix type="matrix" values="0 0 0 0 0.258824 0 0 0 0 0.137255 0 0 0 0 0.431373 0 0 0 0.70355 0"/>
<feBlend mode="normal" in2="shape" result="effect1_innerShadow_69_176"/>
</filter>
<linearGradient id="paint0_linear_69_176" x1="3339.31" y1="5.44873" x2="3339.31" y2="6673.14" gradientUnits="userSpaceOnUse">
<stop stop-color="#FEFEFE"/>
<stop offset="1" stop-color="#E0E0E0"/>
</linearGradient>
<linearGradient id="paint1_linear_69_176" x1="3103.56" y1="6050.32" x2="3103.56" y2="7.83008" gradientUnits="userSpaceOnUse">
<stop stop-color="#492779"/>
<stop offset="1" stop-color="#892793"/>
</linearGradient>
<clipPath id="clip0_69_176">
<rect width="76.2021" height="76.2021" fill="white" transform="translate(0.706787 0.686035)"/>
</clipPath>
</defs>
</svg>
