<svg width="62" height="71" viewBox="0 0 62 71" fill="none" xmlns="http://www.w3.org/2000/svg">
<g clip-path="url(#clip0_69_169)">
<path d="M5.45311 63.2083L0.334961 0.657715L61.459 0.783413L56.047 63.2083L31.1277 70.4239L5.45311 63.2083Z" fill="#E9CA32"/>
<path d="M31.1274 64.3833V6.61523L56.2987 6.69903L51.81 58.3838L31.1274 64.3833Z" fill="#FFDE25"/>
<path d="M28.4321 13.4741H21.7775V51.9231L16.6016 50.9372V45.7614L10.4399 44.7755V56.3595L28.4321 61.0424V13.4741ZM33.424 13.4741H51.8465L50.6142 20.8435H40.4568V32.9367H50.6142L49.3818 57.3454L33.424 61.0424V53.4019L44.206 49.7049L44.8286 39.5997L33.424 41.251V13.4741Z" fill="white"/>
</g>
<defs>
<clipPath id="clip0_69_169">
<rect width="61.124" height="70" fill="white" transform="translate(0.334961 0.541016)"/>
</clipPath>
</defs>
</svg>
