<svg width="104" height="71" viewBox="0 0 104 71" fill="none" xmlns="http://www.w3.org/2000/svg">
<g clip-path="url(#clip0_69_165)">
<path d="M42.2755 46.6283C40.6603 55.4134 38.5308 61.8048 35.8869 65.7756C33.8267 68.8448 31.57 70.3794 29.1126 70.3794C28.4569 70.3794 27.6501 70.1816 26.6906 69.7888V67.6691C27.1583 67.7398 27.708 67.7751 28.3396 67.7751C29.4857 67.7751 30.4098 67.4586 31.1135 66.8241C31.9557 66.0512 32.3768 65.1835 32.3768 64.2212C32.3768 63.5641 32.0476 62.2146 31.3933 60.1741L27.041 46.6226H30.9369L34.0598 56.7587C34.7621 59.0592 35.0546 60.6659 34.9373 61.5816C36.6472 57.006 37.8398 52.0206 38.5181 46.6311H42.2741M25.0768 64.1534H21.1117C20.9718 57.4412 20.586 51.1318 19.953 45.218H19.9205L13.8824 64.1534H10.8612L4.85982 45.218H4.8245C4.37937 50.8958 4.09958 57.2052 3.9823 64.1534H0.366211C0.59937 55.706 1.1858 47.7898 2.11985 40.3994H7.03456L12.7561 57.851H12.7915L18.5484 40.3994H23.2511C24.2799 49.056 24.8889 56.9749 25.074 64.1534" fill="#00758F"/>
<path d="M95.0685 64.1506H83.802V40.3966H87.5933V61.2255H95.0685V64.1478M66.7362 59.3956C65.7753 57.8468 65.2962 55.3626 65.2962 51.9359C65.2962 45.9543 67.1106 42.9614 70.7366 42.9614C72.633 42.9614 74.0249 43.6778 74.9137 45.1079C75.8718 46.6566 76.3522 49.121 76.3522 52.4997C76.3522 58.5293 74.5378 61.5463 70.9118 61.5463C69.0169 61.5463 67.6236 60.8312 66.7362 59.3984M80.8458 64.7229L76.4907 62.5693C76.8779 62.25 77.2467 61.9052 77.5788 61.5095C79.4299 59.3291 80.3541 56.1031 80.3541 51.8313C80.3541 43.9717 77.2764 40.0405 71.1224 40.0405C68.104 40.0405 65.7513 41.0368 64.0669 43.0334C62.2157 45.2152 61.293 48.4314 61.293 52.6763C61.293 56.852 62.1126 59.9156 63.7489 61.8614C65.2411 63.6207 67.4978 64.501 70.5204 64.501C71.6481 64.501 72.6824 64.3626 73.6221 64.0842L79.2928 67.3936L80.8388 64.7229M59.6425 57.5656C59.6425 59.5807 58.9049 61.234 57.4324 62.5284C55.96 63.8157 53.9803 64.4629 51.5031 64.4629C49.1857 64.4629 46.9388 63.7182 44.7627 62.2443L45.7815 60.2038C47.6539 61.1421 49.3482 61.6099 50.8686 61.6099C52.2959 61.6099 53.4122 61.2919 54.2205 60.6631C55.0259 60.0286 55.5106 59.1454 55.5106 58.0249C55.5106 56.6146 54.5285 55.4092 52.7297 54.3975C51.0626 53.4674 49.4017 52.5262 47.7471 51.5741C45.9483 50.2571 45.0453 48.8455 45.0453 46.5195C45.0453 44.5949 45.7179 43.0391 47.0618 41.8563C48.4085 40.6694 50.1466 40.0759 52.2747 40.0759C54.4748 40.0759 56.4743 40.6651 58.276 41.8394L57.3604 43.8785C55.8201 43.2228 54.2996 42.8935 52.8003 42.8935C51.5851 42.8935 50.6468 43.1875 49.9939 43.7753C49.3369 44.3589 48.9313 45.1107 48.9313 46.0264C48.9313 47.4338 49.9346 48.6547 51.7843 49.6862C53.4659 50.6005 56.87 52.5463 56.87 52.5463C58.7212 53.8605 59.6439 55.2609 59.6439 57.5684M97.7675 64.1506H98.3964V61.7342H99.2174V61.2396H96.914V61.7342H97.7675V64.1506ZM102.548 64.1506H103.14V61.2396H102.25L101.525 63.2236L100.735 61.2396H99.8773V64.1506H100.438V61.9349H100.469L101.296 64.1506H101.723L102.548 61.9349V64.1506Z" fill="#F29111"/>
<path d="M63.5564 0.393452C62.5545 0.379321 61.6812 0.756614 61.2304 1.86589C60.4575 3.73257 62.375 5.56817 63.0349 6.51635C63.521 7.17626 64.1513 7.92378 64.4932 8.66848C64.6939 9.15599 64.7518 9.6746 64.9525 10.1904C65.4103 11.4537 65.8385 12.8597 66.4405 14.0382C66.7542 14.6416 67.0976 15.2732 67.4989 15.8159C67.7292 16.1338 68.1291 16.2751 68.2153 16.7937C67.8154 17.366 67.7843 18.228 67.5568 18.9473C66.5253 22.1903 66.9266 26.2091 68.3863 28.5916C68.8441 29.308 69.9322 30.8878 71.3933 30.2844C72.6821 29.7687 72.3966 28.1323 72.7669 26.698C72.8531 26.3504 72.7951 26.1229 72.9675 25.8926V25.9519C73.3674 26.7546 73.7701 27.5275 74.1418 28.3344C75.0306 29.739 76.5751 31.203 77.8639 32.178C78.5492 32.6966 79.0932 33.5854 79.9524 33.9019V33.8143H79.8959C79.7235 33.5572 79.4663 33.4413 79.2374 33.242C78.7216 32.7248 78.1507 32.0932 77.7494 31.5181C76.5483 29.9128 75.487 28.1323 74.5445 26.2953C74.0853 25.4036 73.6854 24.4286 73.3123 23.5398C73.1413 23.1964 73.1413 22.6778 72.8545 22.5068C72.4235 23.1371 71.7947 23.6839 71.4809 24.4555C70.9369 25.6919 70.8804 27.2124 70.6783 28.7908C70.5653 28.8205 70.6218 28.7908 70.5653 28.8473C69.6496 28.6184 69.3345 27.6717 68.9897 26.869C68.1305 24.8299 67.9864 21.5558 68.7325 19.2044C68.9303 18.6025 69.7923 16.7089 69.4475 16.1338C69.2751 15.5855 68.7028 15.2718 68.3877 14.8408C67.9888 14.2616 67.6444 13.6466 67.359 13.0038C66.6722 11.3971 66.3274 9.61666 65.5841 8.00998C65.2408 7.26105 64.6374 6.48809 64.1527 5.79992C63.6072 5.02413 63.0081 4.47868 62.5771 3.56159C62.4358 3.24506 62.2351 2.72787 62.4641 2.38449C62.5192 2.15416 62.635 2.06796 62.8654 2.01002C63.2342 1.6949 64.2954 2.09481 64.6671 2.2672C65.7269 2.69678 66.6143 3.10092 67.5003 3.70148C67.9002 3.98975 68.3298 4.5352 68.8455 4.67934H69.4475C70.3632 4.88 71.3948 4.73586 72.2539 4.99446C73.7701 5.48197 75.1437 6.19982 76.3759 6.97419C80.1682 9.39903 83.2494 12.7865 85.3052 16.7909C85.65 17.4508 85.7941 18.0542 86.1078 18.741C86.7098 20.1512 87.4545 21.5855 88.055 22.9618C88.6556 24.3113 89.2293 25.6891 90.0899 26.8083C90.5166 27.4102 92.2349 27.7268 93.0079 28.0419C93.5802 28.2991 94.4676 28.5294 94.9834 28.8445C95.9584 29.4465 96.9278 30.1361 97.8449 30.7974C98.3027 31.1422 99.7328 31.8586 99.819 32.4337C97.5298 32.3772 95.7549 32.6061 94.2655 33.2392C93.8374 33.4102 93.1506 33.4102 93.0927 33.9556C93.323 34.1846 93.3499 34.5576 93.5519 34.8741C93.8953 35.4493 94.4945 36.2222 95.0399 36.6264C95.6419 37.0856 96.2424 37.5435 96.8727 37.9448C97.989 38.6372 99.2481 39.0371 100.335 39.7253C100.966 40.1266 101.595 40.6438 102.225 41.0748C102.539 41.3037 102.738 41.6782 103.141 41.8195V41.7319C102.939 41.4747 102.883 41.1016 102.683 40.8133C102.398 40.5279 102.111 40.2693 101.824 39.9824C100.985 38.8709 99.9819 37.894 98.8482 37.0856C97.9311 36.4512 95.9259 35.5892 95.5557 34.5308L95.4977 34.4728C96.1266 34.4149 96.8727 34.1846 97.4747 34.0108C98.4454 33.7522 99.3343 33.8101 100.336 33.5529C100.794 33.437 101.252 33.2929 101.712 33.153V32.8916C101.194 32.3772 100.824 31.6862 100.281 31.1987C98.8227 29.9368 97.2175 28.7032 95.5571 27.6674C94.6668 27.0937 93.5223 26.7221 92.5783 26.2331C92.2363 26.0607 91.664 25.9759 91.462 25.6877C90.9476 25.056 90.6593 24.2251 90.2891 23.4776C89.4428 21.8433 88.6598 20.177 87.942 18.4824C87.4262 17.3632 87.1111 16.2454 86.4823 15.2111C83.5317 10.3303 80.3269 7.37551 75.4037 4.47586C74.3439 3.87247 73.0848 3.61387 71.741 3.29875C71.0231 3.26908 70.3095 3.21397 69.5931 3.18571C69.1338 2.98222 68.6746 2.43677 68.2747 2.17818C67.2544 1.5324 65.228 0.416061 63.5592 0.390625L63.5564 0.393452ZM70.619 7.48855C70.1329 7.48855 69.7909 7.5479 69.4461 7.63269V7.68921H69.5012C69.7315 8.14846 70.1329 8.46641 70.4169 8.86772C70.6472 9.32698 70.8479 9.78482 71.0768 10.2441L71.1333 10.1875C71.5361 9.90069 71.7367 9.44144 71.7367 8.75185C71.5629 8.54978 71.5361 8.35054 71.3919 8.14846C71.2209 7.86302 70.8479 7.71889 70.619 7.48855Z" fill="#00758F"/>
</g>
<defs>
<clipPath id="clip0_69_165">
<rect width="102.82" height="70" fill="white" transform="translate(0.34375 0.379395)"/>
</clipPath>
</defs>
</svg>
