<svg width="72" height="71" viewBox="0 0 72 71" fill="none" xmlns="http://www.w3.org/2000/svg">
<g clip-path="url(#clip0_69_180)">
<path d="M12.7941 0.448242H59.1521C66.1806 0.448242 71.8632 6.13084 71.8632 13.1593V57.7228C71.8632 64.7513 66.1806 70.4339 59.1521 70.4339H12.7941C5.7656 70.4339 0.0830078 64.7513 0.0830078 57.7228V13.1593C0.0830078 6.13084 5.7656 0.448242 12.7941 0.448242Z" fill="#001E36"/>
<path d="M16.2336 49.5278V18.7521C16.2336 18.5427 16.3234 18.4231 16.5327 18.4231C17.0412 18.4231 17.5197 18.4231 18.2076 18.3932C18.9254 18.3633 19.6731 18.3633 20.4806 18.3334C21.2882 18.3035 22.1555 18.3035 23.0827 18.2736C24.0098 18.2437 24.9071 18.2437 25.8043 18.2437C28.2568 18.2437 30.2906 18.5427 31.9655 19.1708C33.4609 19.6793 34.8367 20.5167 35.9732 21.6233C36.9303 22.5804 37.678 23.7468 38.1565 25.0329C38.6051 26.289 38.8444 27.5751 38.8444 28.9209C38.8444 31.4931 38.2462 33.6166 37.0499 35.2914C35.8536 36.9663 34.1787 38.2225 32.2346 38.9403C30.2009 39.688 27.9577 39.9571 25.5052 39.9571C24.7874 39.9571 24.3089 39.9571 24.0098 39.9272C23.7107 39.8973 23.292 39.8973 22.7238 39.8973V49.4979C22.7537 49.7073 22.6041 49.8867 22.3948 49.9166H16.5925C16.3533 49.9166 16.2336 49.797 16.2336 49.5278ZM22.7537 24.1954V34.2446C23.1724 34.2746 23.5612 34.3045 23.9201 34.3045H25.5052C26.6717 34.3045 27.8381 34.125 28.9447 33.7661C29.9018 33.4969 30.7392 32.9287 31.3972 32.181C32.0253 31.4333 32.3244 30.4164 32.3244 29.1004C32.3543 28.1732 32.115 27.2461 31.6365 26.4386C31.128 25.6609 30.4102 25.0628 29.5429 24.7338C28.4363 24.2851 27.2399 24.1057 26.0137 24.1356C25.2361 24.1356 24.5482 24.1356 23.9799 24.1655C23.3818 24.1356 22.963 24.1655 22.7537 24.1954ZM57.5072 32.4202C56.61 31.9417 55.6529 31.6127 54.636 31.4033C53.5294 31.1641 52.4228 31.0145 51.2863 31.0145C50.6881 30.9846 50.06 31.0744 49.4918 31.2239C49.103 31.3136 48.774 31.523 48.5646 31.8221C48.4151 32.0613 48.3254 32.3604 48.3254 32.6296C48.3254 32.8988 48.445 33.1679 48.6244 33.4072C48.8936 33.7362 49.2525 34.0054 49.6413 34.2147C50.3292 34.5736 51.047 34.9026 51.7648 35.2017C53.3799 35.7401 54.9351 36.4878 56.3707 37.385C57.3577 38.0131 58.1652 38.8505 58.7335 39.8674C59.212 40.8245 59.4513 41.8713 59.4214 42.948C59.4513 44.3537 59.0326 45.7594 58.2549 46.9258C57.4175 48.1221 56.2511 49.0493 54.9052 49.5877C53.4397 50.2157 51.6452 50.5447 49.4918 50.5447C48.116 50.5447 46.7701 50.4251 45.4242 50.1559C44.3774 49.9765 43.3306 49.6475 42.3736 49.1988C42.1642 49.0792 42.0147 48.8699 42.0446 48.6306V43.4265C42.0446 43.3368 42.0745 43.2172 42.1642 43.1573C42.2539 43.0975 42.3437 43.1274 42.4334 43.1873C43.5998 43.8751 44.8261 44.3537 46.142 44.6528C47.2786 44.9518 48.4749 45.1014 49.6712 45.1014C50.8078 45.1014 51.6153 44.9518 52.1536 44.6827C52.6322 44.4733 52.9612 43.9649 52.9612 43.4265C52.9612 43.0078 52.7219 42.619 52.2434 42.2302C51.7648 41.8414 50.7778 41.3927 49.3123 40.8245C47.787 40.2861 46.3813 39.5683 45.0653 38.6711C44.1382 38.0131 43.3606 37.1458 42.7923 36.1289C42.3138 35.1718 42.0745 34.125 42.1044 33.0782C42.1044 31.7922 42.4633 30.5659 43.1213 29.4593C43.869 28.263 44.9756 27.3059 46.2617 26.7077C47.6674 25.9899 49.432 25.6609 51.5555 25.6609C52.7817 25.6609 54.0379 25.7507 55.2641 25.9301C56.1614 26.0497 57.0287 26.289 57.8362 26.618C57.9559 26.6479 58.0755 26.7675 58.1353 26.8872C58.1652 27.0068 58.1951 27.1264 58.1951 27.2461V32.1211C58.1951 32.2408 58.1353 32.3604 58.0456 32.4202C57.7764 32.48 57.6269 32.48 57.5072 32.4202Z" fill="#31A8FF"/>
</g>
<defs>
<clipPath id="clip0_69_180">
<rect width="71.7802" height="70" fill="white" transform="translate(0.0830078 0.440918)"/>
</clipPath>
</defs>
</svg>
