<svg width="59" height="71" viewBox="0 0 59 71" fill="none" xmlns="http://www.w3.org/2000/svg">
<path d="M52.9276 11.8698C46.9873 3.3722 35.2538 0.853456 26.7711 6.25595L11.8743 15.7471C10.8721 16.3768 9.93718 17.109 9.08657 17.9318C8.23489 18.7547 7.4718 19.664 6.80903 20.6448C6.14626 21.6256 5.58701 22.6726 5.13983 23.7687C4.69373 24.8653 4.36253 26.0052 4.15154 27.1701C3.97544 28.1466 3.87939 29.137 3.86658 30.1296C3.85271 31.1232 3.92208 32.1158 4.07256 33.0966C4.22305 34.0785 4.45464 35.0465 4.76415 35.9899C5.07366 36.9334 5.46107 37.8491 5.92213 38.7285C5.60496 39.2105 5.31216 39.7081 5.04484 40.2195C4.77696 40.7307 4.53576 41.2558 4.32123 41.7916C4.10671 42.3273 3.91994 42.8738 3.76092 43.4288C3.6019 43.9837 3.47169 44.5462 3.36924 45.114C2.94351 47.5016 2.99975 49.9503 3.53466 52.3159C3.80148 53.4952 4.18463 54.6457 4.67984 55.7492C5.17505 56.8528 5.77805 57.9051 6.48244 58.8891C12.4228 67.3867 24.1553 69.9054 32.6379 64.5029L47.5348 55.0513C48.5369 54.4205 49.4697 53.6873 50.3203 52.8634C51.1708 52.0401 51.9337 51.1309 52.5968 50.1504C53.2596 49.1706 53.8188 48.1236 54.266 47.0276C54.7132 45.9326 55.0451 44.7927 55.2575 43.6283C55.4336 42.6518 55.5286 41.6624 55.5414 40.6699C55.5542 39.6773 55.4848 38.6848 55.3333 37.7039C55.1828 36.7231 54.9512 35.7562 54.6406 34.8127C54.33 33.8703 53.9426 32.9546 53.4816 32.0752C53.7985 31.5939 54.092 31.0954 54.3599 30.5842C54.6267 30.073 54.869 29.5479 55.0835 29.0121C55.298 28.4764 55.4859 27.9299 55.646 27.375C55.805 26.8211 55.9373 26.2586 56.0409 25.6908C56.2522 24.4998 56.344 23.2905 56.3162 22.0813C56.2885 20.8721 56.1401 19.6693 55.8733 18.4889C55.6065 17.3096 55.2233 16.1591 54.7281 15.0555C54.2335 13.9518 53.6304 12.9 52.9276 11.9156" fill="#FF3E00"/>
<path d="M25.3154 59.7111C24.1495 60.014 22.9442 60.1371 21.7411 60.0761C20.5383 60.0142 19.3515 59.7709 18.2224 59.3514C17.0931 58.9327 16.0344 58.3442 15.0825 57.6064C14.1313 56.8682 13.2982 55.9893 12.6117 55.0002C12.188 54.4079 11.8252 53.776 11.5285 53.1122C11.2309 52.4488 11.0003 51.7573 10.8401 51.0481C10.6811 50.3384 10.5914 49.6148 10.5754 48.888C10.5594 48.1612 10.616 47.4344 10.744 46.7182C10.7643 46.6019 10.7878 46.4856 10.8134 46.3703C10.838 46.254 10.8657 46.1387 10.8956 46.0245C10.9244 45.9092 10.9564 45.795 10.9906 45.6808C11.0237 45.5677 11.0599 45.4546 11.0973 45.3425L11.378 44.4855L12.1432 45.0565C12.5819 45.3767 13.0344 45.6787 13.4986 45.9605C13.9629 46.2433 14.4389 46.5058 14.9256 46.747C15.4112 46.9893 15.9085 47.2113 16.4133 47.4109C16.9182 47.6115 17.4315 47.7897 17.9523 47.9466L18.5233 48.1121L18.4721 48.6831C18.4446 49.0716 18.485 49.4621 18.5916 49.8368C18.6439 50.0246 18.7133 50.206 18.7976 50.3811C18.8819 50.5561 18.9812 50.7237 19.0943 50.8816C19.3016 51.1795 19.5532 51.4441 19.8403 51.6661C20.1263 51.888 20.4455 52.0652 20.7859 52.1911C21.1264 52.3171 21.4828 52.3897 21.8457 52.4078C22.2075 52.427 22.5704 52.3897 22.9215 52.2979C23.0026 52.2765 23.0816 52.252 23.1606 52.2242C23.2396 52.1965 23.3175 52.1666 23.3932 52.1324C23.4701 52.0994 23.5448 52.0631 23.6195 52.0236C23.6931 51.9852 23.7647 51.9435 23.8351 51.8987L38.7096 42.4065C38.8919 42.2921 39.0618 42.1591 39.2165 42.0094C39.3713 41.859 39.5089 41.6935 39.6295 41.5153C39.7501 41.3371 39.8505 41.146 39.9316 40.9465C40.0116 40.7469 40.0714 40.5398 40.1098 40.3285C40.1472 40.1119 40.1632 39.8931 40.1578 39.6732C40.1525 39.4544 40.1247 39.2367 40.0756 39.0222C40.0276 38.8087 39.9572 38.6006 39.8665 38.4C39.7768 38.2004 39.6658 38.0104 39.5377 37.8322C39.3307 37.5344 39.0799 37.2708 38.7928 37.0488C38.5057 36.8268 38.1866 36.6496 37.8472 36.5237C37.507 36.3977 37.1497 36.3243 36.7874 36.306C36.4245 36.2878 36.0617 36.3252 35.7105 36.4159C35.6305 36.4373 35.5505 36.4618 35.4715 36.4896C35.3925 36.5173 35.3157 36.5472 35.2388 36.5803C35.162 36.6144 35.0873 36.6507 35.0136 36.6902C34.94 36.7286 34.8674 36.7713 34.797 36.8161L29.085 40.4427C28.8523 40.59 28.6132 40.7287 28.3699 40.8589C28.1255 40.9881 27.8779 41.1087 27.6249 41.2197C27.372 41.3307 27.1148 41.4321 26.8544 41.5228C26.594 41.6146 26.3304 41.6957 26.0635 41.7672C24.8992 42.0681 23.6963 42.1898 22.4957 42.1279C21.295 42.066 20.1114 41.8216 18.9844 41.4043C17.8573 40.9859 16.8008 40.3979 15.8509 39.6615C14.901 38.9251 14.0686 38.0488 13.3823 37.0616C12.9607 36.4693 12.5989 35.8364 12.3033 35.1726C12.0066 34.5087 11.7771 33.8171 11.6181 33.1085C11.4591 32.3987 11.3716 31.6751 11.3566 30.9483C11.3406 30.2226 11.3972 29.4958 11.5263 28.7807C11.7787 27.3728 12.3217 26.033 13.1208 24.8468C13.9205 23.6605 14.9591 22.6543 16.17 21.8926L31.0904 12.4014C31.3219 12.2541 31.5589 12.1154 31.8012 11.9852C32.0434 11.856 32.291 11.7354 32.5418 11.6244C32.7932 11.5134 33.0488 11.4123 33.3081 11.3213C33.5664 11.2296 33.829 11.1474 34.0947 11.0759C35.2602 10.7738 36.4651 10.65 37.6668 10.7109C38.8696 10.7728 40.0554 11.0161 41.1845 11.4355C42.3137 11.8539 43.3714 12.443 44.3234 13.1805C45.2742 13.9192 46.1069 14.7984 46.793 15.7878C47.2156 16.3791 47.5796 17.0109 47.8773 17.6748C48.1751 18.3386 48.4056 19.0291 48.5668 19.7388C48.7269 20.4486 48.8165 21.1722 48.8325 21.899C48.8496 22.6258 48.7941 23.3526 48.6661 24.0687C48.6436 24.1861 48.6202 24.3035 48.5935 24.4199C48.5679 24.5362 48.5401 24.6525 48.5102 24.7678C48.4814 24.8841 48.4494 24.9994 48.4163 25.1136C48.3832 25.2289 48.3491 25.3431 48.3117 25.4562L48.0268 26.3132L47.2669 25.7422C46.8272 25.4188 46.3736 25.1157 45.9082 24.8308C45.4429 24.5469 44.9648 24.2822 44.477 24.0378C43.5006 23.5507 42.4849 23.1465 41.4407 22.8296L40.8686 22.6642L40.9209 22.0932C40.9369 21.8979 40.9359 21.7015 40.9177 21.5073C40.9006 21.3131 40.8654 21.1199 40.8142 20.931C40.7619 20.7431 40.6947 20.5585 40.6103 20.3824C40.5271 20.2052 40.4278 20.0366 40.3147 19.8765C40.1065 19.584 39.8549 19.3249 39.5687 19.1081C39.2829 18.8903 38.9654 18.7175 38.6274 18.5958C37.948 18.3494 37.2097 18.3162 36.511 18.5008C36.4299 18.5222 36.3498 18.5467 36.2719 18.5734C36.1929 18.6011 36.115 18.6321 36.0382 18.6652C35.9624 18.6983 35.8866 18.7356 35.813 18.774C35.7394 18.8135 35.6668 18.8552 35.5963 18.9L20.6941 28.3752C20.5127 28.4893 20.343 28.6228 20.1893 28.7722C20.0356 28.9216 19.8969 29.087 19.7763 29.2642C19.6567 29.4424 19.5555 29.6323 19.4743 29.8309C19.3931 30.0305 19.3334 30.2365 19.295 30.4478C19.2576 30.6644 19.2416 30.8843 19.2469 31.1041C19.2597 31.5442 19.3587 31.9775 19.5383 32.3795C19.6288 32.5796 19.7386 32.7705 19.8659 32.9494C20.0719 33.244 20.3217 33.5066 20.6066 33.7264C20.891 33.9473 21.2073 34.1236 21.5447 34.2494C22.2232 34.5016 22.9623 34.5422 23.6643 34.3657C23.7444 34.3433 23.8244 34.3187 23.9034 34.291C23.9813 34.2632 24.0592 34.2323 24.1361 34.1992C24.2125 34.166 24.2877 34.1296 24.3613 34.0903C24.4349 34.0519 24.5075 34.0103 24.5779 33.9655L30.2899 30.3453C30.5236 30.1959 30.7616 30.055 31.006 29.9248C31.2494 29.7935 31.498 29.6729 31.7521 29.5609C32.0052 29.4498 32.2626 29.3487 32.5237 29.2578C32.7852 29.166 33.0498 29.0849 33.3177 29.0144C34.4832 28.7113 35.6871 28.5875 36.8899 28.6473C38.0927 28.7081 39.2784 28.9515 40.4076 29.3698C41.5357 29.7882 42.5944 30.3763 43.5453 31.1148C44.4973 31.8523 45.3298 32.7307 46.016 33.72C46.4387 34.3123 46.8015 34.9442 47.0993 35.608C47.3971 36.2714 47.628 36.9629 47.7888 37.6721C47.9489 38.3808 48.0385 39.1044 48.0556 39.8312C48.0727 40.559 48.0161 41.2858 47.8891 42.0009C47.7632 42.703 47.5647 43.3901 47.2968 44.0511C47.029 44.7123 46.6928 45.3437 46.2935 45.9348C45.8954 46.5261 45.4365 47.0747 44.9242 47.571C44.4119 48.0672 43.8495 48.5091 43.2454 48.889L28.3421 58.3802C28.1084 58.5286 27.8694 58.6684 27.626 58.7986C27.3816 58.9288 27.1329 59.0494 26.8789 59.1604C26.626 59.2724 26.3688 59.3738 26.1073 59.4656C25.8469 59.5574 25.5822 59.6396 25.3154 59.7111Z" fill="white"/>
</svg>
