<svg width="118" height="71" viewBox="0 0 118 71" fill="none" xmlns="http://www.w3.org/2000/svg">
<g clip-path="url(#clip0_69_160)">
<path d="M58.9888 0.379395C43.4285 0.379395 33.7039 8.15733 29.8135 23.7118C35.6491 15.9338 42.4567 13.0182 50.2361 14.9619C54.6752 16.071 57.8476 19.2916 61.3601 22.8552C67.0805 28.6602 73.7012 35.3787 88.1641 35.3787C103.723 35.3787 113.449 27.6007 117.338 12.0448C111.504 19.8228 104.696 22.7399 96.9154 20.7961C92.4777 19.6871 89.3052 16.4665 85.7928 12.9029C80.0724 7.0979 73.4502 0.379395 58.9888 0.379395ZM29.8135 35.3787C14.2547 35.3787 4.52862 43.1566 0.639648 58.7125C6.47383 50.9345 13.2814 48.0175 21.0622 49.9627C25.4999 51.0732 28.6723 54.2923 32.1848 57.8544C37.9052 63.6594 44.5274 70.3794 58.9888 70.3794C74.549 70.3794 84.2737 62.6015 88.1641 47.0456C82.3284 54.8235 75.5209 57.7406 67.7415 55.7954C63.3024 54.6878 60.1299 51.4657 56.6175 47.9036C50.8971 42.0986 44.2764 35.3787 29.8135 35.3787Z" fill="#06B6D4"/>
</g>
<defs>
<clipPath id="clip0_69_160">
<rect width="116.744" height="70" fill="white" transform="translate(0.616699 0.379395)"/>
</clipPath>
</defs>
</svg>
