<svg width="71" height="71" viewBox="0 0 71 71" fill="none" xmlns="http://www.w3.org/2000/svg">
<g clip-path="url(#clip0_69_157)">
<path d="M0.967041 0.442871H70.967V70.4429H0.967041V0.442871Z" fill="#017ACB"/>
<path d="M34.578 26.3646H37.9358V32.1614H28.8577V57.952L28.617 58.0177C28.2889 58.1052 23.9686 58.1052 23.0389 58.0067L22.2952 57.9411V32.1614H13.217V26.3646L16.0936 26.3317C17.6686 26.3099 21.7155 26.3099 25.0842 26.3317C28.453 26.3536 32.7186 26.3646 34.578 26.3646ZM60.2045 55.2177C58.8702 56.6286 57.4374 57.4161 55.053 58.0614C54.0139 58.3458 53.8389 58.3567 51.4983 58.3458C49.1577 58.3349 48.9717 58.3349 47.8342 58.0395C44.892 57.2849 42.5186 55.8083 40.8999 53.7192C40.4405 53.1286 39.6858 51.9036 39.6858 51.7505C39.6858 51.7067 39.7952 51.6083 39.9374 51.5427C40.0795 51.4771 40.3749 51.2911 40.6155 51.1489C40.8561 51.0067 41.2936 50.7442 41.5889 50.5911C41.8842 50.438 42.7374 49.9349 43.4811 49.4864C44.2249 49.038 44.903 48.6771 44.9795 48.6771C45.0561 48.6771 45.1983 48.8302 45.3077 49.0161C45.9639 50.1208 47.4952 51.5317 48.578 52.013C49.2452 52.2974 50.7217 52.6146 51.4327 52.6146C52.0889 52.6146 53.292 52.3302 53.9374 52.0349C54.6264 51.7177 54.9764 51.4005 55.392 50.7661C55.6764 50.3177 55.7092 50.1974 55.6983 49.3442C55.6983 48.5567 55.6545 48.338 55.4358 47.9771C54.8233 46.9708 53.992 46.4458 50.6233 44.9583C47.1452 43.4161 45.5811 42.4974 44.3124 41.2614C43.3717 40.3427 43.1858 40.0911 42.5952 38.9427C41.8295 37.4661 41.7311 36.9849 41.7202 34.7864C41.7092 33.2442 41.742 32.7411 41.9061 32.2161C42.1358 31.4286 42.8795 29.9083 43.2186 29.5255C43.9186 28.7052 44.1702 28.4536 44.6624 28.0489C46.1499 26.8239 48.4686 26.0146 50.6889 25.938C50.9405 25.938 51.7717 25.9817 52.5483 26.0364C54.7795 26.2224 56.2999 26.7692 57.7655 27.9395C58.8702 28.8145 60.5436 30.8708 60.3795 31.1442C60.2702 31.3083 55.9061 34.2177 55.6217 34.3052C55.4467 34.3599 55.3264 34.2942 55.0858 34.0099C53.5983 32.227 52.9967 31.8442 51.553 31.7567C50.5249 31.6911 49.978 31.8114 49.2889 32.2708C48.567 32.7521 48.217 33.4849 48.217 34.502C48.228 35.9895 48.7967 36.6895 50.8967 37.7286C52.253 38.3958 53.4124 38.9427 53.4999 38.9427C53.6311 38.9427 56.442 40.3427 57.1749 40.7802C60.5874 42.7817 61.9764 44.838 62.3374 48.3817C62.5999 51.0505 61.8452 53.4895 60.2045 55.2177Z" fill="white"/>
</g>
<defs>
<clipPath id="clip0_69_157">
<rect width="70" height="70" fill="white" transform="translate(0.967041 0.442871)"/>
</clipPath>
</defs>
</svg>
