<svg width="71" height="71" viewBox="0 0 71 71" fill="none" xmlns="http://www.w3.org/2000/svg">
<g clip-path="url(#clip0_69_155)">
<path d="M69.6817 10.9617L37.3999 68.687C36.7334 69.8788 35.021 69.8858 34.3445 68.6998L1.42279 10.9671C0.685647 9.67484 1.79082 8.10928 3.25544 8.37128L35.5718 14.1473C35.778 14.1842 35.9891 14.1838 36.1951 14.1463L67.8356 8.37933C69.2954 8.11331 70.4056 9.66678 69.6817 10.9617Z" fill="url(#paint0_linear_69_155)"/>
<path d="M50.9657 0.794285L27.0765 5.47537C26.8856 5.51277 26.7126 5.61254 26.5846 5.759C26.4566 5.90545 26.3809 6.09029 26.3694 6.28446L24.9 31.1035C24.8919 31.2396 24.9157 31.3758 24.9694 31.5011C25.0231 31.6264 25.1053 31.7375 25.2094 31.8255C25.3136 31.9136 25.4368 31.9761 25.5694 32.0082C25.7019 32.0402 25.8401 32.041 25.9729 32.0103L32.6241 30.4754C33.2464 30.3317 33.8088 30.8799 33.6807 31.5056L31.7047 41.1822C31.5718 41.8334 32.1831 42.3902 32.819 42.1969L36.9273 40.9489C37.564 40.7556 38.176 41.314 38.0413 41.9658L34.901 57.1652C34.7046 58.116 35.9692 58.6344 36.4964 57.8194L36.8489 57.275L56.3152 18.4261C56.6414 17.7757 56.079 17.0339 55.3649 17.1719L48.5183 18.4932C47.8751 18.6172 47.3278 18.0181 47.5092 17.3888L51.9777 1.89839C52.1594 1.26755 51.6097 0.668117 50.9657 0.794285Z" fill="url(#paint1_linear_69_155)"/>
</g>
<defs>
<linearGradient id="paint0_linear_69_155" x1="-146.596" y1="1216.7" x2="8902.84" y2="13418" gradientUnits="userSpaceOnUse">
<stop stop-color="#41D1FF"/>
<stop offset="1" stop-color="#BD34FE"/>
</linearGradient>
<linearGradient id="paint1_linear_69_155" x1="3574.9" y1="332.874" x2="5434.7" y2="12998.7" gradientUnits="userSpaceOnUse">
<stop stop-color="#FFEA83"/>
<stop offset="0.083" stop-color="#FFDD35"/>
<stop offset="1" stop-color="#FFA800"/>
</linearGradient>
<clipPath id="clip0_69_155">
<rect width="69.72" height="70" fill="white" transform="translate(0.685547 0.276855)"/>
</clipPath>
</defs>
</svg>
