<svg width="71" height="71" viewBox="0 0 71 71" fill="none" xmlns="http://www.w3.org/2000/svg">
<g clip-path="url(#clip0_69_172)">
<path d="M69.6751 32.4652L39.1135 1.90365C38.695 1.48497 38.1982 1.15284 37.6513 0.926239C37.1044 0.699639 36.5183 0.583008 35.9263 0.583008C35.3344 0.583008 34.7482 0.699639 34.2013 0.926239C33.6545 1.15284 33.1576 1.48497 32.7391 1.90365L26.3954 8.2474L34.4454 16.2974C36.3179 15.6411 38.4616 16.0896 39.9535 17.5815C40.6637 18.2929 41.1594 19.1897 41.3842 20.1695C41.6089 21.1493 41.5536 22.1726 41.2244 23.1224L48.9835 30.8815C50.8604 30.234 53.026 30.6518 54.5244 32.1546C55.0226 32.6528 55.4177 33.2443 55.6872 33.8953C55.9567 34.5463 56.0954 35.2439 56.0953 35.9485C56.0952 36.653 55.9563 37.3507 55.6866 38.0015C55.4169 38.6524 55.0216 39.2438 54.5234 39.7419C54.0251 40.24 53.4336 40.6351 52.7826 40.9047C52.1317 41.1742 51.434 41.3129 50.7295 41.3128C50.0249 41.3127 49.3273 41.1738 48.6764 40.9041C48.0255 40.6344 47.4341 40.2391 46.936 39.7408C45.361 38.1658 44.9716 35.8471 45.7679 33.9068L38.5316 26.6705V45.7127C39.0569 45.9727 39.537 46.3154 39.9535 46.7277C40.4516 47.2258 40.8468 47.8172 41.1163 48.468C41.3859 49.1188 41.5247 49.8164 41.5247 50.5208C41.5247 51.2253 41.3859 51.9228 41.1163 52.5737C40.8468 53.2245 40.4516 53.8158 39.9535 54.314C39.4554 54.8121 38.864 55.2072 38.2132 55.4768C37.5624 55.7464 36.8648 55.8851 36.1604 55.8851C35.4559 55.8851 34.7584 55.7464 34.1076 55.4768C33.4567 55.2072 32.8654 54.8121 32.3673 54.314C31.8686 53.8162 31.4729 53.2249 31.203 52.574C30.933 51.9232 30.7941 51.2255 30.7941 50.5208C30.7941 49.8162 30.933 49.1185 31.203 48.4676C31.4729 47.8167 31.8686 47.2255 32.3673 46.7277C32.8857 46.2115 33.461 45.8199 34.1238 45.5574V26.338C33.4851 26.0755 32.8857 25.6883 32.3673 25.1677C31.614 24.4154 31.1019 23.4558 30.8962 22.4113C30.6905 21.3668 30.8005 20.2847 31.2123 19.303L23.2716 11.3668L2.31538 32.3011C1.89638 32.7197 1.56397 33.2167 1.33718 33.7637C1.11039 34.3108 0.993652 34.8972 0.993652 35.4894C0.993652 36.0816 1.11039 36.6681 1.33718 37.2151C1.56397 37.7622 1.89638 38.2592 2.31538 38.6777L32.8791 69.2371C33.2976 69.6558 33.7945 69.9879 34.3413 70.2145C34.8882 70.4411 35.4744 70.5577 36.0663 70.5577C36.6583 70.5577 37.2444 70.4411 37.7913 70.2145C38.3382 69.9879 38.835 69.6558 39.2535 69.2371L69.6751 38.8636C70.0941 38.4451 70.4265 37.9481 70.6533 37.4011C70.8801 36.854 70.9968 36.2676 70.9968 35.6754C70.9968 35.0831 70.8801 34.4967 70.6533 33.9497C70.4265 33.4026 70.0941 32.9056 69.6751 32.4871" fill="#F03C2E"/>
</g>
<defs>
<clipPath id="clip0_69_172">
<rect width="70" height="70" fill="white" transform="translate(0.996094 0.58252)"/>
</clipPath>
</defs>
</svg>
