<svg width="73" height="71" viewBox="0 0 73 71" fill="none" xmlns="http://www.w3.org/2000/svg">
<g clip-path="url(#clip0_73_3)">
<path d="M13.4619 0.662598H59.8199C66.8484 0.662598 72.531 6.34519 72.531 13.3737V57.9372C72.531 64.9656 66.8484 70.6482 59.8199 70.6482H13.4619C6.43345 70.6482 0.750854 64.9656 0.750854 57.9372V13.3737C0.750854 6.34519 6.43345 0.662598 13.4619 0.662598Z" fill="#330000"/>
<path d="M35.4446 42.5344H24.3186L22.0456 49.5628C21.9858 49.832 21.7465 50.0115 21.4773 49.9815H15.8546C15.5256 49.9815 15.4358 49.8021 15.5256 49.4432L25.1561 21.7181C25.2458 21.419 25.3355 21.09 25.4552 20.7311C25.5748 20.1031 25.6346 19.4451 25.6346 18.7871C25.6047 18.6375 25.7243 18.488 25.8739 18.4581H33.6201C33.8594 18.4581 33.979 18.5478 34.009 18.6974L44.9255 49.503C45.0152 49.832 44.9255 49.9815 44.6264 49.9815H38.3756C38.1662 50.0115 37.9569 49.8619 37.897 49.6526L35.4446 42.5344ZM26.0533 36.4629H33.6501C33.4706 35.8349 33.2313 35.0872 32.9622 34.3095C32.693 33.502 32.4238 32.6347 32.1546 31.7374C31.8555 30.8103 31.5864 29.913 31.2873 28.9859C30.9882 28.0587 30.719 27.1913 30.4798 26.324C30.2405 25.4866 30.0311 24.709 29.8218 23.9911H29.762C29.4928 25.2772 29.1638 26.5633 28.7451 27.8493C28.2964 29.2849 27.8478 30.7804 27.3693 32.2758C26.9506 33.8011 26.5019 35.2068 26.0533 36.4629ZM51.5951 23.6921C50.6081 23.722 49.651 23.3332 48.9332 22.6453C48.2454 21.8976 47.8865 20.9106 47.9164 19.8937C47.8865 18.8768 48.2753 17.9197 48.9931 17.2319C49.7109 16.544 50.6679 16.1851 51.6549 16.1851C52.8213 16.1851 53.7186 16.544 54.3766 17.2319C55.0346 17.9497 55.3935 18.9067 55.3635 19.8937C55.3935 20.9106 55.0346 21.8976 54.3168 22.6453C53.6289 23.3631 52.612 23.7519 51.5951 23.6921ZM48.2454 49.6526V26.6231C48.2454 26.324 48.365 26.2044 48.6342 26.2044H54.556C54.8252 26.2044 54.9448 26.3539 54.9448 26.6231V49.6526C54.9448 49.9815 54.8252 50.1311 54.556 50.1311H48.694C48.3949 50.1311 48.2454 49.9516 48.2454 49.6526Z" fill="#FF9A00"/>
</g>
<defs>
<clipPath id="clip0_73_3">
<rect width="71.7802" height="70" fill="white" transform="translate(0.750854 0.655273)"/>
</clipPath>
</defs>
</svg>
