<svg width="53" height="71" viewBox="0 0 53 71" fill="none" xmlns="http://www.w3.org/2000/svg">
<g clip-path="url(#clip0_69_170)">
<path d="M17.5841 54.6956C17.5841 54.6956 14.914 56.2484 19.4844 56.7738C25.0215 57.4054 27.8512 57.315 33.9532 56.16C33.9532 56.16 35.5575 57.1659 37.7977 58.0372C24.1192 63.8996 6.84009 57.6975 17.5841 54.6956ZM15.9126 47.0454C15.9126 47.0454 12.9178 49.2623 17.4916 49.7354C23.4064 50.3455 28.0774 50.3955 36.1602 48.8391C36.1602 48.8391 37.2782 49.9725 39.036 50.5923C22.4976 55.4284 4.07691 50.9737 15.9126 47.0454Z" fill="#5382A1"/>
<path d="M30.0035 34.0681C33.3741 37.9485 29.118 41.4404 29.118 41.4404C29.118 41.4404 37.676 37.0225 33.7457 31.4901C30.075 26.3311 27.2598 23.7674 42.4993 14.9292C42.4993 14.9292 18.5784 20.9037 30.0035 34.0681Z" fill="#E76F00"/>
<path d="M48.0946 60.354C48.0946 60.354 50.0706 61.982 45.9184 63.2416C38.0229 65.6335 13.0564 66.3558 6.12073 63.3369C3.62764 62.2525 8.30307 60.7473 9.77368 60.4313C11.3074 60.0987 12.184 60.1608 12.184 60.1608C9.41134 58.2075 -5.73739 63.996 4.48929 65.6536C32.3786 70.1764 55.3287 63.6171 48.0946 60.354ZM18.8678 39.1189C18.8678 39.1189 6.16848 42.1354 14.3708 43.2305C17.834 43.6942 24.7379 43.5894 31.1688 43.0504C36.4245 42.6074 41.7018 41.6646 41.7018 41.6646C41.7018 41.6646 39.8486 42.4583 38.5079 43.3737C25.6117 46.7655 0.698563 45.1877 7.87073 41.7182C13.9362 38.7863 18.8678 39.1189 18.8678 39.1189ZM41.6494 51.8528C54.7592 45.0406 48.6977 38.4942 44.467 39.3762C43.4299 39.5919 42.9676 39.7788 42.9676 39.7788C42.9676 39.7788 43.3526 39.176 44.0878 38.915C52.4575 35.9723 58.8945 47.5936 41.386 52.1962C41.386 52.1964 41.5889 52.0151 41.6494 51.8528Z" fill="#5382A1"/>
<path d="M33.7459 0.657429C33.7459 0.657429 41.0063 7.92043 26.8598 19.0883C15.516 28.0471 24.2731 33.155 26.8552 38.9911C20.2335 33.0168 15.374 27.7575 18.6342 22.8628C23.4191 15.6773 36.6752 12.1939 33.7459 0.657429Z" fill="#E76F00"/>
<path d="M20.156 70.3123C32.7397 71.1179 52.0631 69.8654 52.5207 63.9111C52.5207 63.9111 51.6411 66.1685 42.1211 67.961C31.3807 69.9821 18.1341 69.7462 10.2773 68.4508C10.2775 68.4508 11.8855 69.782 20.156 70.3123Z" fill="#5382A1"/>
</g>
<defs>
<clipPath id="clip0_69_170">
<rect width="51.8" height="70" fill="white" transform="translate(0.882324 0.58252)"/>
</clipPath>
</defs>
</svg>
