<svg width="71" height="71" viewBox="0 0 71 71" fill="none" xmlns="http://www.w3.org/2000/svg">
<g clip-path="url(#clip0_69_164)">
<path d="M33.4039 1.33953L33.4066 1.33927C33.6544 1.31538 34.8871 1.319 36.1881 1.3398C37.4797 1.36045 38.7424 1.39628 39.0465 1.42754C41.6824 1.72505 44.027 2.21762 46.2256 2.93033L46.2263 2.93056C58.7183 6.95979 67.9289 17.8358 69.8016 30.7765L69.8017 30.7771C70.0774 32.6672 70.1108 33.2092 70.1108 35.7971C70.1108 38.3851 70.0774 38.9271 69.8017 40.8172L69.8016 40.8177C68.8586 47.3246 66.0496 53.4285 61.6897 58.4353L61.6893 58.4358C59.6779 60.7515 57.1454 62.9769 54.745 64.5584L49.4834 56.588L49.4832 56.5878C46.4348 51.9741 40.2284 42.5757 35.6899 35.6928C33.4204 32.2509 31.3371 29.1011 29.8082 26.798C29.0438 25.6464 28.4177 24.7062 27.9762 24.0467C27.7555 23.7171 27.5804 23.4569 27.4571 23.2753C27.3955 23.1847 27.346 23.1125 27.3097 23.0605C27.2992 23.0454 27.2894 23.0314 27.2804 23.0188C27.2741 23.0099 27.2682 23.0016 27.2628 22.9942L27.2617 22.9927C27.2556 22.9841 27.2326 22.9522 27.2069 22.924C27.1037 22.8111 26.9877 22.6977 26.841 22.6032C26.6899 22.5059 26.5273 22.4419 26.3413 22.3995C25.998 22.3213 25.5309 22.3101 24.8487 22.3101C24.2672 22.3101 23.9158 22.313 23.6758 22.3364C23.3955 22.3638 23.2404 22.4219 23.0574 22.5111L23.0478 22.5158L23.0385 22.5209C22.8291 22.6342 22.5392 22.8588 22.3767 23.0698L22.1675 23.3329L22.0592 23.4692L22.0589 23.6433L22.0384 37.3548V37.3551L22.0247 51.0598L22.0246 51.171L22.0716 51.2717L22.2152 51.5793L22.2195 51.5886L22.2242 51.5976C22.366 51.8718 22.5761 52.1103 22.8587 52.2893L22.8596 52.2898L23.174 52.488L23.2962 52.5651H23.4406H24.6232C25.6089 52.5651 25.9407 52.5566 26.289 52.3824L26.289 52.3825L26.2974 52.3781C26.4683 52.2886 26.6236 52.1879 26.7655 52.0421C26.9046 51.8992 27.0092 51.7349 27.1086 51.5476L27.1088 51.5472C27.1873 51.3989 27.2177 51.2496 27.2378 51.0037C27.2576 50.7609 27.2707 50.3659 27.2805 49.6877C27.3002 48.3244 27.307 45.7587 27.3173 40.836C27.3241 38.0236 27.3344 35.4662 27.3463 33.6131C27.3498 33.0646 27.3535 32.5781 27.3573 32.1652C27.6834 32.6416 28.0907 33.2388 28.5639 33.9339C29.8417 35.8114 31.5981 38.4015 33.5254 41.2515L40.5315 51.6205L40.5375 51.6294L40.5439 51.638L46.1351 59.191C46.1351 59.191 46.1351 59.191 46.1352 59.191C47.6733 61.2692 49.0835 63.1682 50.116 64.553C50.6323 65.2453 51.0545 65.8095 51.3513 66.2035C51.4208 66.2959 51.4837 66.3791 51.5393 66.4526C51.4889 66.4789 51.4319 66.5083 51.3678 66.5411C47.5023 68.5143 43.5833 69.6603 38.9432 70.1737C38.4461 70.2282 37.0657 70.2578 35.6484 70.2578C34.2315 70.2578 32.8516 70.2282 32.3541 70.1737C29.6629 69.8762 27.3039 69.3835 25.0704 68.6637C12.5785 64.6344 3.36802 53.7584 1.4953 40.8178L1.49522 40.8172C1.21944 38.9271 1.18604 38.3851 1.18604 35.7971C1.18604 33.2092 1.21944 32.6672 1.49522 30.7771L1.49535 30.7762C2.27665 25.3542 4.34428 20.2346 7.57916 15.7192L7.57937 15.7189C13.3875 7.5997 22.558 2.31833 32.3415 1.43548C32.6733 1.40912 33.0361 1.37448 33.252 1.35387C33.3181 1.34756 33.3704 1.34256 33.4039 1.33953ZM33.3586 0.841574L33.3587 0.841921L33.3586 0.841574ZM47.9774 47.9022L48.8934 49.3065L48.8962 47.6298L48.9167 35.34C48.9236 31.0576 48.9236 27.9651 48.915 25.9207C48.9107 24.8987 48.9043 24.1368 48.8955 23.6183C48.8911 23.3596 48.8861 23.1585 48.8802 23.0149C48.8773 22.9436 48.8741 22.8823 48.8703 22.8336L48.87 22.8293C48.8678 22.8008 48.8621 22.7252 48.842 22.6565C48.706 22.1899 48.3449 21.7703 47.9033 21.5467C47.7253 21.4508 47.5583 21.4014 47.306 21.3776C47.0784 21.3561 46.7547 21.3532 46.2568 21.3532C45.7309 21.3532 45.4052 21.3559 45.177 21.3809C44.9065 21.4106 44.7517 21.4738 44.5729 21.5654L44.5729 21.5653L44.5627 21.5708C44.1109 21.8155 43.7879 22.2284 43.6434 22.7343L43.6433 22.7343L43.6404 22.7454C43.6248 22.8052 43.62 22.8721 43.6182 22.8975L43.618 22.901C43.6149 22.9425 43.6123 22.9943 43.6099 23.054C43.605 23.1743 43.6005 23.3406 43.5963 23.5501C43.5879 23.9699 43.5806 24.5734 43.5746 25.3507C43.5627 26.9059 43.5558 29.163 43.5558 32.0514V40.9851V41.1342L43.6374 41.2589L45.8106 44.5802L45.811 44.5808L47.9774 47.9022Z" fill="black" stroke="white"/>
<path d="M54.2607 65.4009C54.0215 65.5512 53.9463 65.6538 54.1582 65.5376C54.3085 65.4487 54.5546 65.2642 54.5136 65.2573C54.4931 65.2573 54.3769 65.3257 54.2607 65.4009ZM53.7891 65.7085C53.666 65.8041 53.666 65.811 53.8164 65.7358C53.8984 65.6948 53.9668 65.6469 53.9668 65.6333C53.9668 65.5786 53.9326 65.5923 53.7891 65.7085ZM53.4473 65.9135C53.3243 66.0092 53.3243 66.016 53.4746 65.9409C53.5567 65.8998 53.625 65.852 53.625 65.8383C53.625 65.7836 53.5908 65.7973 53.4473 65.9135ZM53.1055 66.1186C52.9825 66.2143 52.9825 66.2211 53.1329 66.1459C53.2149 66.1049 53.2833 66.0571 53.2833 66.0434C53.2833 65.9887 53.2491 66.0024 53.1055 66.1186ZM52.5861 66.392C52.3263 66.5287 52.34 66.5834 52.5997 66.4535C52.7159 66.392 52.8048 66.3305 52.8048 66.3168C52.8048 66.2689 52.7979 66.2758 52.5861 66.392Z" fill="black"/>
</g>
<defs>
<clipPath id="clip0_69_164">
<rect width="70" height="70" fill="white" transform="translate(0.648438 0.787109)"/>
</clipPath>
</defs>
</svg>
