<svg width="71" height="71" viewBox="0 0 71 71" fill="none" xmlns="http://www.w3.org/2000/svg">
<g clip-path="url(#clip0_69_173)">
<path d="M62.8714 14.1888C58.6401 8.7096 52.879 4.60828 46.3167 2.40352C39.7544 0.198752 32.6857 -0.010421 26.0045 1.80245C19.3233 3.61532 13.3298 7.36881 8.78191 12.5882C4.23407 17.8076 1.3362 24.2584 0.454788 31.1249C-0.426619 37.9913 0.748034 44.9649 3.83019 51.1637C6.91234 57.3625 11.7635 62.5081 17.7703 65.9496C23.777 69.3912 30.6694 70.9741 37.5758 70.4983C44.4822 70.0224 51.0924 67.5091 56.5703 63.2763C71.8609 51.4594 74.6839 29.4849 62.8714 14.1888Z" fill="#FF6C37"/>
<path d="M46.9748 22.8818L32.2169 37.7568L28.0464 33.4693C42.5714 18.9443 44.0283 20.2568 46.9748 22.8818Z" fill="white"/>
<path d="M32.2169 38.1637C32.0862 38.1605 31.9614 38.1086 31.8669 38.0182L27.6669 33.8182C27.5724 33.7203 27.5195 33.5896 27.5195 33.4535C27.5195 33.3174 27.5724 33.1866 27.6669 33.0887C41.9874 18.7682 43.9419 19.4387 47.3249 22.5012C47.4398 22.5931 47.5043 22.7331 47.4999 22.8807C47.5218 23.0229 47.4671 23.1684 47.3544 23.2603L32.5965 38.0193C32.4926 38.1145 32.358 38.1648 32.2169 38.1637ZM28.7749 33.4682L32.2169 36.9103L46.2169 22.9103C45.7336 22.3045 45.0438 21.8982 44.2797 21.769C43.5155 21.6399 42.7305 21.797 42.0749 22.2103C39.5374 23.3478 35.4544 26.8182 28.7749 33.4682Z" fill="#FF6C37"/>
<path d="M36.4464 41.8694L32.4214 37.7569L47.1794 23.1729C51.1464 27.0524 45.2544 33.5285 36.4464 41.8694Z" fill="white"/>
<path d="M36.4463 42.3944C36.3171 42.3841 36.1946 42.3332 36.0963 42.2489L31.9838 38.2239C31.9221 38.0743 31.9221 37.9064 31.9838 37.7569C31.94 37.6344 31.94 37.4998 31.9838 37.3773L46.7417 22.6194C46.955 22.4192 47.2864 22.4192 47.4997 22.6194C48.4677 23.5097 48.9981 24.7762 48.9577 26.0898C48.9577 30.0273 44.4656 34.9853 36.8247 42.2194C36.7226 42.3204 36.5894 42.3823 36.4463 42.3944ZM33.1792 37.7569L36.4747 41.0512C42.3077 35.5387 47.8792 29.8512 47.9077 26.0012C47.9394 25.185 47.6696 24.3857 47.1497 23.7558L33.1792 37.7569Z" fill="#FF6C37"/>
<path d="M28.1624 33.557L31.0794 36.474C31.0981 36.4904 31.113 36.5106 31.1232 36.5333C31.1334 36.5559 31.1387 36.5804 31.1387 36.6053C31.1387 36.6301 31.1334 36.6546 31.1232 36.6773C31.113 36.6999 31.0981 36.7201 31.0794 36.7365L24.9249 38.049C24.6701 38.1037 24.4109 37.9812 24.2884 37.7515C24.1659 37.5218 24.2118 37.2375 24.3999 37.057L27.9874 33.499C27.9874 33.499 28.1044 33.499 28.1624 33.557Z" fill="white"/>
<path d="M24.7791 38.6321C24.5846 38.6297 24.3941 38.5774 24.2255 38.4803C24.057 38.3833 23.9162 38.2446 23.8166 38.0776C23.5869 37.6434 23.6689 37.1085 24.0211 36.7651L27.5791 33.1776C27.7074 33.0629 27.8735 32.9995 28.0456 32.9995C28.2177 32.9995 28.3837 33.0629 28.5121 33.1776L31.4291 36.0946C31.6019 36.2587 31.6697 36.507 31.6041 36.7367C31.5385 36.9664 31.346 37.149 31.1086 37.2037L24.9541 38.5162L24.7791 38.6321ZM28.0461 34.1992L24.7507 37.4946L30.2052 36.3276L28.0461 34.1992Z" fill="#FF6C37"/>
<path d="M54.8215 14.6855C52.7106 12.6489 49.3943 12.5636 47.1806 14.4853C44.9668 16.407 44.5884 19.7058 46.3121 22.0792C48.0359 24.4527 51.2854 25.1177 53.801 23.6105L49.834 19.6435L54.8215 14.6855Z" fill="white"/>
<path d="M50.8839 24.9512C49.6711 24.9357 48.4897 24.5636 47.4869 23.8813C46.4841 23.199 45.7043 22.2367 45.2445 21.1143C44.3039 18.8196 44.8245 16.1859 46.557 14.4228C47.7248 13.2765 49.2957 12.6343 50.932 12.6343C52.5684 12.6343 54.1393 13.2765 55.307 14.4228C55.4186 14.5168 55.482 14.6557 55.482 14.8023C55.4818 14.8744 55.466 14.9456 55.4358 15.0111C55.4056 15.0766 55.3617 15.1348 55.307 15.1818L50.582 19.6443L54.1695 23.1739C54.2277 23.2294 54.2713 23.2983 54.2967 23.3745C54.322 23.4508 54.3283 23.5321 54.315 23.6114C54.3064 23.6878 54.281 23.7615 54.2408 23.827C54.2005 23.8926 54.1463 23.9486 54.082 23.9909C53.1182 24.5933 52.0103 24.9257 50.8741 24.9534L50.8839 24.9512ZM50.8839 13.6342C48.8058 13.6451 46.9464 14.8953 46.1666 16.806C45.3867 18.7168 45.8111 20.9164 47.268 22.3842C48.7511 23.875 50.9867 24.3037 52.9259 23.4637L49.4839 20.0217C49.3691 19.9298 49.3045 19.7898 49.3089 19.6421C49.3133 19.5054 49.3767 19.3775 49.4839 19.2921L54.0339 14.7126C53.1294 14.0192 52.0236 13.6418 50.8839 13.6342Z" fill="#FF6C37"/>
<path d="M54.9089 14.7729L49.9214 19.7309L53.8884 23.698C54.2877 23.4687 54.6594 23.1946 54.9964 22.8809C57.1576 20.584 57.1183 17.0097 54.9089 14.7729Z" fill="white"/>
<path d="M53.7999 24.1353C53.7343 24.1388 53.6689 24.1276 53.6083 24.1024C53.5477 24.0772 53.4936 24.0388 53.4499 23.9898L49.4828 20.0228C49.368 19.9309 49.3035 19.7909 49.3078 19.6433C49.3122 19.5065 49.3756 19.3786 49.4828 19.2933L54.4408 14.4228C54.4887 14.3506 54.5537 14.2914 54.63 14.2504C54.7064 14.2094 54.7917 14.188 54.8783 14.188C54.9649 14.188 55.0502 14.2094 55.1266 14.2504C55.2029 14.2914 55.2679 14.3506 55.3158 14.4228C55.8978 14.9931 56.3602 15.6738 56.6759 16.425C56.9916 17.1762 57.1542 17.9829 57.1542 18.7978C57.1542 19.6126 56.9916 20.4193 56.6759 21.1706C56.3602 21.9218 55.8978 22.6025 55.3158 23.1728C54.9725 23.537 54.5796 23.851 54.1488 24.1058C54.0403 24.1604 53.916 24.171 53.7999 24.1353ZM50.5919 19.6443L53.8874 22.9398C54.1141 22.7809 54.3287 22.6054 54.5294 22.4148C55.4982 21.4487 56.0438 20.1375 56.0464 18.7693C56.0487 17.5449 55.6024 16.3621 54.7919 15.4443L50.5919 19.6443Z" fill="#FF6C37"/>
<path d="M47.5874 23.4945C46.7671 22.7245 45.4907 22.7245 44.6704 23.4945L31.459 36.6764L33.6465 38.8934L47.617 26.6434C48.049 26.2311 48.2907 25.659 48.2841 25.0618C48.2776 24.4646 48.026 23.8981 47.5874 23.4945Z" fill="white"/>
<path d="M33.5294 39.4195C33.3987 39.4162 33.2739 39.3644 33.1794 39.274L30.9624 37.057C30.8678 36.9591 30.8149 36.8283 30.8149 36.6922C30.8149 36.5561 30.8678 36.4253 30.9624 36.3274L44.1749 23.1729C45.2227 22.1273 46.9202 22.1273 47.9669 23.1729C48.4919 23.6979 48.7763 24.4143 48.7544 25.1559C48.7238 25.893 48.3978 26.5865 47.8499 27.0809L33.8794 39.3309C33.7777 39.403 33.653 39.4348 33.5294 39.4195ZM31.9839 36.6763L33.4419 38.1638L47.1499 26.2343C47.4889 25.939 47.6913 25.5168 47.7044 25.0673C47.7175 24.6177 47.5403 24.178 47.2089 23.8718C46.5713 23.2374 45.542 23.2374 44.9044 23.8718L31.9839 36.6763Z" fill="#FF6C37"/>
<path d="M21.2214 51.6978C21.1841 51.7486 21.1639 51.8099 21.1639 51.8728C21.1639 51.9358 21.1841 51.9971 21.2214 52.0478L21.8043 54.5853C21.8546 54.8883 21.7092 55.1902 21.4412 55.351C21.3113 55.427 21.1606 55.4598 21.0108 55.4446C20.861 55.4295 20.7199 55.3672 20.6078 55.2667L16.6123 51.4167L29.0668 38.8638H33.3839L36.3009 41.7808C31.7506 45.7592 26.6769 49.0959 21.2214 51.6978Z" fill="white"/>
<path d="M20.9591 55.9856C20.6287 55.979 20.3028 55.8434 20.0841 55.606L16.2636 51.7856C16.1487 51.6937 16.0842 51.5537 16.0886 51.406C16.093 51.2693 16.1564 51.1413 16.2636 51.056L28.8045 38.4856C28.8747 38.4109 28.9665 38.3601 29.067 38.3401H33.4125C33.5257 38.3001 33.6493 38.3001 33.7625 38.3401L36.6795 41.2571C36.7922 41.361 36.8469 41.5141 36.825 41.6651C36.8271 41.7376 36.8123 41.8095 36.782 41.8754C36.7516 41.9412 36.7064 41.9991 36.65 42.0446L36.417 42.2491C31.8483 46.0579 26.822 49.2814 21.4545 51.8446L22.0091 54.2071C22.0519 54.3894 22.0536 54.5789 22.0139 54.7618C21.9742 54.9448 21.8941 55.1166 21.7796 55.2647C21.665 55.4128 21.5188 55.5334 21.3517 55.6178C21.1846 55.7022 21.0008 55.7483 20.8136 55.7526L20.9591 55.9856ZM17.4011 51.406L20.842 54.8765C20.8741 54.9051 20.9155 54.9209 20.9585 54.9209C21.0015 54.9209 21.0429 54.9051 21.075 54.8765C21.0964 54.8467 21.108 54.8109 21.108 54.7742C21.108 54.7375 21.0964 54.7017 21.075 54.672L20.492 52.1345C20.398 51.7593 20.5795 51.3688 20.9295 51.2015C26.1527 48.6724 31.0495 45.5187 35.5125 41.8095L33.1205 39.4174H29.2125L17.4011 51.406Z" fill="#FF6C37"/>
<path d="M13.6086 54.4102L16.5257 51.4932L21.0177 55.9852L13.8722 55.4897C13.6207 55.4711 13.4074 55.2928 13.3472 55.0457C13.2871 54.7985 13.3932 54.5425 13.6097 54.4113L13.6086 54.4102Z" fill="white"/>
<path d="M21.1045 56.423L13.9874 55.9276C13.5653 55.8882 13.2021 55.5994 13.0534 55.2134C12.9046 54.8273 12.9954 54.369 13.2874 54.0605L16.2045 51.1435C16.3024 51.0489 16.4331 50.9961 16.5692 50.9961C16.7053 50.9961 16.8361 51.0489 16.934 51.1435L21.3965 55.606C21.5234 55.781 21.5234 56.0151 21.3965 56.189C21.3287 56.2984 21.2259 56.3815 21.1045 56.423ZM13.9874 54.7901L19.8204 55.1696L16.6124 52.1651L13.9874 54.7901Z" fill="#FF6C37"/>
<path d="M33.7919 39.2157L27.8999 40.1203L31.3124 36.7373L33.7919 39.2157Z" fill="white"/>
<path d="M27.8995 40.673C27.6994 40.6784 27.5167 40.5636 27.4325 40.3809C27.3704 40.2964 27.3369 40.1943 27.3369 40.0895C27.3369 39.9846 27.3704 39.8825 27.4325 39.798L30.8155 36.3855C31.0288 36.1853 31.3602 36.1853 31.5734 36.3855L34.0541 38.8639C34.1036 38.9425 34.1299 39.0335 34.1299 39.1264C34.1299 39.2193 34.1036 39.3103 34.0541 39.3889C34.0297 39.4847 33.9783 39.5714 33.906 39.6387C33.8336 39.7061 33.7434 39.7511 33.6461 39.7684L27.8131 40.673H27.8995ZM31.312 37.4934L29.4166 39.3889L32.6836 38.8934L31.312 37.4934Z" fill="#FF6C37"/>
<path d="M33.7918 39.2139L29.6793 39.7389C29.5692 39.7639 29.4541 39.7527 29.3508 39.7071C29.2476 39.6615 29.1619 39.5838 29.1062 39.4856C29.0506 39.3874 29.0282 39.2739 29.0421 39.1619C29.0561 39.0499 29.1058 38.9454 29.1838 38.8639L31.3134 36.7344L33.7918 39.2139Z" fill="white"/>
<path d="M29.5621 40.2943C29.1738 40.2911 28.8184 40.0789 28.6291 39.7398C28.5178 39.5402 28.4746 39.3096 28.5062 39.0832C28.5377 38.8568 28.6424 38.6468 28.8041 38.4853L30.9337 36.3557C31.147 36.1556 31.4784 36.1556 31.6916 36.3557L34.1712 38.8353C34.2449 38.9051 34.2968 38.9949 34.3205 39.0937C34.3443 39.1924 34.3389 39.296 34.3049 39.3917C34.271 39.4874 34.2101 39.5713 34.1294 39.6331C34.0488 39.6949 33.952 39.7319 33.8507 39.7398L29.7677 40.2648L29.5621 40.2943ZM29.5621 39.2148L32.6541 38.8353L31.2837 37.4648L29.5337 39.2148H29.5621ZM54.9371 18.1273C54.8822 18.0353 54.7953 17.9666 54.6931 17.9343C54.5909 17.9021 54.4804 17.9085 54.3826 17.9523C54.3343 17.9768 54.2914 18.0107 54.2565 18.052C54.2215 18.0933 54.1952 18.1413 54.1791 18.1929C54.1463 18.2968 54.1573 18.4095 54.2076 18.5068C54.4121 18.9367 54.3552 19.4453 54.0621 19.8193C53.9855 19.8915 53.9527 19.9911 53.9527 20.0961C53.9538 20.1986 53.9927 20.2972 54.0621 20.3728C54.137 20.4023 54.2202 20.4023 54.2951 20.3728C54.363 20.3898 54.4343 20.388 54.5012 20.3673C54.5681 20.3467 54.6281 20.3081 54.6746 20.2557C54.9148 19.9617 55.0669 19.6057 55.1133 19.2289C55.1598 18.8521 55.0987 18.4709 54.9371 18.1273Z" fill="#FF6C37"/>
</g>
<defs>
<clipPath id="clip0_69_173">
<rect width="70" height="70" fill="white" transform="translate(0.169922 0.58252)"/>
</clipPath>
</defs>
</svg>
