<svg width="94" height="71" viewBox="0 0 94 71" fill="none" xmlns="http://www.w3.org/2000/svg">
<g clip-path="url(#clip0_69_159)">
<path d="M80.4589 40.6428C77.1959 40.6612 74.3704 41.4449 72.0006 42.6118C71.1256 40.88 70.2506 39.3668 70.1049 38.2368C69.9409 36.9243 69.7403 36.122 69.9409 34.5545C70.1412 32.9866 71.0527 30.7626 71.0527 30.5803C71.0343 30.4163 70.852 29.6142 68.9745 29.5959C67.0971 29.5777 65.4745 29.9605 65.2922 30.4527C65.11 30.9449 64.7454 32.0751 64.5084 33.2418C64.1803 34.9553 60.7532 41.0256 58.8027 44.2157C58.1646 42.9762 57.6178 41.8824 57.5082 41.0072C57.3443 39.6949 57.1436 38.8926 57.3443 37.3251C57.5448 35.7572 58.4563 33.5335 58.4563 33.3512C58.4381 33.1871 58.2558 32.385 56.3784 32.3668C54.5006 32.3486 52.8784 32.7314 52.6961 33.2236C52.5138 33.7157 52.3133 34.8824 51.9122 36.0126C51.5292 37.1428 46.9719 47.2782 45.787 49.9215C45.1855 51.2704 44.657 52.346 44.274 53.0751C43.8912 53.8043 44.2558 53.1298 44.2193 53.2027C43.8912 53.8225 43.7089 54.1689 43.7089 54.1689V54.1873C43.4537 54.643 43.1803 55.0803 43.0525 55.0803C42.9613 55.0803 42.779 53.859 43.0889 52.1821C43.7634 48.6637 45.404 43.1769 45.386 42.9763C45.386 42.8852 45.6957 41.9189 44.3285 41.4269C42.9978 40.9347 42.524 41.755 42.4145 41.755C42.3051 41.755 42.2139 42.0467 42.2139 42.0467C42.2139 42.0467 43.6905 35.8671 39.3884 35.8671C36.6905 35.8671 32.9717 38.802 31.1306 41.4817C29.9639 42.1198 27.4848 43.4685 24.8598 44.9088C23.8572 45.4557 22.8181 46.039 21.8337 46.5677L21.6334 46.3486C16.4198 40.7887 6.77662 36.8512 7.17766 29.3772C7.32349 26.6611 8.27141 19.497 25.6987 10.8199C39.9721 3.71053 51.4018 5.66105 53.3886 9.9996C56.2141 16.1975 47.2818 27.7183 32.4435 29.3772C26.7924 30.0152 23.8209 27.8277 23.0737 27.0074C22.2898 26.1506 22.1804 26.1142 21.8888 26.2782C21.4148 26.5335 21.7065 27.2991 21.8888 27.7548C22.3263 28.9032 24.1492 30.9449 27.2482 31.9657C29.9641 32.859 36.5997 33.3512 44.6206 30.2522C53.6075 26.7704 60.6258 17.109 58.5659 9.03345C56.4695 0.812097 42.8341 -1.88582 29.9461 2.6897C22.2714 5.42408 13.9589 9.6897 7.97974 15.2861C0.870369 21.9215 -0.25984 27.7183 0.214119 30.1246C1.87316 38.7105 13.7037 44.3069 18.4433 48.4449C18.2063 48.5723 17.9876 48.6999 17.787 48.8095C15.4172 49.976 6.39381 54.6975 4.13339 59.6921C1.58131 65.3432 4.53443 69.4085 6.50318 69.9553C12.5917 71.6506 18.8261 68.6064 22.1985 63.5933C25.5525 58.5803 25.1516 52.0725 23.6021 49.1012L23.5473 48.9918L25.4066 47.898C26.61 47.1871 27.7948 46.5308 28.8337 45.9656C28.2506 47.5515 27.8311 49.4291 27.6126 52.1635C27.3573 55.372 28.6698 59.5281 30.4016 61.1687C31.1672 61.8794 32.0787 61.8979 32.6438 61.8979C34.649 61.8979 35.5605 60.2388 36.5631 58.252C37.8027 55.8275 38.8964 53.0202 38.8964 53.0202C38.8964 53.0202 37.5292 60.6218 41.2662 60.6218C42.6334 60.6218 44.0006 58.8536 44.6204 57.9421V57.9604C44.6204 57.9604 44.6568 57.9057 44.7297 57.7781C44.8062 57.665 44.8792 57.5495 44.9485 57.4319V57.3954C45.4954 56.4475 46.7167 54.2782 48.5396 50.6871C50.891 46.0569 53.1516 40.26 53.1516 40.26C53.1516 40.26 53.3704 41.6819 54.0449 44.0152C54.4457 45.4008 55.3207 46.9137 55.9952 48.3902C55.4483 49.1558 55.1202 49.5935 55.1202 49.5935L55.1384 49.6118C54.7011 50.1951 54.2087 50.8151 53.6985 51.4347C51.8391 53.6586 49.6152 56.1927 49.3235 56.9218C48.9771 57.7784 49.0501 58.4164 49.7245 58.927C50.2167 59.2916 51.0917 59.3644 52.0214 59.2916C53.6985 59.1821 54.8652 58.763 55.4485 58.5076C56.36 58.1795 57.399 57.6873 58.4016 56.9581C60.2245 55.6093 61.3365 53.6953 61.2271 51.1432C61.1725 49.7395 60.7167 48.3541 60.1516 47.0416C60.3157 46.8046 60.4799 46.5675 60.6438 46.3125C63.524 42.1013 65.748 37.4713 65.748 37.4713C65.748 37.4713 65.9667 38.8932 66.6412 41.2265C66.9874 42.4114 67.6803 43.7059 68.3001 44.9819C65.6021 47.1876 63.9068 49.7397 63.3235 51.4168C62.248 54.5158 63.0865 55.9194 64.6725 56.2475C65.3832 56.3934 66.4042 56.0653 67.1697 55.7371C68.1176 55.4272 69.266 54.8984 70.3235 54.1147C72.1464 52.7658 73.8964 50.8882 73.8053 48.3543C73.7506 47.1876 73.4407 46.0392 73.0214 44.9455C75.3183 43.9975 78.2895 43.4507 82.0631 43.9064C90.1751 44.8543 91.7792 49.922 91.4695 52.0366C91.1596 54.1514 89.4643 55.3179 88.899 55.6824C88.3339 56.0288 88.1516 56.1566 88.2063 56.4116C88.2792 56.7946 88.5344 56.7762 89.0266 56.7035C89.7011 56.5939 93.2922 54.9717 93.4381 51.0708C93.6568 46.0571 88.899 40.5883 80.4589 40.6428ZM17.8964 61.734C15.2167 64.6689 11.4433 65.7808 9.83912 64.8329C8.10735 63.8303 8.78164 59.51 12.0813 56.3928C14.0865 54.497 16.6933 52.747 18.4068 51.6715C18.7896 51.4345 19.373 51.0883 20.0657 50.6689C20.1751 50.5961 20.248 50.5595 20.248 50.5595C20.3756 50.4866 20.5214 50.3954 20.6672 50.3043C21.8886 54.7522 20.7219 58.6532 17.8964 61.734ZM37.4928 48.4085C36.5631 50.6871 34.5943 56.5387 33.4094 56.2105C32.3884 55.9371 31.7688 51.5074 33.2087 47.1324C33.9379 44.9265 35.4874 42.3017 36.3988 41.2807C37.8756 39.64 39.4796 39.0932 39.8808 39.7676C40.3547 40.6428 38.0761 46.9866 37.4928 48.4085ZM53.662 56.1376C53.261 56.3383 52.8964 56.484 52.7323 56.3748C52.6047 56.3019 52.8962 56.0284 52.8962 56.0284C52.8962 56.0284 54.9197 53.8592 55.7217 52.8566C56.1775 52.2734 56.7244 51.5989 57.3077 50.8331V51.0519C57.3079 53.6767 54.7922 55.4267 53.662 56.1376ZM66.1306 53.2939C65.8389 53.0751 65.8756 52.4006 66.8598 50.2861C67.2428 49.4475 68.1176 48.0439 69.6306 46.7131C69.8129 47.26 69.9225 47.7885 69.904 48.2808C69.886 51.5621 67.5527 52.7835 66.1306 53.2939Z" fill="#CF649A"/>
</g>
<defs>
<clipPath id="clip0_69_159">
<rect width="93.3333" height="70" fill="white" transform="translate(0.141113 0.429199)"/>
</clipPath>
</defs>
</svg>
