<svg width="72" height="71" viewBox="0 0 72 71" fill="none" xmlns="http://www.w3.org/2000/svg">
<path d="M2.07443 25.2999C2.07443 25.2999 0.387009 24.0835 2.41192 22.4594L7.12968 18.2408C7.12968 18.2408 8.47962 16.8206 9.9069 18.058L53.4425 51.0191V66.8246C53.4425 66.8246 53.4214 69.3065 50.2363 69.0323L2.07443 25.2999Z" fill="#2489CA"/>
<path d="M13.2959 35.4878L2.07449 45.6897C2.07449 45.6897 0.921415 46.5475 2.07449 48.0802L7.28441 52.8191C7.28441 52.8191 8.52186 54.1479 10.3499 52.6362L22.2462 43.6156L13.2959 35.4878Z" fill="#1070B3"/>
<path d="M32.9966 35.5722L53.5762 19.8581L53.4426 4.1369C53.4426 4.1369 52.5637 0.705807 49.6318 2.49166L22.2463 27.4163L32.9966 35.5722Z" fill="#0877B9"/>
<path d="M50.2365 69.0533C51.4318 70.2767 52.8801 69.8759 52.8801 69.8759L68.9177 61.9731C70.9707 60.574 70.6825 58.8373 70.6825 58.8373V11.6457C70.6825 9.57157 68.5591 8.85442 68.5591 8.85442L54.659 2.15394C51.6216 0.276677 49.6318 2.49142 49.6318 2.49142C49.6318 2.49142 52.1911 0.649317 53.4426 4.13666V66.5362C53.4426 66.9651 53.3512 67.387 53.1684 67.7666C52.8028 68.5049 52.0083 69.1939 50.1029 68.9056L50.2365 69.0533Z" fill="#3C99D4"/>
</svg>
