<svg xmlns="http://www.w3.org/2000/svg" width="72" height="71" viewBox="0 0 72 71" fill="none">
<g clip-path="url(#clip0_153_183)">
<path d="M12.7111 0.762085H59.0691C66.0976 0.762085 71.7802 6.44468 71.7802 13.4732V58.0367C71.7802 65.0651 66.0976 70.7477 59.0691 70.7477H12.7111C5.6826 70.7477 0 65.0651 0 58.0367V13.4732C0 6.44468 5.6826 0.762085 12.7111 0.762085Z" fill="#330000"/>
<path d="M34.6937 42.6338H23.5678L21.2947 49.6623C21.2349 49.9315 20.9957 50.1109 20.7265 50.081H15.1037C14.7747 50.081 14.685 49.9016 14.7747 49.5427L24.4052 21.8176C24.4949 21.5185 24.5847 21.1895 24.7043 20.8306C24.8239 20.2025 24.8837 19.5446 24.8837 18.8866C24.8538 18.737 24.9735 18.5875 25.123 18.5576H32.8693C33.1086 18.5576 33.2282 18.6473 33.2581 18.7969L44.1747 49.6025C44.2644 49.9315 44.1747 50.081 43.8756 50.081H37.6247C37.4154 50.1109 37.206 49.9614 37.1462 49.752L34.6937 42.6338ZM25.3025 36.5624H32.8992C32.7197 35.9344 32.4805 35.1867 32.2113 34.409C31.9421 33.6015 31.673 32.7342 31.4038 31.8369C31.1047 30.9098 30.8355 30.0125 30.5364 29.0853C30.2374 28.1582 29.9682 27.2908 29.7289 26.4235C29.4896 25.5861 29.2803 24.8084 29.0709 24.0906H29.0111C28.7419 25.3767 28.4129 26.6628 27.9942 27.9488C27.5456 29.3844 27.097 30.8798 26.6184 32.3753C26.1997 33.9006 25.7511 35.3063 25.3025 36.5624ZM50.8442 23.7916C49.8573 23.8215 48.9002 23.4327 48.1824 22.7448C47.4945 21.997 47.1356 21.0101 47.1655 19.9932C47.1356 18.9763 47.5244 18.0192 48.2422 17.3313C48.96 16.6434 49.9171 16.2845 50.9041 16.2845C52.0705 16.2845 52.9677 16.6434 53.6257 17.3313C54.2837 18.0491 54.6426 19.0062 54.6127 19.9932C54.6426 21.0101 54.2837 21.997 53.5659 22.7448C52.878 23.4626 51.8611 23.8514 50.8442 23.7916ZM47.4945 49.752V26.7226C47.4945 26.4235 47.6141 26.3039 47.8833 26.3039H53.8052C54.0743 26.3039 54.194 26.4534 54.194 26.7226V49.752C54.194 50.081 54.0743 50.2306 53.8052 50.2306H47.9431C47.644 50.2306 47.4945 50.0511 47.4945 49.752Z" fill="#FF9A00"/>
</g>
<defs>
<clipPath id="clip0_153_183">
<rect width="71.7802" height="70" fill="white" transform="translate(0 0.754883)"/>
</clipPath>
</defs>
</svg>